SplineFontDB: 3.0
FontName: BenchNine-Regular
FullName: BenchNine Regular
FamilyName: BenchNine
Weight: Book
Copyright: Copyright (c) 2011-12 by vernon adams.
Version: 0.1
ItalicAngle: 0
UnderlinePosition: 0
UnderlineWidth: 0
Ascent: 1638
Descent: 410
sfntRevision: 0x00001999
LayerCount: 2
Layer: 0 1 "Back"  1
Layer: 1 1 "Fore"  0
XUID: [1021 332 1330122705 2768328]
FSType: 0
OS2Version: 4
OS2_WeightWidthSlopeOnly: 0
OS2_UseTypoMetrics: 1
CreationTime: 1348007947
ModificationTime: 1348149344
PfmFamily: 17
TTFWeight: 400
TTFWidth: 5
LineGap: 0
VLineGap: 0
Panose: 2 0 5 3 0 0 0 0 0 0
OS2TypoAscent: 2020
OS2TypoAOffset: 0
OS2TypoDescent: -720
OS2TypoDOffset: 0
OS2TypoLinegap: 0
OS2WinAscent: 2020
OS2WinAOffset: 0
OS2WinDescent: 720
OS2WinDOffset: 0
HheadAscent: 2020
HheadAOffset: 0
HheadDescent: -720
HheadDOffset: 0
OS2SubXSize: 1331
OS2SubYSize: 1433
OS2SubXOff: 0
OS2SubYOff: 286
OS2SupXSize: 1331
OS2SupYSize: 1433
OS2SupXOff: 0
OS2SupYOff: 983
OS2StrikeYSize: 102
OS2StrikeYPos: 530
OS2Vendor: 'newt'
OS2CodePages: 00000093.00000000
OS2UnicodeRanges: a00000ef.4000204a.00000000.00000000
Lookup: 4 0 1 "'liga' Standard Ligatures lookup 0"  {"'liga' Standard Ligatures lookup 0 subtable"  } ['liga' ('DFLT' <'dflt' > 'grek' <'dflt' > 'latn' <'dflt' > ) ]
Lookup: 258 0 0 "'kern' Horizontal Kerning in Latin lookup 0"  {"'kern' Horizontal Kerning in Latin lookup 0 per glyph data 0"  "'kern' Horizontal Kerning in Latin lookup 0 kerning class 1"  } ['kern' ('DFLT' <'dflt' > 'latn' <'dflt' > ) ]
MarkAttachClasses: 1
DEI: 91125
KernClass2: 30 28 "'kern' Horizontal Kerning in Latin lookup 0 kerning class 1" 
 89 A Agrave Aacute Acircumflex Atilde Adieresis Aring Amacron Abreve Aogonek uni0200 uni0202
 1 C
 16 D Dcaron uni1E0A
 9 F uni1E1E
 1 G
 14 K Kcommaaccent
 28 L Lacute Lcommaaccent Lcaron
 89 O Ograve Oacute Ocircumflex Otilde Odieresis Omacron Obreve Ohungarumlaut uni020C uni020E
 9 P uni1E56
 44 R Racute Rcommaaccent Rcaron uni0210 uni0212
 24 T Tcaron uni021A uni1E6A
 1 V

StartChar: .notdef
Encoding: 65536 -1 0
Width: 349
Flags: W
LayerCount: 2
Fore
SplineSet
70 -197 m 1,0,-1
 280 -197 l 1,1,-1
 280 1373 l 1,2,-1
 70 1373 l 1,3,-1
 70 -197 l 1,0,-1
35 -299 m 1,4,-1
 35 1475 l 1,5,-1
 314 1475 l 1,6,-1
 314 -299 l 1,7,-1
 35 -299 l 1,4,-1
EndSplineSet
EndChar

StartChar: exclam
Encoding: 33 33 4
Width: 366
GlyphClass: 2
Flags: W
LayerCount: 2
Fore
SplineSet
125 0 m 2,0,1
 98 0 98 0 98 53 c 2,2,-1
 98 186 l 2,3,4
 98 238 98 238 125 238 c 2,5,-1
 242 238 l 2,6,7
 268 238 268 238 268 186 c 2,8,-1
 268 53 l 2,9,10
 268 0 268 0 242 0 c 2,11,-1
 125 0 l 2,0,1
108 1420 m 2,12,13
 108 1482 108 1482 135 1482 c 2,14,-1
 232 1482 l 2,15,16
 242 1482 242 1482 250.5 1464.5 c 128,-1,17
 259 1447 259 1447 259 1419 c 2,18,-1
 259 1411 l 1,19,-1
 218 504 l 2,20,21
 215 432 215 432 197 432 c 2,22,-1
 170 432 l 2,23,24
 153 432 153 432 150 504 c 2,25,-1
 108 1411 l 1,26,-1
 108 1420 l 2,12,13
EndSplineSet
EndChar

StartChar: quotedbl
Encoding: 34 34 5
Width: 478
GlyphClass: 2
Flags: W
LayerCount: 2
Fore
SplineSet
335 908 m 2,0,1
 317 908 317 908 314 974 c 1,2,-1
 280 1367 l 1,3,-1
 280 1375 l 2,4,5
 280 1401 280 1401 287.5 1419.5 c 128,-1,6
 295 1438 295 1438 305 1438 c 2,7,-1
 387 1438 l 2,8,9
 397 1438 397 1438 404 1418.5 c 128,-1,10
 411 1399 411 1399 411 1371 c 2,11,-1
 411 1366 l 1,12,-1
 379 974 l 2,13,14
 374 908 374 908 358 908 c 2,15,-1
 335 908 l 2,0,1
122 908 m 2,16,17
 104 908 104 908 101 974 c 1,18,-1
 67 1367 l 1,19,-1
 67 1375 l 2,20,21
 67 1401 67 1401 74.5 1419.5 c 128,-1,22
 82 1438 82 1438 92 1438 c 2,23,-1
 174 1438 l 2,24,25
 184 1438 184 1438 191 1418.5 c 128,-1,26
 198 1399 198 1399 198 1371 c 2,27,-1
 198 1366 l 1,28,-1
 166 974 l 2,29,30
 161 908 161 908 145 908 c 2,31,-1
 122 908 l 2,16,17
EndSplineSet
EndChar

StartChar: numbersign
Encoding: 35 35 6
Width: 713
GlyphClass: 2
Flags: W
LayerCount: 2
Fore
SplineSet
603 374 m 2,0,1
 603 328 603 328 579 328 c 2,2,-1
 496 328 l 1,3,-1
 459 -138 l 2,4,5
 456 -173 456 -173 443 -173 c 2,6,-1
 380 -173 l 2,7,8
 370 -173 370 -173 372 -138 c 2,9,-1
 409 328 l 1,10,-1
 265 328 l 1,11,-1
 228 -138 l 2,12,13
 225 -173 225 -173 211 -173 c 2,14,-1
 147 -173 l 2,15,16
 143 -173 143 -173 140 -162 c 128,-1,17
 137 -151 137 -151 139 -138 c 2,18,-1
 175 328 l 1,19,-1
 115 328 l 2,20,21
 92 328 92 328 92 374 c 2,22,-1
 92 401 l 2,23,24
 92 429 92 429 96 438 c 128,-1,25
 100 447 100 447 112 447 c 2,26,-1
 187 447 l 1,27,-1
 220 866 l 1,28,-1
 152 866 l 2,29,30
 128 866 128 866 128 912 c 2,31,-1
 128 942 l 2,32,33
 128 988 128 988 151 988 c 2,34,-1
 233 988 l 1,35,-1
 278 1504 l 2,36,37
 280 1539 280 1539 294 1539 c 2,38,-1
 359 1539 l 2,39,40
 369 1539 369 1539 367 1504 c 2,41,-1
 323 988 l 1,42,-1
 467 988 l 1,43,-1
 512 1504 l 2,44,45
 515 1539 515 1539 528 1539 c 2,46,-1
 591 1539 l 2,47,48
 602 1539 602 1539 598 1504 c 1,49,-1
 554 988 l 1,50,-1
 616 988 l 2,51,52
 638 988 638 988 638 942 c 2,53,-1
 638 912 l 2,54,55
 638 866 638 866 618 866 c 2,56,-1
 541 866 l 1,57,-1
 509 447 l 1,58,-1
 576 447 l 2,59,60
 603 447 603 447 603 401 c 2,61,-1
 603 374 l 2,0,1
277 447 m 1,62,-1
 421 447 l 1,63,-1
 453 866 l 1,64,-1
 310 866 l 1,65,-1
 277 447 l 1,62,-1
EndSplineSet
EndChar

StartChar: percent
Encoding: 37 37 8
Width: 1017
GlyphClass: 2
Flags: W
LayerCount: 2
Fore
SplineSet
640 1536 m 2,0,1
 656 1536 656 1536 656 1489 c 0,2,3
 656 1482 656 1482 654 1466 c 2,4,-1
 432 -12 l 1,5,6
 420 -82 420 -82 395 -82 c 2,7,-1
 364 -82 l 2,8,9
 357 -82 357 -82 351.5 -67 c 128,-1,10
 346 -52 346 -52 346 -39 c 128,-1,11
 346 -26 346 -26 348 -12 c 2,12,-1
 571 1466 l 1,13,14
 583 1536 583 1536 608 1536 c 2,15,-1
 640 1536 l 2,0,1
112 1044.5 m 128,-1,17
 112 743 112 743 197.5 743 c 128,-1,18
 283 743 283 743 283 1044.5 c 128,-1,19
 283 1346 283 1346 197.5 1346 c 128,-1,16
 112 1346 112 1346 112 1044.5 c 128,-1,17
198 642 m 0,20,21
 26 642 26 642 26 1045 c 128,-1,22
 26 1448 26 1448 197.5 1448 c 128,-1,23
 369 1448 369 1448 369 1044 c 0,24,25
 369 846 369 846 325 744 c 128,-1,26
 281 642 281 642 198 642 c 0,20,21
722 402.5 m 128,-1,28
 722 101 722 101 807 101 c 128,-1,29
 892 101 892 101 892 402.5 c 128,-1,30
 892 704 892 704 807 704 c 128,-1,27
 722 704 722 704 722 402.5 c 128,-1,28
808 -1 m 0,31,32
 636 -1 636 -1 636 402.5 c 128,-1,33
 636 806 636 806 808 806 c 0,34,35
 891 806 891 806 934.5 702.5 c 128,-1,36
 978 599 978 599 978 401.5 c 128,-1,37
 978 204 978 204 934 101.5 c 128,-1,38
 890 -1 890 -1 808 -1 c 0,31,32
EndSplineSet
EndChar

StartChar: ampersand
Encoding: 38 38 9
Width: 1134
GlyphClass: 2
Flags: W
LayerCount: 2
Fore
SplineSet
567 -4.5 m 128,-1,1
 523 -16 523 -16 459 -16 c 128,-1,2
 395 -16 395 -16 334 6 c 128,-1,3
 273 28 273 28 223 76 c 0,4,5
 119 176 119 176 119 411 c 0,6,7
 119 541 119 541 177 634.5 c 128,-1,8
 235 728 235 728 306 750 c 1,9,10
 233 769 233 769 175 850 c 128,-1,11
 117 931 117 931 117 1071 c 0,12,13
 117 1268 117 1268 200 1363.5 c 128,-1,14
 283 1459 283 1459 422 1459 c 0,15,16
 514 1459 514 1459 564 1433 c 0,17,18
 594 1418 594 1418 589 1386 c 1,19,-1
 585 1325 l 2,20,21
 583 1285 583 1285 558 1298 c 0,22,23
 557 1298 557 1298 547.5 1302 c 128,-1,24
 538 1306 538 1306 528 1310 c 0,25,26
 502 1320 502 1320 442.5 1319.5 c 0,27,28
 383 1320 383 1320 331 1264 c 0,29,30
 278 1208 278 1208 278 1086 c 0,31,32
 278 969 278 969 322 898 c 0,33,34
 366 826 366 826 448 826 c 2,35,-1
 696 826 l 2,36,37
 711 826 711 826 711 856 c 2,38,-1
 716 1354 l 2,39,40
 717 1408 717 1408 747 1408 c 2,41,-1
 843 1408 l 2,42,43
 872 1408 872 1408 872 1354 c 2,44,-1
 872 856 l 2,45,46
 872 826 872 826 886 826 c 2,47,-1
 1035 826 l 2,48,49
 1066 826 1066 826 1066 775 c 2,50,-1
 1066 741 l 2,51,52
 1066 688 1066 688 1035 688 c 2,53,-1
 886 688 l 2,54,55
 872 688 872 688 872 659 c 2,56,-1
 872 349 l 2,57,58
 872 124 872 124 979 124 c 0,59,60
 1021 124 1021 124 1065 156 c 0,61,62
 1076 164 1076 164 1085 155.5 c 128,-1,63
 1094 147 1094 147 1096 125 c 2,64,-1
 1099 81 l 1,65,-1
 1099 72 l 2,66,67
 1099 36 1099 36 1078 21 c 1,68,69
 1015 -17 1015 -17 952 -17 c 128,-1,70
 889 -17 889 -17 830.5 20 c 128,-1,71
 772 57 772 57 751 127 c 1,72,73
 690 47 690 47 650.5 27 c 128,-1,0
 611 7 611 7 567 -4.5 c 128,-1,1
492 115 m 1,74,75
 669 115 669 115 714 264 c 0,76,77
 715 268 715 268 715 269 c 2,78,-1
 711 660 l 2,79,80
 711 688 711 688 696 688 c 2,81,-1
 458 688 l 1,82,83
 385 687 385 687 332.5 611 c 128,-1,84
 280 535 280 535 280 429 c 128,-1,85
 280 323 280 323 301 262.5 c 128,-1,86
 322 202 322 202 356 172 c 0,87,88
 444 120 444 120 492 115 c 1,74,75
EndSplineSet
EndChar

StartChar: quotesingle
Encoding: 39 39 10
Width: 265
GlyphClass: 2
Flags: W
LayerCount: 2
Fore
SplineSet
122 908 m 2,0,1
 104 908 104 908 101 974 c 1,2,-1
 67 1367 l 1,3,-1
 67 1375 l 2,4,5
 67 1401 67 1401 74.5 1419.5 c 128,-1,6
 82 1438 82 1438 92 1438 c 2,7,-1
 174 1438 l 2,8,9
 184 1438 184 1438 191 1418.5 c 128,-1,10
 198 1399 198 1399 198 1371 c 2,11,-1
 198 1366 l 1,12,-1
 166 974 l 2,13,14
 161 908 161 908 145 908 c 2,15,-1
 122 908 l 2,0,1
EndSplineSet
EndChar

StartChar: parenleft
Encoding: 40 40 11
Width: 425
GlyphClass: 2
Flags: W
LayerCount: 2
Fore
SplineSet
302 -143 m 1,0,1
 232 -113 232 -113 186 15 c 0,2,3
 100 250 100 250 101 699 c 0,4,5
 101 1027 101 1027 150.5 1261.5 c 128,-1,6
 200 1496 200 1496 302 1540 c 1,7,-1
 303 1540 l 1,8,9
 304 1541 304 1541 305 1541 c 0,10,11
 314 1541 314 1541 321 1519 c 128,-1,12
 328 1497 328 1497 328 1470 c 2,13,-1
 328 1415 l 2,14,15
 328 1358 328 1358 319.5 1342 c 128,-1,16
 311 1326 311 1326 297 1305 c 0,17,18
 218 1186 218 1186 218 697 c 128,-1,19
 218 208 218 208 298 91 c 0,20,21
 328 47 328 47 328 -18 c 2,22,-1
 328 -73 l 2,23,24
 328 -100 328 -100 321 -122 c 128,-1,25
 314 -144 314 -144 305 -144 c 2,26,-1
 304 -144 l 1,27,-1
 302 -143 l 1,0,1
EndSplineSet
EndChar

StartChar: parenright
Encoding: 41 41 12
Width: 429
GlyphClass: 2
Flags: W
LayerCount: 2
Fore
SplineSet
124 -143 m 1,0,-1
 123 -144 l 2,1,2
 122 -144 122 -144 121 -144 c 0,3,4
 112 -144 112 -144 105 -122 c 128,-1,5
 98 -100 98 -100 98 -73 c 2,6,-1
 98 -17 l 2,7,8
 98 39 98 39 106 55 c 128,-1,9
 114 71 114 71 129 92 c 0,10,11
 209 209 209 209 209 699 c 128,-1,12
 209 1189 209 1189 129 1306 c 0,13,14
 119 1321 119 1321 118 1323 c 128,-1,15
 117 1325 117 1325 113.5 1330.5 c 128,-1,16
 110 1336 110 1336 109 1338.5 c 128,-1,17
 108 1341 108 1341 106 1346.5 c 128,-1,18
 104 1352 104 1352 103 1356.5 c 128,-1,19
 102 1361 102 1361 101 1367.5 c 128,-1,20
 100 1374 100 1374 100 1381 c 0,21,22
 98 1402 98 1402 98 1416 c 2,23,-1
 98 1470 l 2,24,25
 98 1497 98 1497 105 1519 c 128,-1,26
 112 1541 112 1541 121 1541 c 0,27,28
 122 1541 122 1541 124 1540 c 0,29,30
 193 1510 193 1510 240 1382 c 0,31,32
 326 1148 326 1148 326 698 c 0,33,34
 326 370 326 370 276 135.5 c 128,-1,35
 226 -99 226 -99 124 -143 c 1,0,-1
EndSplineSet
EndChar

StartChar: asterisk
Encoding: 42 42 13
Width: 709
GlyphClass: 2
Flags: W
LayerCount: 2
Fore
SplineSet
184 460 m 0,0,1
 184 515 184 515 321 698 c 1,2,-1
 135 753 l 2,3,4
 99 764 99 764 99 802 c 0,5,6
 99 878 99 878 141 878 c 0,7,8
 162 878 162 878 244 814 c 128,-1,9
 326 750 326 750 336 743 c 1,10,11
 333 768 333 768 325 822 c 0,12,13
 309 931 309 931 309 976 c 128,-1,14
 309 1021 309 1021 322 1033.5 c 128,-1,15
 335 1046 335 1046 355 1046 c 0,16,17
 400 1046 400 1046 400 1001 c 1,18,-1
 379 743 l 1,19,-1
 537 843 l 1,20,21
 547 848 547 848 561 848 c 128,-1,22
 575 848 575 848 589.5 830 c 128,-1,23
 604 812 604 812 604 790 c 0,24,25
 604 753 604 753 564 743 c 2,26,-1
 388 698 l 1,27,28
 524 548 524 548 541 527 c 128,-1,29
 558 506 558 506 558 491 c 128,-1,30
 558 476 558 476 541.5 461.5 c 128,-1,31
 525 447 525 447 505 447 c 128,-1,32
 485 447 485 447 472 467 c 2,33,-1
 353 667 l 1,34,-1
 269 431 l 2,35,36
 266 422 266 422 245.5 422 c 128,-1,37
 225 422 225 422 204.5 432.5 c 128,-1,38
 184 443 184 443 184 460 c 0,0,1
EndSplineSet
EndChar

StartChar: plus
Encoding: 43 43 14
Width: 801
GlyphClass: 2
Flags: W
LayerCount: 2
Fore
SplineSet
483 553 m 2,0,1
 466 553 466 553 466 531 c 2,2,-1
 466 328 l 2,3,4
 466 300 466 300 458.5 291.5 c 128,-1,5
 451 283 451 283 435 283 c 2,6,-1
 380 283 l 2,7,8
 363 283 363 283 355 291.5 c 128,-1,9
 347 300 347 300 347 328 c 2,10,-1
 347 531 l 2,11,12
 347 553 347 553 332 553 c 2,13,-1
 149 553 l 2,14,15
 118 553 118 553 118 593 c 2,16,-1
 118 618 l 2,17,18
 118 650 118 650 128.5 653.5 c 128,-1,19
 139 657 139 657 149 657 c 2,20,-1
 332 657 l 2,21,22
 347 657 347 657 347 679 c 2,23,-1
 347 875 l 2,24,25
 347 903 347 903 355 911.5 c 128,-1,26
 363 920 363 920 380 920 c 2,27,-1
 435 920 l 2,28,29
 451 920 451 920 458.5 911.5 c 128,-1,30
 466 903 466 903 466 875 c 2,31,-1
 466 679 l 2,32,33
 466 657 466 657 483 657 c 2,34,-1
 663 657 l 2,35,36
 694 657 694 657 694 618 c 2,37,-1
 694 593 l 2,38,39
 694 553 694 553 663 553 c 2,40,-1
 483 553 l 2,0,1
EndSplineSet
EndChar

StartChar: comma
Encoding: 44 44 15
Width: 366
GlyphClass: 2
Flags: W
LayerCount: 2
Fore
SplineSet
209 242 m 2,0,1
 236 242 236 242 236 174 c 2,2,-1
 236 64 l 2,3,4
 236 -95 236 -95 195.5 -187 c 128,-1,5
 155 -279 155 -279 108 -301 c 0,6,7
 104 -303 104 -303 101 -303 c 0,8,9
 85 -303 85 -303 85 -262 c 2,10,-1
 85 -247 l 2,11,12
 85 -215 85 -215 89.5 -208.5 c 128,-1,13
 94 -202 94 -202 99.5 -195 c 128,-1,14
 105 -188 105 -188 116 -172.5 c 128,-1,15
 127 -157 127 -157 138.5 -109.5 c 128,-1,16
 150 -62 150 -62 150 -31 c 128,-1,17
 150 0 150 0 144 0 c 2,18,-1
 102 0 l 2,19,20
 81 0 81 0 81 55 c 2,21,-1
 81 181 l 2,22,23
 81 211 81 211 90 226.5 c 128,-1,24
 99 242 99 242 111 242 c 2,25,-1
 209 242 l 2,0,1
EndSplineSet
EndChar

StartChar: hyphen
Encoding: 45 45 16
Width: 474
GlyphClass: 2
Flags: W
LayerCount: 2
Fore
SplineSet
112 503 m 2,0,1
 87 503 87 503 87 555 c 2,2,-1
 87 633 l 2,3,4
 87 686 87 686 112 686 c 2,5,-1
 358 686 l 2,6,7
 383 686 383 686 383 633 c 2,8,-1
 383 555 l 2,9,10
 383 503 383 503 358 503 c 2,11,-1
 112 503 l 2,0,1
EndSplineSet
EndChar

StartChar: period
Encoding: 46 46 17
Width: 344
GlyphClass: 2
Flags: W
LayerCount: 2
Fore
SplineSet
115 0 m 2,0,1
 88 0 88 0 88 53 c 2,2,-1
 88 186 l 2,3,4
 88 238 88 238 115 238 c 2,5,-1
 232 238 l 2,6,7
 258 238 258 238 258 186 c 2,8,-1
 258 53 l 2,9,10
 258 0 258 0 232 0 c 2,11,-1
 115 0 l 2,0,1
EndSplineSet
EndChar

StartChar: slash
Encoding: 47 47 18
Width: 531
GlyphClass: 2
Flags: W
LayerCount: 2
Fore
SplineSet
89 -205 m 2,0,1
 81 -205 81 -205 81 -178 c 2,2,-1
 81 -170 l 1,3,-1
 316 1612 l 1,4,5
 319 1647 319 1647 333 1647 c 2,6,-1
 445 1647 l 2,7,8
 454 1647 454 1647 454 1620 c 2,9,-1
 454 1612 l 1,10,-1
 219 -171 l 2,11,12
 214 -206 214 -206 203 -206 c 2,13,-1
 89 -205 l 2,0,1
EndSplineSet
EndChar

StartChar: zero
Encoding: 48 48 19
Width: 860
GlyphClass: 2
Flags: W
LayerCount: 2
Fore
SplineSet
429 114 m 128,-1,1
 524 114 524 114 564.5 253 c 128,-1,2
 605 392 605 392 605 721.5 c 128,-1,3
 605 1051 605 1051 564.5 1187.5 c 128,-1,4
 524 1324 524 1324 428 1324 c 128,-1,5
 332 1324 332 1324 292 1187.5 c 128,-1,6
 252 1051 252 1051 252 722.5 c 128,-1,7
 252 394 252 394 293 254 c 128,-1,0
 334 114 334 114 429 114 c 128,-1,1
433 -14 m 0,8,9
 381 -14 381 -14 341.5 0.5 c 128,-1,10
 302 15 302 15 264 47 c 128,-1,11
 226 79 226 79 196.5 135.5 c 128,-1,12
 167 192 167 192 145 272 c 0,13,14
 99 439 99 439 99 670 c 128,-1,15
 99 901 99 901 116.5 1032 c 128,-1,16
 134 1163 134 1163 163 1242.5 c 128,-1,17
 192 1322 192 1322 236 1370 c 0,18,19
 311 1453 311 1453 428 1453 c 0,20,21
 486 1453 486 1453 531.5 1436 c 128,-1,22
 577 1419 577 1419 621 1371 c 0,23,24
 664 1323 664 1323 694 1244 c 0,25,26
 758 1071 758 1071 759 726 c 0,27,28
 759 -14 759 -14 433 -14 c 0,8,9
EndSplineSet
EndChar

StartChar: one
Encoding: 49 49 20
Width: 499
GlyphClass: 2
Flags: W
LayerCount: 2
Fore
SplineSet
220 0 m 2,0,1
 197 0 197 0 197 67 c 2,2,-1
 197 1217 l 2,3,4
 197 1249 197 1249 183 1244 c 1,5,6
 97 1222 97 1222 91 1221 c 0,7,8
 74 1218 74 1218 74 1260 c 2,9,-1
 74 1337 l 2,10,11
 74 1369 74 1369 97 1374 c 1,12,-1
 325 1434 l 2,13,14
 335 1436 335 1436 338 1436 c 0,15,16
 358 1436 358 1436 358 1394 c 2,17,-1
 358 67 l 2,18,19
 358 0 358 0 334 0 c 2,20,-1
 220 0 l 2,0,1
EndSplineSet
EndChar

StartChar: two
Encoding: 50 50 21
Width: 739
GlyphClass: 2
Flags: W
LayerCount: 2
Fore
SplineSet
644 41 m 2,0,1
 644 0 644 0 625 0 c 2,2,-1
 119 0 l 2,3,4
 94 0 94 0 94 57 c 0,5,6
 94 304 94 304 192 490 c 0,7,8
 253 606 253 606 333 712 c 128,-1,9
 413 818 413 818 450 874 c 0,10,11
 533 1000 533 1000 533 1106 c 128,-1,12
 533 1212 533 1212 487.5 1266 c 128,-1,13
 442 1320 442 1320 365 1320 c 0,14,15
 286 1320 286 1320 243 1306 c 128,-1,16
 200 1292 200 1292 159 1276 c 128,-1,17
 118 1260 118 1260 112 1258 c 1,18,19
 99 1245 99 1245 97 1267 c 1,20,21
 77 1320 77 1320 77 1347.5 c 128,-1,22
 77 1375 77 1375 85 1385 c 1,23,24
 210 1453 210 1453 368 1453 c 0,25,26
 610 1452 610 1452 672 1258 c 0,27,28
 690 1200 690 1200 690 1127 c 128,-1,29
 690 1054 690 1054 670 987 c 128,-1,30
 650 920 650 920 616.5 863.5 c 128,-1,31
 583 807 583 807 542.5 750 c 128,-1,32
 502 693 502 693 458.5 631 c 0,33,34
 414 570 414 570 376 504 c 0,35,36
 289 355 289 355 264 175 c 1,37,38
 261 168 261 168 264.5 144 c 128,-1,39
 268 120 268 120 273 120 c 2,40,-1
 626 120 l 2,41,42
 644 120 644 120 644 77 c 2,43,-1
 644 41 l 2,0,1
EndSplineSet
EndChar

StartChar: three
Encoding: 51 51 22
Width: 675
GlyphClass: 2
Flags: W
LayerCount: 2
Fore
SplineSet
74 33 m 1,0,1
 61 44 61 44 61 69 c 0,2,3
 61 147 61 147 70 147 c 1,4,5
 71 159 71 159 73 164 c 128,-1,6
 75 169 75 169 81 164 c 1,7,8
 161 117 161 117 264 117 c 128,-1,9
 367 117 367 117 416.5 184.5 c 128,-1,10
 466 252 466 252 466 395 c 0,11,12
 465 658 465 658 275 663 c 0,13,14
 268 664 268 664 246 664 c 128,-1,15
 224 664 224 664 219 670.5 c 128,-1,16
 214 677 214 677 214 695 c 2,17,-1
 214 778 l 2,18,19
 214 802 214 802 240 802 c 0,20,21
 364 802 364 802 409 866.5 c 128,-1,22
 454 931 454 931 454 1065 c 128,-1,23
 454 1199 454 1199 409.5 1260 c 128,-1,24
 365 1321 365 1321 263.5 1321 c 128,-1,25
 162 1321 162 1321 76 1271 c 1,26,27
 69 1265 69 1265 67 1280 c 2,28,-1
 66 1288 l 1,29,30
 63 1288 63 1288 59.5 1314 c 128,-1,31
 56 1340 56 1340 56 1350 c 0,32,33
 56 1388 56 1388 72 1399 c 1,34,35
 160 1453 160 1453 294 1453 c 128,-1,36
 428 1453 428 1453 511 1368 c 0,37,38
 600 1277 600 1277 600 1062 c 0,39,40
 600 784 600 784 403 732 c 1,41,42
 609 690 609 690 609 366 c 0,43,44
 608 150 608 150 506 63 c 0,45,46
 415 -14 415 -14 277.5 -14 c 128,-1,47
 140 -14 140 -14 74 33 c 1,0,1
EndSplineSet
EndChar

StartChar: four
Encoding: 52 52 23
Width: 853
GlyphClass: 2
Flags: W
LayerCount: 2
Fore
SplineSet
680 56 m 2,0,1
 680 0 680 0 644 0 c 2,2,-1
 574 0 l 2,3,4
 537 0 537 0 537 56 c 2,5,-1
 537 283 l 1,6,-1
 150 283 l 2,7,8
 127 283 127 283 111 297.5 c 128,-1,9
 95 312 95 312 95 328.5 c 128,-1,10
 95 345 95 345 96 350 c 2,11,-1
 236 1371 l 1,12,13
 242 1407 242 1407 249.5 1422.5 c 128,-1,14
 257 1438 257 1438 274 1438 c 2,15,-1
 336 1438 l 2,16,17
 368 1438 368 1438 368 1388 c 0,18,19
 368 1377 368 1377 367 1371 c 2,20,-1
 249 432 l 2,21,22
 246 406 246 406 268 406 c 2,23,-1
 537 406 l 1,24,-1
 537 1380 l 2,25,26
 537 1438 537 1438 574 1438 c 2,27,-1
 644 1438 l 2,28,29
 680 1438 680 1438 680 1380 c 2,30,-1
 680 406 l 1,31,-1
 805 406 l 2,32,33
 831 406 831 406 842 394 c 128,-1,34
 853 382 853 382 853 354 c 2,35,-1
 853 332 l 2,36,37
 853 305 853 305 842 294 c 128,-1,38
 831 283 831 283 805 283 c 2,39,-1
 680 283 l 1,40,-1
 680 56 l 2,0,1
EndSplineSet
EndChar

StartChar: five
Encoding: 53 53 24
Width: 858
GlyphClass: 2
Flags: W
LayerCount: 2
Fore
SplineSet
239 809 m 1,0,1
 325 935 325 935 483 935 c 128,-1,2
 641 935 641 935 710 813 c 128,-1,3
 779 691 779 691 779 465 c 0,4,5
 780 186 780 186 676 81 c 0,6,7
 582 -14 582 -14 409 -14 c 0,8,9
 333 -14 333 -14 254 4.5 c 128,-1,10
 175 23 175 23 149 39.5 c 128,-1,11
 123 56 123 56 123 95 c 0,12,13
 123 179 123 179 141 179 c 0,14,15
 144 179 144 179 150 176 c 0,16,17
 310 119 310 119 388 119 c 128,-1,18
 466 119 466 119 507 136 c 128,-1,19
 548 153 548 153 572 181 c 0,20,21
 596 208 596 208 610 256 c 0,22,23
 633 334 633 334 633 425.5 c 128,-1,24
 633 517 633 517 630.5 552.5 c 128,-1,25
 628 588 628 588 621.5 629 c 128,-1,26
 615 670 615 670 601 700.5 c 0,27,28
 587 732 587 732 566 758 c 0,29,30
 524 812 524 812 454 811.5 c 128,-1,31
 384 811 384 811 342 790 c 128,-1,32
 300 769 300 769 280 744 c 0,33,34
 226 677 226 677 200 677 c 2,35,-1
 150 677 l 2,36,37
 135 678 135 678 131 694 c 0,38,39
 126 715 126 715 126 757 c 2,40,-1
 118 1370 l 1,41,-1
 118 1383 l 2,42,43
 118 1415 118 1415 131 1426.5 c 128,-1,44
 144 1438 144 1438 176 1438 c 2,45,-1
 703 1438 l 2,46,47
 727 1438 727 1438 727 1400 c 2,48,-1
 726 1337 l 1,49,50
 723 1294 723 1294 711 1294 c 2,51,-1
 282 1294 l 2,52,53
 255 1294 255 1294 247.5 1286.5 c 128,-1,54
 240 1279 240 1279 240 1252 c 2,55,-1
 239 809 l 1,0,1
EndSplineSet
EndChar

StartChar: six
Encoding: 54 54 25
Width: 822
GlyphClass: 2
Flags: W
LayerCount: 2
Fore
SplineSet
173.5 157 m 128,-1,1
 99 328 99 328 99 654 c 128,-1,2
 99 980 99 980 137 1144.5 c 128,-1,3
 175 1309 175 1309 253 1381 c 128,-1,4
 331 1453 331 1453 461 1453 c 0,5,6
 523 1453 523 1453 586 1432.5 c 0,7,8
 648 1412 648 1412 666 1396 c 0,9,10
 692 1373 692 1373 692 1344 c 1,11,12
 693 1340 693 1340 690 1312.5 c 0,13,14
 686 1284 686 1284 684 1274 c 0,15,16
 677 1245 677 1245 662 1258 c 1,17,18
 571 1320 571 1320 491 1320 c 128,-1,19
 411 1320 411 1320 363 1280 c 0,20,21
 262 1195 262 1195 262 871 c 2,22,-1
 262 840 l 1,23,24
 382 887 382 887 450 887 c 0,25,26
 748 887 748 887 748 432 c 0,27,28
 748 50 748 50 528 -3 c 0,29,30
 482 -14 482 -14 424 -14 c 0,31,0
 248 -14 248 -14 173.5 157 c 128,-1,1
423 118 m 1,32,-1
 430 118 l 2,33,34
 485 118 485 118 519 145 c 0,35,36
 592 203 592 203 592 448 c 0,37,38
 592 671 592 671 517 729 c 0,39,40
 486 753 486 753 426 753 c 128,-1,41
 366 753 366 753 261 707 c 1,42,-1
 261 615 l 2,43,44
 261 260 261 260 329 167 c 0,45,46
 364 119 364 119 423 118 c 1,32,-1
EndSplineSet
EndChar

StartChar: seven
Encoding: 55 55 26
Width: 556
GlyphClass: 2
Flags: W
LayerCount: 2
Fore
SplineSet
202 0 m 2,0,1
 178 0 178 0 178 44 c 0,2,3
 178 54 178 54 179 59 c 2,4,-1
 326 1259 l 2,5,6
 328 1280 328 1280 315 1280 c 2,7,-1
 114 1280 l 2,8,9
 89 1280 89 1280 89 1320 c 2,10,-1
 89 1401 l 2,11,12
 89 1438 89 1438 114 1438 c 2,13,-1
 474 1438 l 2,14,15
 497 1438 497 1438 497 1393 c 2,16,-1
 497 1380 l 1,17,-1
 336 59 l 2,18,19
 329 0 329 0 310 0 c 2,20,-1
 202 0 l 2,0,1
EndSplineSet
EndChar

StartChar: eight
Encoding: 56 56 27
Width: 832
GlyphClass: 2
Flags: W
LayerCount: 2
Fore
SplineSet
572 1047 m 0,0,1
 572 1328 572 1328 417 1328 c 128,-1,2
 262 1328 262 1328 262 1058 c 0,3,4
 262 989 262 989 273.5 947 c 128,-1,5
 285 905 285 905 317.5 876 c 128,-1,6
 350 847 350 847 394.5 830.5 c 128,-1,7
 439 814 439 814 520 796 c 1,8,9
 536 822 536 822 554 898.5 c 128,-1,10
 572 975 572 975 572 1047 c 0,0,1
417 -14 m 128,-1,12
 363 -14 363 -14 319.5 -3.5 c 128,-1,13
 276 7 276 7 234 36.5 c 128,-1,14
 192 66 192 66 164 114 c 0,15,16
 102 219 102 219 102 422 c 0,17,18
 102 542 102 542 138 643 c 128,-1,19
 174 744 174 744 218 788 c 1,20,21
 130 870 130 870 130 1071 c 128,-1,22
 130 1272 130 1272 208.5 1362.5 c 128,-1,23
 287 1453 287 1453 417 1453 c 0,24,25
 699 1453 699 1453 699 1053 c 0,26,27
 699 957 699 957 672 872.5 c 128,-1,28
 645 788 645 788 611 745 c 1,29,30
 731 653 731 653 731 414 c 0,31,32
 731 51 731 51 515 -3 c 0,33,11
 471 -14 471 -14 417 -14 c 128,-1,12
418 137 m 128,-1,35
 505 137 505 137 548 201.5 c 128,-1,36
 591 266 591 266 591 431 c 0,37,38
 591 503 591 503 579.5 548 c 128,-1,39
 568 593 568 593 531.5 623.5 c 128,-1,40
 495 654 495 654 463.5 668.5 c 128,-1,41
 432 683 432 683 377 702.5 c 128,-1,42
 322 722 322 722 303 729 c 1,43,44
 278 686 278 686 259 597 c 128,-1,45
 240 508 240 508 240 440 c 0,46,47
 240 275 240 275 285.5 206 c 128,-1,34
 331 137 331 137 418 137 c 128,-1,35
EndSplineSet
EndChar

StartChar: nine
Encoding: 57 57 28
Width: 823
GlyphClass: 2
Flags: W
LayerCount: 2
Fore
SplineSet
405 -14 m 1,0,1
 333 -14 333 -14 264 11 c 128,-1,2
 195 36 195 36 165 67 c 0,3,4
 154 77 154 77 154 114 c 1,5,-1
 158 176 l 2,6,7
 160 210 160 210 170 208 c 0,8,9
 175 207 175 207 191 193.5 c 128,-1,10
 207 180 207 180 263 155 c 128,-1,11
 319 130 319 130 381 130 c 0,12,13
 479 130 479 130 520.5 222 c 128,-1,14
 562 314 562 314 562 525 c 2,15,-1
 562 601 l 1,16,17
 480 541 480 541 397 541 c 0,18,19
 243 541 243 541 171 662.5 c 128,-1,20
 99 784 99 784 99 997 c 0,21,22
 100 1258 100 1258 190 1360 c 0,23,24
 272 1454 272 1454 400.5 1453.5 c 0,25,26
 529 1452 529 1452 596 1384 c 0,27,28
 726 1251 726 1251 726 732 c 0,29,30
 726 293 726 293 642 135 c 0,31,32
 563 -14 563 -14 405 -14 c 1,0,1
291 757.5 m 128,-1,34
 325 677 325 677 410 677 c 128,-1,35
 495 677 495 677 565 735 c 1,36,-1
 565 901 l 2,37,38
 565 1135 565 1135 528.5 1230.5 c 128,-1,39
 492 1326 492 1326 410 1326 c 0,40,41
 257 1326 257 1326 257 989 c 0,42,33
 257 838 257 838 291 757.5 c 128,-1,34
EndSplineSet
EndChar

StartChar: colon
Encoding: 58 58 29
Width: 326
GlyphClass: 2
Flags: W
LayerCount: 2
Fore
SplineSet
100 253 m 2,0,1
 100 321 100 321 126 321 c 2,2,-1
 202 321 l 2,3,4
 228 321 228 321 228 253 c 2,5,-1
 228 68 l 2,6,7
 228 0 228 0 202 0 c 2,8,-1
 126 0 l 2,9,10
 100 0 100 0 100 68 c 2,11,-1
 100 253 l 2,0,1
100 963 m 2,12,13
 100 1031 100 1031 126 1031 c 2,14,-1
 202 1031 l 2,15,16
 228 1031 228 1031 228 963 c 2,17,-1
 228 778 l 2,18,19
 228 710 228 710 202 710 c 2,20,-1
 126 710 l 2,21,22
 100 710 100 710 100 778 c 2,23,-1
 100 963 l 2,12,13
EndSplineSet
EndChar

StartChar: semicolon
Encoding: 59 59 30
Width: 337
GlyphClass: 2
Flags: W
LayerCount: 2
Fore
SplineSet
225 311 m 2,0,1
 251 311 251 311 251 243 c 2,2,-1
 251 64 l 2,3,4
 251 -97 251 -97 210 -197 c 128,-1,5
 169 -297 169 -297 124 -319 c 0,6,7
 122 -320 122 -320 119 -320 c 0,8,9
 100 -320 100 -320 100 -287 c 2,10,-1
 100 -240 l 2,11,12
 100 -232 100 -232 101 -225.5 c 128,-1,13
 102 -219 102 -219 102.5 -215.5 c 128,-1,14
 103 -212 103 -212 106 -207.5 c 128,-1,15
 109 -203 109 -203 110 -201 c 128,-1,16
 111 -199 111 -199 115.5 -193.5 c 128,-1,17
 120 -188 120 -188 131 -172.5 c 128,-1,18
 142 -157 142 -157 153.5 -110 c 128,-1,19
 165 -63 165 -63 165 -31.5 c 128,-1,20
 165 0 165 0 159 0 c 2,21,-1
 121 0 l 2,22,23
 100 0 100 0 100 55 c 2,24,-1
 100 250 l 2,25,26
 100 311 100 311 121 311 c 2,27,-1
 225 311 l 2,0,1
105 963 m 2,28,29
 105 1031 105 1031 130 1031 c 2,30,-1
 218 1031 l 2,31,32
 244 1031 244 1031 244 963 c 2,33,-1
 244 778 l 2,34,35
 244 710 244 710 218 710 c 2,36,-1
 130 710 l 2,37,38
 105 710 105 710 105 778 c 2,39,-1
 105 963 l 2,28,29
EndSplineSet
EndChar

StartChar: less
Encoding: 60 60 31
Width: 895
GlyphClass: 2
Flags: W
LayerCount: 2
Fore
SplineSet
510 172 m 2,0,1
 510 132 510 132 484 132 c 0,2,3
 478 132 478 132 462 146 c 1,4,-1
 176 506 l 1,5,6
 143 546 143 546 136 565.5 c 128,-1,7
 129 585 129 585 129 606 c 2,8,-1
 129 641 l 2,9,10
 129 664 129 664 132.5 672.5 c 128,-1,11
 136 681 136 681 137 684 c 128,-1,12
 138 687 138 687 141.5 693 c 128,-1,13
 145 699 145 699 146.5 701 c 128,-1,14
 148 703 148 703 153.5 710 c 128,-1,15
 159 717 159 717 160 719 c 0,16,17
 164 727 164 727 177 740 c 1,18,-1
 462 1120 l 1,19,20
 472 1131 472 1131 484 1131 c 0,21,22
 510 1131 510 1131 510 1088 c 2,23,-1
 510 1045 l 2,24,25
 510 1005 510 1005 498.5 990 c 128,-1,26
 487 975 487 975 470 953 c 2,27,-1
 241 639 l 2,28,29
 234 631 234 631 234 622 c 128,-1,30
 234 613 234 613 241 606 c 1,31,-1
 469 311 l 1,32,33
 482 298 482 298 486 292 c 128,-1,34
 490 286 490 286 495 279.5 c 128,-1,35
 500 273 500 273 501.5 268.5 c 128,-1,36
 503 264 503 264 506 257 c 0,37,38
 510 248 510 248 510 225 c 2,39,-1
 510 172 l 2,0,1
EndSplineSet
EndChar

StartChar: equal
Encoding: 61 61 32
Width: 520
GlyphClass: 2
Flags: W
LayerCount: 2
Fore
SplineSet
71 347 m 2,0,1
 58 347 58 347 53 354 c 128,-1,2
 48 361 48 361 48 391 c 2,3,-1
 48 421 l 2,4,5
 48 451 48 451 53 458.5 c 128,-1,6
 58 466 58 466 71 466 c 2,7,-1
 449 466 l 2,8,9
 462 466 462 466 467 458.5 c 128,-1,10
 472 451 472 451 472 421 c 2,11,-1
 472 391 l 2,12,13
 472 361 472 361 467 354 c 128,-1,14
 462 347 462 347 449 347 c 2,15,-1
 71 347 l 2,0,1
71 622 m 2,16,17
 58 622 58 622 53 629 c 128,-1,18
 48 636 48 636 48 666 c 2,19,-1
 48 696 l 2,20,21
 48 726 48 726 53 733.5 c 128,-1,22
 58 741 58 741 71 741 c 2,23,-1
 449 741 l 2,24,25
 462 741 462 741 467 733.5 c 128,-1,26
 472 726 472 726 472 696 c 2,27,-1
 472 666 l 2,28,29
 472 636 472 636 467 629 c 128,-1,30
 462 622 462 622 449 622 c 2,31,-1
 71 622 l 2,16,17
EndSplineSet
EndChar

StartChar: greater
Encoding: 62 62 33
Width: 895
GlyphClass: 2
Flags: W
LayerCount: 2
Fore
SplineSet
156 132 m 0,0,1
 129 132 129 132 129 175 c 2,2,-1
 129 218 l 2,3,4
 129 256 129 256 141 272.5 c 128,-1,5
 153 289 153 289 170 310 c 1,6,-1
 399 624 l 2,7,8
 405 632 405 632 405 641 c 128,-1,9
 405 650 405 650 398 657 c 1,10,-1
 170 952 l 1,11,12
 159 963 159 963 156 967 c 128,-1,13
 153 971 153 971 148.5 976.5 c 128,-1,14
 144 982 144 982 142.5 984.5 c 128,-1,15
 141 987 141 987 138 992.5 c 128,-1,16
 135 998 135 998 134 1002 c 0,17,18
 129 1022 129 1022 129 1038 c 2,19,-1
 129 1091 l 2,20,21
 129 1108 129 1108 136.5 1119.5 c 128,-1,22
 144 1131 144 1131 152.5 1131 c 128,-1,23
 161 1131 161 1131 177 1117 c 1,24,-1
 464 757 l 2,25,26
 496 718 496 718 503 698 c 128,-1,27
 510 678 510 678 510 657 c 2,28,-1
 510 622 l 2,29,30
 510 606 510 606 508 598 c 128,-1,31
 506 590 506 590 505 585.5 c 128,-1,32
 504 581 504 581 500 574.5 c 128,-1,33
 496 568 496 568 495 565.5 c 128,-1,34
 494 563 494 563 488.5 555.5 c 128,-1,35
 483 548 483 548 481 546 c 0,36,37
 473 538 473 538 463 523 c 1,38,-1
 178 143 l 1,39,40
 167 132 167 132 156 132 c 0,0,1
EndSplineSet
EndChar

StartChar: question
Encoding: 63 63 34
Width: 755
GlyphClass: 2
Flags: W
LayerCount: 2
Fore
SplineSet
262 503 m 1,0,1
 237 543 237 543 235 557 c 1,2,3
 222 576 222 576 241 602 c 1,4,5
 277 686 277 686 310 723.5 c 0,6,7
 342 761 342 761 416 810 c 0,8,9
 562 908 562 908 563 1077 c 1,10,11
 562 1187 562 1187 502.5 1253 c 128,-1,12
 443 1319 443 1319 342 1319 c 128,-1,13
 241 1319 241 1319 136 1248 c 0,14,15
 120 1237 120 1237 107 1266 c 1,16,17
 99 1266 99 1266 88.5 1294 c 128,-1,18
 78 1322 78 1322 78 1344 c 128,-1,19
 78 1366 78 1366 105 1380 c 1,20,21
 231 1459 231 1459 368 1459 c 128,-1,22
 505 1459 505 1459 598 1363.5 c 128,-1,23
 691 1268 691 1268 695 1080 c 1,24,25
 695 953 695 953 620 850 c 128,-1,26
 545 747 545 747 430 682 c 0,27,28
 383 655 383 655 356.5 616 c 128,-1,29
 330 577 330 577 302 511 c 1,30,31
 289 494 289 494 279.5 494 c 128,-1,32
 270 494 270 494 262 503 c 1,0,1
369 60 m 2,33,34
 369 0 369 0 328 0 c 2,35,-1
 245 0 l 2,36,37
 227 0 227 0 215.5 16 c 128,-1,38
 204 32 204 32 204 60 c 2,39,-1
 204 146 l 2,40,41
 204 206 204 206 245 206 c 2,42,-1
 328 206 l 2,43,44
 369 206 369 206 369 146 c 2,45,-1
 369 60 l 2,33,34
EndSplineSet
EndChar

StartChar: at
Encoding: 64 64 35
Width: 1326
GlyphClass: 2
Flags: W
LayerCount: 2
Fore
SplineSet
946 1051 m 2,0,1
 975 1051 975 1051 975 998 c 2,2,-1
 975 495 l 2,3,4
 975 394 975 394 993.5 358 c 128,-1,5
 1012 322 1012 322 1050 322 c 0,6,7
 1142 322 1142 322 1142 699 c 0,8,9
 1142 1094 1142 1094 999 1260 c 0,10,11
 887 1390 887 1390 675 1391 c 0,12,13
 572 1391 572 1391 489 1350 c 128,-1,14
 406 1309 406 1309 352 1241 c 128,-1,15
 298 1173 298 1173 262 1079 c 128,-1,16
 226 985 226 985 210.5 883.5 c 128,-1,17
 195 782 195 782 195 670 c 128,-1,18
 195 558 195 558 209 459.5 c 128,-1,19
 223 361 223 361 259 266.5 c 128,-1,20
 295 172 295 172 350.5 105 c 128,-1,21
 406 38 406 38 494.5 -3 c 128,-1,22
 583 -44 583 -44 701.5 -44 c 128,-1,23
 820 -44 820 -44 948 20 c 1,24,-1
 950 20 l 2,25,26
 959 20 959 20 971 -7 c 128,-1,27
 983 -34 983 -34 983 -49 c 128,-1,28
 983 -64 983 -64 978 -67 c 0,29,30
 923 -98 923 -98 843 -119.5 c 128,-1,31
 763 -141 763 -141 662 -141 c 128,-1,32
 561 -141 561 -141 458.5 -98.5 c 128,-1,33
 356 -56 356 -56 286.5 18.5 c 128,-1,34
 217 93 217 93 170 197 c 0,35,36
 80 396 80 396 80 674 c 0,37,38
 80 1166 80 1166 328 1380 c 0,39,40
 462 1496 462 1496 672 1495 c 0,41,42
 1050 1494 1050 1494 1178 1166 c 0,43,44
 1252 978 1252 978 1251.5 720.5 c 128,-1,45
 1251 463 1251 463 1194.5 348 c 128,-1,46
 1138 233 1138 233 1051 233 c 0,47,48
 922 233 922 233 907 427 c 1,49,50
 903 464 903 464 898 464 c 128,-1,51
 893 464 893 464 886 434 c 1,52,53
 821 217 821 217 643 217 c 0,54,55
 519 217 519 217 441 329.5 c 128,-1,56
 363 442 363 442 363 657.5 c 128,-1,57
 363 873 363 873 440 985 c 128,-1,58
 517 1097 517 1097 639 1097 c 0,59,60
 729 1097 729 1097 789.5 1038 c 128,-1,61
 850 979 850 979 876 874 c 0,62,63
 879 857 879 857 883 857 c 128,-1,64
 887 857 887 857 889 870 c 2,65,-1
 901 1004 l 1,66,67
 908 1051 908 1051 938 1051 c 2,68,-1
 946 1051 l 2,0,1
523 405 m 128,-1,70
 570 319 570 319 657 319 c 128,-1,71
 744 319 744 319 797.5 405 c 128,-1,72
 851 491 851 491 851 651 c 128,-1,73
 851 811 851 811 798 899.5 c 128,-1,74
 745 988 745 988 658 988 c 128,-1,75
 571 988 571 988 523.5 901.5 c 128,-1,76
 476 815 476 815 476 653 c 128,-1,69
 476 491 476 491 523 405 c 128,-1,70
EndSplineSet
EndChar

StartChar: A
Encoding: 65 65 36
Width: 796
GlyphClass: 2
Flags: W
LayerCount: 2
Fore
SplineSet
745 60 m 1,0,-1
 750 29 l 1,1,2
 750 0 750 0 734 0 c 2,3,-1
 610 0 l 2,4,5
 583 0 583 0 576 45 c 2,6,-1
 535 314 l 1,7,8
 531 331 531 331 526 331 c 2,9,-1
 252 331 l 2,10,11
 248 331 248 331 244 313 c 2,12,-1
 198 45 l 2,13,14
 190 0 190 0 167 0 c 2,15,-1
 70 0 l 2,16,17
 55 0 55 0 55 30 c 2,18,-1
 55 44 l 2,19,20
 55 54 55 54 56 60 c 2,21,-1
 291 1386 l 2,22,23
 301 1438 301 1438 327 1438 c 2,24,-1
 482 1438 l 2,25,26
 509 1438 509 1438 518 1386 c 2,27,-1
 745 60 l 1,0,-1
282 436 m 2,28,-1
 515 436 l 2,29,30
 520 436 520 436 520 446 c 128,-1,31
 520 456 520 456 518 457 c 1,32,-1
 402 1252 l 1,33,-1
 400 1258 l 1,34,35
 397 1258 397 1258 397 1253 c 2,36,-1
 270 460 l 2,37,38
 269 456 269 456 269 451 c 0,39,40
 269 436 269 436 282 436 c 2,28,-1
EndSplineSet
EndChar

StartChar: B
Encoding: 66 66 37
Width: 881
GlyphClass: 2
Flags: W
LayerCount: 2
Fore
SplineSet
139 0 m 2,0,1
 112 0 112 0 112 42 c 2,2,-1
 112 1395 l 2,3,4
 112 1423 112 1423 118.5 1430.5 c 128,-1,5
 125 1438 125 1438 139 1438 c 2,6,-1
 483 1438 l 2,7,8
 780 1438 780 1438 780 1042 c 0,9,10
 780 853 780 853 680 779 c 0,11,12
 671 772 671 772 671 767 c 128,-1,13
 671 762 671 762 681 758 c 1,14,15
 817 666 817 666 817 424 c 0,16,17
 817 184 817 184 722 88 c 0,18,19
 634 0 634 0 464 0 c 2,20,-1
 139 0 l 2,0,1
273 141 m 2,21,22
 273 123 273 123 286 123 c 2,23,-1
 443 123 l 2,24,25
 661 123 661 123 661 423 c 0,26,27
 661 547 661 547 611 624 c 128,-1,28
 561 701 561 701 484 701 c 2,29,-1
 286 701 l 2,30,31
 273 701 273 701 273 678 c 2,32,-1
 273 141 l 2,21,22
286 821 m 2,33,-1
 491 821 l 2,34,35
 554 821 554 821 592.5 878.5 c 128,-1,36
 631 936 631 936 631 1038 c 0,37,38
 631 1311 631 1311 448 1311 c 2,39,-1
 286 1311 l 2,40,41
 273 1311 273 1311 273 1290 c 2,42,-1
 273 840 l 2,43,44
 273 821 273 821 286 821 c 2,33,-1
EndSplineSet
EndChar

StartChar: C
Encoding: 67 67 38
Width: 699
GlyphClass: 2
Flags: W
LayerCount: 2
Fore
SplineSet
620 7 m 1,0,1
 564 -14 564 -14 501 -14 c 128,-1,2
 438 -14 438 -14 410 -11.5 c 128,-1,3
 382 -9 382 -9 347.5 0 c 128,-1,4
 313 9 313 9 287 24.5 c 128,-1,5
 261 40 261 40 233 67.5 c 128,-1,6
 205 95 205 95 184.5 133 c 128,-1,7
 164 171 164 171 145 226.5 c 128,-1,8
 126 282 126 282 114 352 c 0,9,10
 88 504 88 504 88 681 c 128,-1,11
 88 858 88 858 99.5 968.5 c 128,-1,12
 111 1079 111 1079 130.5 1155 c 128,-1,13
 150 1231 150 1231 180.5 1286.5 c 128,-1,14
 211 1342 211 1342 242.5 1373.5 c 0,15,16
 274 1406 274 1406 317 1424 c 0,17,18
 386 1454 386 1454 479 1453.5 c 128,-1,19
 572 1453 572 1453 630 1427 c 0,20,21
 631 1426 631 1426 634 1424 c 0,22,23
 641 1419 641 1419 641 1409 c 2,24,-1
 641 1312 l 2,25,26
 641 1300 641 1300 637 1300 c 128,-1,27
 633 1300 633 1300 626 1302 c 128,-1,28
 619 1304 619 1304 607.5 1307 c 128,-1,29
 596 1310 596 1310 581 1314 c 0,30,31
 549 1322 549 1322 505.5 1321.5 c 128,-1,32
 462 1321 462 1321 427.5 1310.5 c 128,-1,33
 393 1300 393 1300 357.5 1263.5 c 128,-1,34
 322 1227 322 1227 300 1163 c 0,35,36
 250 1019 250 1019 249 720 c 0,37,38
 250 278 250 278 346 174 c 0,39,40
 380 138 380 138 412.5 127.5 c 128,-1,41
 445 117 445 117 505.5 117 c 128,-1,42
 566 117 566 117 620 136 c 0,43,44
 621 136 621 136 624.5 128.5 c 128,-1,45
 628 121 628 121 628 119 c 2,46,-1
 628 25 l 2,47,48
 628 15 628 15 620 7 c 1,0,1
EndSplineSet
EndChar

StartChar: D
Encoding: 68 68 39
Width: 919
GlyphClass: 2
Flags: W
LayerCount: 2
Fore
SplineSet
285 128 m 2,0,-1
 438 128 l 2,1,2
 530 128 530 128 579 179.5 c 128,-1,3
 628 231 628 231 650 358 c 128,-1,4
 672 485 672 485 672 713.5 c 128,-1,5
 672 942 672 942 647 1071 c 128,-1,6
 622 1200 622 1200 573 1255 c 128,-1,7
 524 1310 524 1310 443 1310 c 2,8,-1
 284 1310 l 2,9,10
 273 1310 273 1310 273 1290 c 2,11,-1
 273 150 l 2,12,13
 273 128 273 128 285 128 c 2,0,-1
112 1402 m 2,14,15
 112 1438 112 1438 136 1438 c 2,16,-1
 462 1438 l 2,17,18
 684 1438 684 1438 768 1216 c 0,19,20
 832 1048 832 1048 832 726 c 0,21,22
 832 320 832 320 762 172 c 0,23,24
 712 66 712 66 635 32 c 0,25,26
 563 0 563 0 444 0 c 2,27,-1
 136 0 l 2,28,29
 112 0 112 0 112 42 c 2,30,-1
 112 1402 l 2,14,15
EndSplineSet
EndChar

StartChar: E
Encoding: 69 69 40
Width: 724
GlyphClass: 2
Flags: W
LayerCount: 2
Fore
SplineSet
282 667 m 2,0,1
 273 667 273 667 273 641 c 2,2,-1
 273 128 l 1,3,-1
 639 128 l 2,4,5
 655 128 655 128 659 118.5 c 128,-1,6
 663 109 663 109 663 92 c 2,7,-1
 663 36 l 2,8,9
 663 13 663 13 657.5 6.5 c 128,-1,10
 652 0 652 0 639 0 c 2,11,-1
 136 0 l 2,12,13
 112 0 112 0 112 39 c 2,14,-1
 112 1399 l 2,15,16
 112 1438 112 1438 136 1438 c 2,17,-1
 636 1438 l 2,18,19
 660 1438 660 1438 660 1402 c 2,20,-1
 660 1346 l 2,21,22
 660 1316 660 1316 652.5 1313 c 128,-1,23
 645 1310 645 1310 636 1310 c 2,24,-1
 284 1310 l 2,25,26
 273 1310 273 1310 273 1279 c 2,27,-1
 273 824 l 2,28,29
 273 802 273 802 281 802 c 2,30,-1
 574 802 l 2,31,32
 598 802 598 802 598 763 c 2,33,-1
 598 708 l 2,34,35
 598 667 598 667 574 667 c 2,36,-1
 282 667 l 2,0,1
EndSplineSet
EndChar

StartChar: F
Encoding: 70 70 41
Width: 661
GlyphClass: 2
Flags: W
LayerCount: 2
Fore
SplineSet
282 652 m 2,0,1
 273 652 273 652 273 629 c 2,2,-1
 273 39 l 2,3,4
 273 14 273 14 267.5 7 c 128,-1,5
 262 0 262 0 249 0 c 2,6,-1
 136 0 l 2,7,8
 112 0 112 0 112 39 c 2,9,-1
 112 1399 l 2,10,11
 112 1438 112 1438 136 1438 c 2,12,-1
 607 1438 l 2,13,14
 631 1438 631 1438 631 1402 c 2,15,-1
 631 1346 l 2,16,17
 631 1316 631 1316 623.5 1313 c 128,-1,18
 616 1310 616 1310 607 1310 c 2,19,-1
 284 1310 l 2,20,21
 273 1310 273 1310 273 1284 c 2,22,-1
 273 803 l 2,23,24
 273 787 273 787 281 787 c 2,25,-1
 552 787 l 2,26,27
 565 787 565 787 570.5 781 c 128,-1,28
 576 775 576 775 576 752 c 2,29,-1
 576 688 l 2,30,31
 576 658 576 658 568.5 655 c 128,-1,32
 561 652 561 652 552 652 c 2,33,-1
 282 652 l 2,0,1
EndSplineSet
EndChar

StartChar: G
Encoding: 71 71 42
Width: 882
GlyphClass: 2
Flags: W
LayerCount: 2
Fore
SplineSet
802 46 m 2,0,1
 802 -16 802 -16 771 -16 c 128,-1,2
 740 -16 740 -16 729 43 c 1,3,-1
 708 219 l 1,4,5
 708 228 708 228 704.5 228 c 128,-1,6
 701 228 701 228 699 220 c 0,7,8
 682 108 682 108 623.5 47 c 128,-1,9
 565 -14 565 -14 475 -14 c 128,-1,10
 385 -14 385 -14 331 11 c 128,-1,11
 277 36 277 36 245.5 68 c 128,-1,12
 214 100 214 100 184 156 c 128,-1,13
 154 212 154 212 134 288 c 0,14,15
 90 456 90 456 90.5 659.5 c 128,-1,16
 91 863 91 863 105 975.5 c 128,-1,17
 119 1088 119 1088 141.5 1164 c 128,-1,18
 164 1240 164 1240 200.5 1295 c 128,-1,19
 237 1350 237 1350 272.5 1380 c 128,-1,20
 308 1410 308 1410 358 1427 c 0,21,22
 435 1453 435 1453 534 1453 c 128,-1,23
 633 1453 633 1453 709 1422 c 0,24,25
 710 1420 710 1420 714 1418 c 0,26,27
 722 1413 722 1413 721 1404 c 2,28,-1
 721 1306 l 2,29,30
 721 1294 721 1294 714 1294 c 1,31,32
 624 1321 624 1321 561.5 1321 c 128,-1,33
 499 1321 499 1321 460.5 1311.5 c 128,-1,34
 422 1302 422 1302 380 1266 c 128,-1,35
 338 1230 338 1230 312 1167 c 0,36,37
 252 1022 252 1022 252 720 c 0,38,39
 252 194 252 194 416 128 c 0,40,41
 448 115 448 115 495 115 c 128,-1,42
 542 115 542 115 576 146 c 0,43,44
 610 178 610 178 628 240 c 0,45,46
 659 348 659 348 659 550 c 0,47,48
 659 605 659 605 650 605 c 2,49,-1
 510 605 l 2,50,51
 480 605 480 605 480 645 c 2,52,-1
 480 705 l 2,53,54
 480 745 480 745 508 745 c 2,55,-1
 776 745 l 2,56,57
 802 745 802 745 802 692 c 2,58,-1
 802 46 l 2,0,1
EndSplineSet
EndChar

StartChar: H
Encoding: 72 72 43
Width: 918
GlyphClass: 2
Flags: W
LayerCount: 2
Fore
SplineSet
274 47 m 2,0,1
 274 0 274 0 248 0 c 2,2,-1
 137 0 l 2,3,4
 124 0 124 0 118 8.5 c 128,-1,5
 112 17 112 17 112 47 c 2,6,-1
 112 1391 l 2,7,8
 112 1421 112 1421 118 1429.5 c 128,-1,9
 124 1438 124 1438 137 1438 c 2,10,-1
 247 1438 l 2,11,12
 264 1438 264 1438 268.5 1424.5 c 128,-1,13
 273 1411 273 1411 273 1391 c 2,14,-1
 273 834 l 2,15,16
 273 814 273 814 281 814 c 2,17,-1
 634 814 l 2,18,19
 637 814 637 814 641 821.5 c 128,-1,20
 645 829 645 829 645 836 c 2,21,-1
 645 1391 l 2,22,23
 645 1421 645 1421 651 1429.5 c 128,-1,24
 657 1438 657 1438 671 1438 c 2,25,-1
 782 1438 l 2,26,27
 795 1438 795 1438 800.5 1429.5 c 128,-1,28
 806 1421 806 1421 806 1391 c 2,29,-1
 806 47 l 2,30,31
 806 17 806 17 800.5 8.5 c 128,-1,32
 795 0 795 0 782 0 c 2,33,-1
 671 0 l 2,34,35
 657 0 657 0 650.5 8.5 c 128,-1,36
 644 17 644 17 644 47 c 2,37,-1
 644 664 l 2,38,39
 644 670 644 670 640.5 677 c 128,-1,40
 637 684 637 684 635 684 c 2,41,-1
 282 684 l 2,42,43
 274 684 274 684 274 665 c 2,44,-1
 274 47 l 2,0,1
EndSplineSet
EndChar

StartChar: I
Encoding: 73 73 44
Width: 387
GlyphClass: 2
Flags: W
LayerCount: 2
Fore
SplineSet
115 1391 m 2,0,1
 115 1438 115 1438 139 1438 c 2,2,-1
 251 1438 l 2,3,4
 264 1438 264 1438 270 1429.5 c 128,-1,5
 276 1421 276 1421 276 1391 c 2,6,-1
 276 47 l 2,7,8
 276 17 276 17 270 8.5 c 128,-1,9
 264 0 264 0 251 0 c 2,10,-1
 139 0 l 2,11,12
 115 0 115 0 115 47 c 2,13,-1
 115 1391 l 2,0,1
EndSplineSet
EndChar

StartChar: J
Encoding: 74 74 45
Width: 514
GlyphClass: 2
Flags: W
LayerCount: 2
Fore
SplineSet
49 -150 m 0,0,1
 37 -150 37 -150 37 -122 c 2,2,-1
 37 -47 l 2,3,4
 37 -18 37 -18 49 -16 c 1,5,6
 160 -12 160 -12 188 54 c 0,7,8
 218 125 218 125 223.5 227.5 c 128,-1,9
 229 330 229 330 229 435 c 2,10,-1
 229 1391 l 2,11,12
 229 1438 229 1438 247 1438 c 2,13,-1
 371 1438 l 2,14,15
 390 1438 390 1438 390 1391 c 2,16,-1
 390 399 l 2,17,18
 390 114 390 114 328 -26 c 0,19,20
 303 -82 303 -82 252 -111 c 128,-1,21
 201 -140 201 -140 161.5 -145 c 128,-1,22
 122 -150 122 -150 49 -150 c 0,0,1
EndSplineSet
EndChar

StartChar: K
Encoding: 75 75 46
Width: 768
GlyphClass: 2
Flags: W
LayerCount: 2
Fore
SplineSet
136 0 m 2,0,1
 112 0 112 0 112 58 c 2,2,-1
 112 1380 l 2,3,4
 112 1438 112 1438 136 1438 c 2,5,-1
 247 1438 l 2,6,7
 273 1438 273 1438 273 1380 c 2,8,-1
 273 733 l 1,9,-1
 545 1384 l 2,10,11
 567 1438 567 1438 588 1438 c 2,12,-1
 708 1438 l 2,13,14
 725 1438 725 1438 725 1419 c 128,-1,15
 725 1400 725 1400 717 1383 c 2,16,-1
 438 743 l 1,17,18
 433 718 433 718 433 709 c 128,-1,19
 433 700 433 700 437 691 c 2,20,-1
 733 60 l 2,21,22
 745 35 745 35 745 17.5 c 128,-1,23
 745 0 745 0 732 0 c 2,24,-1
 620 0 l 2,25,26
 596 0 596 0 572 54 c 2,27,-1
 273 691 l 1,28,-1
 273 55 l 2,29,30
 273 0 273 0 247 0 c 2,31,-1
 136 0 l 2,0,1
EndSplineSet
EndChar

StartChar: L
Encoding: 76 76 47
Width: 617
GlyphClass: 2
Flags: W
LayerCount: 2
Fore
SplineSet
112 1391 m 2,0,1
 112 1438 112 1438 136 1438 c 2,2,-1
 249 1438 l 2,3,4
 273 1438 273 1438 273 1391 c 2,5,-1
 273 149 l 2,6,7
 273 128 273 128 286 128 c 2,8,-1
 548 128 l 2,9,10
 573 128 573 128 573 94 c 2,11,-1
 573 36 l 2,12,13
 573 13 573 13 567 6.5 c 128,-1,14
 561 0 561 0 548 0 c 2,15,-1
 136 0 l 2,16,17
 112 0 112 0 112 47 c 2,18,-1
 112 1391 l 2,0,1
EndSplineSet
EndChar

StartChar: M
Encoding: 77 77 48
Width: 1080
GlyphClass: 2
Flags: W
LayerCount: 2
Fore
SplineSet
563 1 m 2,0,-1
 510 0 l 2,1,2
 485 0 485 0 475 54 c 2,3,-1
 279 1149 l 1,4,5
 275 1165 275 1165 275 1144 c 2,6,-1
 241 58 l 1,7,8
 241 0 241 0 219 0 c 2,9,-1
 133 0 l 2,10,11
 110 0 110 0 110 52 c 2,12,-1
 110 58 l 1,13,-1
 154 1378 l 1,14,15
 154 1438 154 1438 177 1438 c 2,16,-1
 301 1438 l 2,17,18
 332 1438 332 1438 342 1388 c 2,19,-1
 533 375 l 2,20,21
 534 370 534 370 538 370 c 128,-1,22
 542 370 542 370 543 375 c 2,23,-1
 733 1383 l 1,24,25
 745 1438 745 1438 772 1438 c 2,26,-1
 901 1438 l 2,27,28
 924 1438 924 1438 924 1378 c 1,29,-1
 970 58 l 1,30,-1
 970 52 l 2,31,32
 970 0 970 0 946 0 c 2,33,-1
 862 0 l 2,34,35
 838 0 838 0 837 58 c 2,36,-1
 805 1153 l 1,37,38
 803 1156 803 1156 799 1156 c 1,39,-1
 599 54 l 2,40,41
 589 1 589 1 563 1 c 2,0,-1
EndSplineSet
EndChar

StartChar: N
Encoding: 78 78 49
Width: 930
GlyphClass: 2
Flags: W
LayerCount: 2
Fore
SplineSet
255 52 m 2,0,1
 255 0 255 0 229 0 c 2,2,-1
 137 0 l 2,3,4
 112 0 112 0 112 52 c 2,5,-1
 112 1387 l 2,6,7
 112 1438 112 1438 137 1438 c 2,8,-1
 248 1438 l 2,9,10
 266 1438 266 1438 279 1405 c 2,11,-1
 670 402 l 2,12,13
 672 398 672 398 674.5 404.5 c 128,-1,14
 677 411 677 411 677 415 c 2,15,-1
 677 1387 l 2,16,17
 677 1438 677 1438 703 1438 c 2,18,-1
 794 1438 l 2,19,20
 818 1438 818 1438 818 1387 c 2,21,-1
 818 46 l 2,22,23
 818 9 818 9 810 4.5 c 128,-1,24
 802 0 802 0 794 0 c 2,25,-1
 713 0 l 2,26,27
 705 0 705 0 693 13 c 128,-1,28
 681 26 681 26 675 42 c 2,29,-1
 262 1078 l 2,30,31
 260 1084 260 1084 257.5 1077.5 c 128,-1,32
 255 1071 255 1071 255 1068 c 2,33,-1
 255 52 l 2,0,1
EndSplineSet
EndChar

StartChar: O
Encoding: 79 79 50
Width: 900
GlyphClass: 2
Flags: W
LayerCount: 2
Fore
SplineSet
330 164.5 m 128,-1,1
 371 115 371 115 449.5 115 c 128,-1,2
 528 115 528 115 570 163 c 0,3,4
 652 257 652 257 651 725 c 0,5,6
 651 965 651 965 632.5 1091 c 128,-1,7
 614 1217 614 1217 572 1269 c 128,-1,8
 530 1321 530 1321 450.5 1321 c 128,-1,9
 371 1321 371 1321 328.5 1266.5 c 128,-1,10
 286 1212 286 1212 267.5 1085.5 c 128,-1,11
 249 959 249 959 249 717.5 c 128,-1,12
 249 476 249 476 269 345 c 128,-1,0
 289 214 289 214 330 164.5 c 128,-1,1
588 4 m 0,13,14
 532 -14 532 -14 450 -14 c 128,-1,15
 368 -14 368 -14 312 5 c 128,-1,16
 256 24 256 24 211 71 c 128,-1,17
 166 118 166 118 140 202 c 0,18,19
 88 376 88 376 88 659 c 128,-1,20
 88 942 88 942 108 1083 c 128,-1,21
 128 1224 128 1224 174 1306 c 128,-1,22
 220 1388 220 1388 285 1420.5 c 128,-1,23
 350 1453 350 1453 450 1453 c 128,-1,24
 550 1453 550 1453 615 1421.5 c 128,-1,25
 680 1390 680 1390 726 1308 c 0,26,27
 812 1155 812 1155 812 725 c 0,28,29
 812 368 812 368 760 200 c 0,30,31
 713 44 713 44 588 4 c 0,13,14
EndSplineSet
EndChar

StartChar: P
Encoding: 80 80 51
Width: 835
GlyphClass: 2
Flags: W
LayerCount: 2
Fore
SplineSet
112 1392 m 2,0,1
 112 1438 112 1438 136 1438 c 2,2,-1
 403 1438 l 2,3,4
 523 1438 523 1438 565.5 1421.5 c 128,-1,5
 608 1405 608 1405 635.5 1388 c 128,-1,6
 663 1371 663 1371 682.5 1347.5 c 128,-1,7
 702 1324 702 1324 720.5 1288.5 c 0,8,9
 738 1252 738 1252 750 1208 c 0,10,11
 776 1109 776 1109 776 998 c 128,-1,12
 776 887 776 887 766 818.5 c 128,-1,13
 756 750 756 750 739.5 702.5 c 128,-1,14
 723 655 723 655 697 621 c 128,-1,15
 671 587 671 587 643.5 567 c 128,-1,16
 616 547 616 547 579 536 c 0,17,18
 518 518 518 518 435 518 c 2,19,-1
 282 518 l 2,20,21
 273 518 273 518 273 501 c 2,22,-1
 273 49 l 2,23,24
 273 0 273 0 248 0 c 2,25,-1
 136 0 l 2,26,27
 112 0 112 0 112 49 c 2,28,-1
 112 1392 l 2,0,1
281 647 m 2,29,-1
 418 647 l 2,30,31
 505 647 505 647 539.5 672 c 0,32,33
 574 698 574 698 587 734 c 0,34,35
 615 813 615 813 615 940 c 128,-1,36
 615 1067 615 1067 603.5 1131 c 128,-1,37
 592 1195 592 1195 575.5 1230 c 128,-1,38
 559 1265 559 1265 527.5 1283.5 c 128,-1,39
 496 1302 496 1302 469 1306 c 128,-1,40
 442 1310 442 1310 396 1310 c 2,41,-1
 282 1310 l 2,42,43
 273 1310 273 1310 273 1293 c 2,44,-1
 273 663 l 2,45,46
 273 647 273 647 281 647 c 2,29,-1
EndSplineSet
EndChar

StartChar: Q
Encoding: 81 81 52
Width: 944
GlyphClass: 2
Flags: W
LayerCount: 2
Fore
SplineSet
612 0 m 1,0,-1
 685 -347 l 1,1,2
 695 -387 695 -387 670 -395 c 0,3,4
 622 -411 622 -411 598 -411 c 128,-1,5
 574 -411 574 -411 563 -363 c 2,6,-1
 486 -12 l 1,7,8
 461 -15 461 -15 438 -15 c 0,9,10
 301 -16 301 -16 214 76 c 0,11,12
 88 209 88 209 88 723 c 0,13,14
 88 1232 88 1232 228 1368 c 0,15,16
 276 1416 276 1416 333.5 1434.5 c 128,-1,17
 391 1453 391 1453 472 1453 c 128,-1,18
 553 1453 553 1453 610.5 1435 c 128,-1,19
 668 1417 668 1417 717 1370 c 128,-1,20
 766 1323 766 1323 795 1241 c 0,21,22
 856 1069 856 1069 856 770.5 c 128,-1,23
 856 472 856 472 829 320.5 c 128,-1,24
 802 169 802 169 750.5 97.5 c 128,-1,25
 699 26 699 26 612 0 c 1,0,-1
390.5 128.5 m 128,-1,27
 423 115 423 115 471.5 115 c 128,-1,28
 520 115 520 115 553 128 c 128,-1,29
 586 141 586 141 615 177.5 c 128,-1,30
 644 214 644 214 660 282 c 0,31,32
 695 430 695 430 695 698 c 128,-1,33
 695 966 695 966 670.5 1097.5 c 128,-1,34
 646 1229 646 1229 600 1275 c 128,-1,35
 554 1321 554 1321 472.5 1321 c 0,36,37
 390 1321 390 1321 344 1272 c 0,38,39
 248 1171 248 1171 249 723 c 0,40,41
 249 285 249 285 329 180 c 0,42,26
 358 142 358 142 390.5 128.5 c 128,-1,27
EndSplineSet
EndChar

StartChar: R
Encoding: 82 82 53
Width: 901
GlyphClass: 2
Flags: W
LayerCount: 2
Fore
SplineSet
273 44 m 2,0,1
 273 0 273 0 248 0 c 2,2,-1
 136 0 l 2,3,4
 112 0 112 0 112 44 c 2,5,-1
 112 1392 l 2,6,7
 112 1429 112 1429 120 1433.5 c 128,-1,8
 128 1438 128 1438 136 1438 c 2,9,-1
 440 1438 l 2,10,11
 593 1438 593 1438 663 1398 c 0,12,13
 732 1359 732 1359 762 1288 c 0,14,15
 798 1202 798 1202 798 1085 c 128,-1,16
 798 968 798 968 776 902 c 128,-1,17
 754 836 754 836 721 804.5 c 128,-1,18
 688 773 688 773 637 752 c 1,19,20
 633 748 633 748 633 744.5 c 128,-1,21
 633 741 633 741 649.5 734 c 128,-1,22
 666 727 666 727 683.5 716.5 c 128,-1,23
 701 706 701 706 724.5 682 c 128,-1,24
 748 658 748 658 761 628 c 0,25,26
 793 555 793 555 796 467 c 128,-1,27
 799 379 799 379 799 52 c 0,28,29
 799 0 799 0 779 0 c 0,30,31
 663 -1 663 -1 661 -1 c 0,32,33
 642 -1 642 -1 642 48 c 1,34,35
 641 57 641 57 637.5 272 c 128,-1,36
 634 487 634 487 629 509 c 1,37,38
 622 673 622 673 464 673 c 2,39,-1
 283 673 l 2,40,41
 273 673 273 673 273 654 c 2,42,-1
 273 44 l 2,0,1
282 799 m 2,43,-1
 431 799 l 2,44,45
 539 799 539 799 588 862.5 c 128,-1,46
 637 926 637 926 637 1061 c 0,47,48
 636 1210 636 1210 576 1262 c 0,49,50
 520 1310 520 1310 401 1310 c 2,51,-1
 282 1310 l 2,52,53
 273 1310 273 1310 273 1293 c 2,54,-1
 273 821 l 2,55,56
 273 799 273 799 282 799 c 2,43,-1
EndSplineSet
EndChar

StartChar: S
Encoding: 83 83 54
Width: 761
GlyphClass: 2
Flags: W
LayerCount: 2
Fore
SplineSet
710 385 m 0,0,1
 710 209 710 209 618.5 97.5 c 128,-1,2
 527 -14 527 -14 375 -14 c 0,3,4
 166 -14 166 -14 48 169 c 0,5,6
 43 176 43 176 43 196.5 c 128,-1,7
 43 217 43 217 67.5 249 c 128,-1,8
 92 281 92 281 107.5 281 c 128,-1,9
 123 281 123 281 130 273 c 1,10,11
 237 124 237 124 374 124 c 0,12,13
 460 124 460 124 509 191.5 c 128,-1,14
 558 259 558 259 558 360.5 c 128,-1,15
 558 462 558 462 522 518 c 128,-1,16
 486 574 486 574 412 624 c 2,17,-1
 280 712 l 2,18,19
 138 806 138 806 100 940 c 0,20,21
 84 998 84 998 84 1069 c 0,22,23
 84 1240 84 1240 170 1346.5 c 128,-1,24
 256 1453 256 1453 398 1453 c 0,25,26
 578 1453 578 1453 681 1322 c 0,27,28
 690 1310 690 1310 690 1287 c 128,-1,29
 690 1264 690 1264 665.5 1234 c 128,-1,30
 641 1204 641 1204 629 1204 c 128,-1,31
 617 1204 617 1204 614 1208 c 0,32,33
 529 1313 529 1313 418 1313 c 0,34,35
 337 1313 337 1313 286.5 1249 c 128,-1,36
 236 1185 236 1185 236 1107 c 128,-1,37
 236 1029 236 1029 256.5 981.5 c 128,-1,38
 277 934 277 934 304 907 c 128,-1,39
 331 880 331 880 374 852 c 2,40,-1
 505 767 l 2,41,42
 710 634 710 634 710 385 c 0,0,1
EndSplineSet
EndChar

StartChar: T
Encoding: 84 84 55
Width: 634
GlyphClass: 2
Flags: W
LayerCount: 2
Fore
SplineSet
263 0 m 2,0,1
 250 0 250 0 244.5 8.5 c 128,-1,2
 239 17 239 17 239 47 c 2,3,-1
 239 1281 l 2,4,5
 239 1306 239 1306 228 1306 c 2,6,-1
 53 1306 l 2,7,8
 36 1306 36 1306 32 1315.5 c 128,-1,9
 28 1325 28 1325 28 1341 c 2,10,-1
 28 1397 l 2,11,12
 28 1423 28 1423 33.5 1430.5 c 128,-1,13
 39 1438 39 1438 53 1438 c 2,14,-1
 585 1438 l 2,15,16
 598 1438 598 1438 603.5 1430.5 c 128,-1,17
 609 1423 609 1423 609 1397 c 2,18,-1
 609 1341 l 2,19,20
 609 1312 609 1312 601.5 1309 c 128,-1,21
 594 1306 594 1306 585 1306 c 2,22,-1
 411 1306 l 2,23,24
 400 1306 400 1306 400 1281 c 2,25,-1
 400 47 l 2,26,27
 400 17 400 17 394.5 8.5 c 128,-1,28
 389 0 389 0 376 0 c 2,29,-1
 263 0 l 2,0,1
EndSplineSet
EndChar

StartChar: U
Encoding: 85 85 56
Width: 937
GlyphClass: 2
Flags: W
LayerCount: 2
Fore
SplineSet
382 -10 m 0,0,1
 344 -6 344 -6 302.5 9 c 128,-1,2
 261 24 261 24 232.5 50.5 c 128,-1,3
 204 77 204 77 177 122 c 128,-1,4
 150 167 150 167 134 230 c 0,5,6
 100 370 100 370 100 590 c 2,7,-1
 100 1391 l 2,8,9
 100 1421 100 1421 106 1429.5 c 128,-1,10
 112 1438 112 1438 125 1438 c 2,11,-1
 236 1438 l 2,12,13
 261 1438 261 1438 261 1391 c 2,14,-1
 261 595 l 2,15,16
 261 237 261 237 337 161 c 0,17,18
 365 133 365 133 395.5 124.5 c 128,-1,19
 426 116 426 116 473.5 116 c 128,-1,20
 521 116 521 116 550 124 c 128,-1,21
 579 132 579 132 606 158 c 0,22,23
 632 184 632 184 646 236 c 0,24,25
 676 351 676 351 676 595 c 2,26,-1
 676 1391 l 2,27,28
 676 1421 676 1421 682 1429.5 c 128,-1,29
 688 1438 688 1438 701 1438 c 2,30,-1
 813 1438 l 2,31,32
 826 1438 826 1438 831.5 1429.5 c 128,-1,33
 837 1421 837 1421 837 1391 c 2,34,-1
 837 590 l 2,35,36
 837 250 837 250 762 120 c 0,37,38
 712 36 712 36 640 10 c 0,39,40
 570 -15 570 -15 478 -15 c 0,41,42
 433 -16 433 -16 382 -10 c 0,0,1
EndSplineSet
EndChar

StartChar: V
Encoding: 86 86 57
Width: 775
GlyphClass: 2
Flags: W
LayerCount: 2
Fore
SplineSet
338 0 m 1,0,1
 312 3 312 3 301 62 c 2,2,-1
 51 1371 l 2,3,4
 48 1388 48 1388 48 1413 c 0,5,6
 48 1438 48 1438 63 1438 c 2,7,-1
 176 1438 l 2,8,9
 200 1438 200 1438 212 1374 c 2,10,-1
 405 324 l 1,11,-1
 582 1374 l 2,12,13
 593 1438 593 1438 617 1438 c 2,14,-1
 712 1438 l 2,15,16
 727 1438 727 1438 727 1410 c 0,17,18
 727 1382 727 1382 725 1371 c 2,19,-1
 486 62 l 2,20,21
 476 3 476 3 451 0 c 1,22,-1
 338 0 l 1,0,1
EndSplineSet
EndChar

StartChar: W
Encoding: 87 87 58
Width: 1140
GlyphClass: 2
Flags: W
LayerCount: 2
Fore
SplineSet
278 0 m 1,0,1
 253 4 253 4 244 68 c 2,2,-1
 58 1370 l 2,3,4
 55 1386 55 1386 55 1412 c 0,5,6
 55 1438 55 1438 71 1438 c 2,7,-1
 172 1438 l 2,8,9
 198 1438 198 1438 208 1369 c 2,10,-1
 337 412 l 1,11,-1
 492 1364 l 2,12,13
 502 1424 502 1424 529 1424 c 2,14,-1
 619 1424 l 1,15,16
 645 1422 645 1422 656 1363 c 2,17,-1
 824 387 l 1,18,-1
 950 1370 l 1,19,20
 960 1438 960 1438 984 1438 c 2,21,-1
 1073 1438 l 2,22,23
 1088 1438 1088 1438 1088 1412 c 0,24,25
 1088 1386 1088 1386 1085 1370 c 2,26,-1
 907 68 l 2,27,28
 898 3 898 3 873 0 c 1,29,-1
 777 0 l 1,30,31
 751 3 751 3 740 69 c 2,32,-1
 564 1102 l 1,33,-1
 396 68 l 2,34,35
 386 4 386 4 365 0 c 1,36,-1
 278 0 l 1,0,1
EndSplineSet
EndChar

StartChar: X
Encoding: 88 88 59
Width: 796
GlyphClass: 2
Flags: W
LayerCount: 2
Fore
SplineSet
64 0 m 2,0,1
 54 0 54 0 54 22 c 0,2,3
 54 44 54 44 61 60 c 2,4,-1
 316 713 l 1,5,-1
 77 1376 l 1,6,7
 69 1406 69 1406 69 1422 c 0,8,9
 69 1438 69 1438 80 1438 c 2,10,-1
 202 1438 l 2,11,12
 231 1438 231 1438 248 1387 c 2,13,-1
 417 893 l 1,14,-1
 597 1389 l 1,15,16
 617 1438 617 1438 645 1438 c 2,17,-1
 726 1438 l 2,18,19
 740 1438 740 1438 740 1418 c 0,20,21
 740 1398 740 1398 735 1385 c 2,22,-1
 497 778 l 1,23,-1
 746 62 l 2,24,25
 752 44 752 44 752 22 c 0,26,27
 752 0 752 0 738 0 c 2,28,-1
 632 0 l 2,29,30
 604 0 604 0 587 51 c 2,31,-1
 410 581 l 1,32,-1
 198 49 l 2,33,34
 178 0 178 0 153 0 c 2,35,-1
 64 0 l 2,0,1
EndSplineSet
EndChar

StartChar: Y
Encoding: 89 89 60
Width: 693
GlyphClass: 2
Flags: W
LayerCount: 2
Fore
SplineSet
429 52 m 2,0,1
 429 0 429 0 405 0 c 2,2,-1
 293 0 l 2,3,4
 269 0 269 0 269 52 c 2,5,-1
 269 505 l 1,6,-1
 42 1379 l 2,7,8
 37 1396 37 1396 37 1417 c 128,-1,9
 37 1438 37 1438 55 1438 c 2,10,-1
 158 1438 l 2,11,12
 188 1438 188 1438 200 1390 c 2,13,-1
 358 729 l 1,14,-1
 514 1389 l 2,15,16
 525 1438 525 1438 553 1438 c 2,17,-1
 640 1438 l 2,18,19
 658 1438 658 1438 658 1416.5 c 128,-1,20
 658 1395 658 1395 653 1379 c 2,21,-1
 429 509 l 1,22,-1
 429 52 l 2,0,1
EndSplineSet
EndChar

StartChar: Z
Encoding: 90 90 61
Width: 684
GlyphClass: 2
Flags: W
LayerCount: 2
Fore
SplineSet
629 36 m 2,0,1
 629 0 629 0 605 0 c 2,2,-1
 106 0 l 2,3,4
 82 0 82 0 82 36 c 2,5,-1
 82 79 l 2,6,7
 82 100 82 100 95 150 c 1,8,-1
 426 1270 l 2,9,10
 430 1286 430 1286 430 1298 c 128,-1,11
 430 1310 430 1310 421 1310 c 2,12,-1
 114 1310 l 2,13,14
 97 1310 97 1310 93 1319.5 c 128,-1,15
 89 1329 89 1329 89 1346 c 2,16,-1
 89 1402 l 2,17,18
 89 1425 89 1425 95 1431.5 c 128,-1,19
 101 1438 101 1438 114 1438 c 2,20,-1
 594 1438 l 2,21,22
 618 1438 618 1438 618 1402 c 2,23,-1
 618 1369 l 2,24,25
 618 1329 618 1329 603 1274 c 1,26,-1
 274 162 l 2,27,28
 271 151 271 151 271 139.5 c 128,-1,29
 271 128 271 128 277 128 c 0,30,31
 443 128 443 128 529 128 c 0,32,33
 614 128 614 128 618 127 c 0,34,35
 628 124 628 124 629 97 c 2,36,-1
 629 36 l 2,0,1
EndSplineSet
EndChar

StartChar: bracketleft
Encoding: 91 91 62
Width: 537
GlyphClass: 2
Flags: W
LayerCount: 2
Fore
SplineSet
139 -104 m 2,0,1
 112 -104 112 -104 112 -41 c 2,2,-1
 112 1418 l 2,3,4
 112 1481 112 1481 139 1481 c 2,5,-1
 415 1481 l 2,6,7
 440 1481 440 1481 440 1429 c 2,8,-1
 440 1351 l 2,9,10
 440 1299 440 1299 415 1299 c 2,11,-1
 284 1299 l 2,12,13
 273 1299 273 1299 273 1267 c 2,14,-1
 273 103 l 2,15,16
 273 72 273 72 284 72 c 2,17,-1
 415 72 l 2,18,19
 440 72 440 72 440 14 c 2,20,-1
 440 -52 l 2,21,22
 440 -104 440 -104 415 -104 c 2,23,-1
 139 -104 l 2,0,1
EndSplineSet
EndChar

StartChar: backslash
Encoding: 92 92 63
Width: 558
GlyphClass: 2
Flags: W
LayerCount: 2
Fore
SplineSet
470 -170 m 1,0,-1
 471 -179 l 1,1,2
 471 -205 471 -205 463 -205 c 2,3,-1
 349 -206 l 2,4,5
 337 -206 337 -206 332 -171 c 2,6,-1
 99 1612 l 1,7,-1
 98 1623 l 1,8,9
 98 1647 98 1647 106 1647 c 2,10,-1
 220 1647 l 2,11,12
 231 1647 231 1647 236 1612 c 2,13,-1
 470 -170 l 1,0,-1
EndSplineSet
EndChar

StartChar: bracketright
Encoding: 93 93 64
Width: 537
GlyphClass: 2
Flags: W
LayerCount: 2
Fore
SplineSet
413 1481 m 2,0,1
 440 1481 440 1481 440 1418 c 2,2,-1
 440 -41 l 2,3,4
 440 -104 440 -104 413 -104 c 2,5,-1
 137 -104 l 2,6,7
 112 -104 112 -104 112 -52 c 2,8,-1
 112 26 l 2,9,10
 112 78 112 78 137 78 c 2,11,-1
 268 78 l 2,12,13
 279 78 279 78 279 110 c 2,14,-1
 279 1274 l 2,15,16
 279 1305 279 1305 268 1305 c 2,17,-1
 137 1305 l 2,18,19
 112 1305 112 1305 112 1363 c 2,20,-1
 112 1429 l 2,21,22
 112 1481 112 1481 137 1481 c 2,23,-1
 413 1481 l 2,0,1
EndSplineSet
EndChar

StartChar: asciicircum
Encoding: 94 94 65
Width: 1030
GlyphClass: 2
Flags: W
LayerCount: 2
Fore
SplineSet
122 305 m 2,0,1
 94 305 94 305 94 334 c 0,2,3
 94 351 94 351 102 372 c 2,4,-1
 413 1244 l 1,5,6
 427 1280 427 1280 443 1295.5 c 128,-1,7
 459 1311 459 1311 492 1311 c 2,8,-1
 535 1311 l 2,9,10
 567 1311 567 1311 581.5 1296 c 128,-1,11
 596 1281 596 1281 612 1243 c 1,12,-1
 929 373 l 2,13,14
 937 349 937 349 937 336 c 0,15,16
 937 305 937 305 908 305 c 2,17,-1
 850 305 l 2,18,19
 830 305 830 305 816.5 319.5 c 128,-1,20
 803 334 803 334 790 374 c 1,21,-1
 534 1098 l 1,22,23
 524 1129 524 1129 515 1129 c 128,-1,24
 506 1129 506 1129 502 1123 c 128,-1,25
 498 1117 498 1117 492 1098 c 2,26,-1
 245 374 l 2,27,28
 231 332 231 332 218.5 318.5 c 128,-1,29
 206 305 206 305 179 305 c 2,30,-1
 122 305 l 2,0,1
EndSplineSet
EndChar

StartChar: underscore
Encoding: 95 95 66
Width: 823
GlyphClass: 2
Flags: W
LayerCount: 2
Fore
SplineSet
770 -44 m 2,0,1
 770 -87 770 -87 728 -87 c 2,2,-1
 96 -87 l 2,3,4
 54 -87 54 -87 54 -45 c 2,5,-1
 54 -10 l 2,6,7
 54 33 54 33 96 33 c 2,8,-1
 728 33 l 2,9,10
 770 33 770 33 770 -9 c 2,11,-1
 770 -44 l 2,0,1
EndSplineSet
EndChar

StartChar: grave
Encoding: 96 96 67
Width: 596
GlyphClass: 2
Flags: W
LayerCount: 2
Fore
SplineSet
440 1168 m 2,0,1
 427 1168 427 1168 420 1207 c 2,2,-1
 358 1544 l 2,3,4
 354 1568 354 1568 354 1588.5 c 128,-1,5
 354 1609 354 1609 364 1609 c 2,6,-1
 438 1609 l 2,7,8
 458 1609 458 1609 463 1554 c 1,9,-1
 484 1235 l 2,10,11
 485 1221 485 1221 485 1194.5 c 128,-1,12
 485 1168 485 1168 470 1168 c 2,13,-1
 440 1168 l 2,0,1
EndSplineSet
EndChar

StartChar: a
Encoding: 97 97 68
Width: 703
GlyphClass: 2
Flags: W
LayerCount: 2
Fore
SplineSet
423.5 39.5 m 128,-1,1
 372 -12 372 -12 276.5 -12 c 128,-1,2
 181 -12 181 -12 128.5 53 c 128,-1,3
 76 118 76 118 76 222 c 128,-1,4
 76 326 76 326 103 393 c 128,-1,5
 130 460 130 460 171 495.5 c 128,-1,6
 212 531 212 531 262 555 c 0,7,8
 312 578 312 578 355 586 c 0,9,10
 465 605 465 605 475 613 c 1,11,-1
 475 668 l 2,12,13
 475 784 475 784 449.5 844.5 c 128,-1,14
 424 905 424 905 358 905 c 128,-1,15
 292 905 292 905 262.5 870.5 c 128,-1,16
 233 836 233 836 219 790.5 c 128,-1,17
 205 745 205 745 199 739 c 128,-1,18
 193 733 193 733 181.5 735.5 c 128,-1,19
 170 738 170 738 135.5 749 c 128,-1,20
 101 760 101 760 100 765 c 1,21,22
 96 769 96 769 96 780 c 0,23,24
 96 797 96 797 104 829 c 0,25,26
 118 883 118 883 148 925 c 0,27,28
 212 1018 212 1018 350 1018 c 129,-1,29
 488 1018 488 1018 549.5 926.5 c 128,-1,30
 611 835 611 835 611 621 c 2,31,-1
 611 49 l 2,32,33
 611 0 611 0 590 0 c 2,34,-1
 566 0 l 2,35,36
 550 0 550 0 539 41 c 1,37,38
 510 163 510 163 509 177 c 0,39,40
 508 190 508 190 506 192 c 0,41,42
 502 195 502 195 500 188 c 0,43,0
 475 91 475 91 423.5 39.5 c 128,-1,1
309 95 m 0,44,45
 388 95 388 95 433 197 c 128,-1,46
 478 299 478 299 478 448 c 0,47,48
 478 518 478 518 474 518 c 0,49,50
 441 518 441 518 427 511 c 1,51,52
 306 484 306 484 253.5 418 c 128,-1,53
 201 352 201 352 201 249 c 0,54,55
 201 95 201 95 309 95 c 0,44,45
EndSplineSet
EndChar

StartChar: b
Encoding: 98 98 69
Width: 740
GlyphClass: 2
Flags: W
LayerCount: 2
Fore
SplineSet
213 1438 m 2,0,1
 237 1438 237 1438 237 1367 c 2,2,-1
 237 867 l 2,3,4
 237 854 237 854 241 854 c 1,5,-1
 246 859 l 1,6,7
 275 938 275 938 322.5 978 c 128,-1,8
 370 1018 370 1018 421.5 1018 c 128,-1,9
 473 1018 473 1018 513 992.5 c 0,10,11
 554 966 554 966 588 910 c 0,12,13
 662 788 662 788 662 501 c 0,14,15
 662 190 662 190 551 60 c 0,16,17
 491 -10 491 -10 412 -11 c 1,18,19
 257 -11 257 -11 199 200 c 0,20,21
 197 205 197 205 194 205 c 0,22,23
 190 206 190 206 184 154 c 0,24,25
 165 0 165 0 141 0 c 2,26,-1
 121 0 l 2,27,28
 101 0 101 0 101 59 c 2,29,-1
 101 1367 l 2,30,31
 101 1438 101 1438 126 1438 c 2,32,-1
 213 1438 l 2,0,1
385 102 m 128,-1,34
 449 102 449 102 485.5 201 c 128,-1,35
 522 300 522 300 522 503 c 128,-1,36
 522 706 522 706 485.5 805.5 c 128,-1,37
 449 905 449 905 386.5 905 c 128,-1,38
 324 905 324 905 280.5 795 c 128,-1,39
 237 685 237 685 237 510 c 128,-1,40
 237 335 237 335 279 218.5 c 128,-1,33
 321 102 321 102 385 102 c 128,-1,34
EndSplineSet
EndChar

StartChar: c
Encoding: 99 99 70
Width: 558
GlyphClass: 2
Flags: W
LayerCount: 2
Fore
SplineSet
376 -11 m 2,0,-1
 372 -11 l 2,1,2
 261 -10 261 -10 199 48 c 0,3,4
 143 101 143 101 121 178 c 0,5,6
 81 320 81 320 81 478.5 c 128,-1,7
 81 637 81 637 98 732 c 128,-1,8
 115 827 115 827 141 881 c 0,9,10
 166 935 166 935 206 967 c 0,11,12
 269 1018 269 1018 350 1018 c 128,-1,13
 431 1018 431 1018 490 996 c 1,14,15
 493 996 493 996 497 991 c 128,-1,16
 501 986 501 986 501 983 c 2,17,-1
 501 897 l 2,18,19
 501 892 501 892 497 887 c 128,-1,20
 493 882 493 882 490 883 c 0,21,22
 432 901 432 901 399 901 c 128,-1,23
 366 901 366 901 346 896 c 128,-1,24
 326 891 326 891 301 869 c 0,25,26
 276 846 276 846 261 806 c 0,27,28
 225 709 225 709 225 554.5 c 128,-1,29
 225 400 225 400 234.5 324 c 128,-1,30
 244 248 244 248 258.5 206 c 128,-1,31
 273 164 273 164 297.5 141 c 128,-1,32
 322 118 322 118 343.5 112.5 c 128,-1,33
 365 107 365 107 401 107 c 128,-1,34
 437 107 437 107 490 124 c 1,35,36
 493 123 493 123 497.5 116.5 c 128,-1,37
 502 110 502 110 502 106 c 2,38,-1
 502 26 l 2,39,40
 502 22 502 22 497.5 15.5 c 128,-1,41
 493 9 493 9 465.5 -1 c 128,-1,42
 438 -11 438 -11 376 -11 c 2,0,-1
EndSplineSet
EndChar

StartChar: d
Encoding: 100 100 71
Width: 749
GlyphClass: 2
Flags: W
LayerCount: 2
Fore
SplineSet
335 -11 m 0,0,1
 146 -10 146 -10 95 286 c 0,2,3
 79 380 79 380 79 504 c 128,-1,4
 79 628 79 628 93.5 722.5 c 128,-1,5
 108 817 108 817 131 872.5 c 128,-1,6
 154 928 154 928 188 962 c 0,7,8
 245 1018 245 1018 331 1018 c 0,9,10
 446 1018 446 1018 502 862 c 0,11,12
 503 860 503 860 509 851 c 1,13,14
 512 851 512 851 512 864 c 2,15,-1
 512 1376 l 2,16,17
 512 1438 512 1438 537 1438 c 2,18,-1
 623 1438 l 2,19,20
 648 1438 648 1438 648 1376 c 2,21,-1
 648 67 l 2,22,23
 648 0 648 0 626 0 c 2,24,-1
 604 0 l 2,25,26
 588 0 588 0 576 58 c 1,27,28
 561 158 561 158 557.5 188 c 128,-1,29
 554 218 554 218 552 220 c 1,30,31
 548 215 548 215 546 206 c 0,32,33
 517 80 517 80 468 34.5 c 128,-1,34
 419 -11 419 -11 335 -11 c 0,0,1
472 207 m 128,-1,36
 511 312 511 312 511 507.5 c 128,-1,37
 511 703 511 703 471 804 c 128,-1,38
 431 905 431 905 365 905 c 0,39,40
 260 904 260 904 234 708 c 0,41,42
 224 628 224 628 224 508 c 128,-1,43
 224 388 224 388 233.5 306 c 128,-1,44
 243 224 243 224 263 180 c 0,45,46
 316 114 316 114 366 102 c 1,47,35
 433 102 433 102 472 207 c 128,-1,36
EndSplineSet
EndChar

StartChar: e
Encoding: 101 101 72
Width: 704
GlyphClass: 2
Flags: W
LayerCount: 2
Fore
SplineSet
606 246 m 2,0,1
 606 135 606 135 547.5 62 c 128,-1,2
 489 -11 489 -11 374 -11 c 0,3,4
 81 -11 81 -11 81 504 c 0,5,6
 81 854 81 854 209 964 c 0,7,8
 272 1018 272 1018 364 1019 c 0,9,10
 614 1019 614 1019 614 545 c 0,11,12
 614 473 614 473 584 473 c 2,13,-1
 230 473 l 2,14,15
 223 473 223 473 223 413 c 128,-1,16
 223 353 223 353 238 277 c 128,-1,17
 253 201 253 201 289.5 151.5 c 128,-1,18
 326 102 326 102 371.5 102 c 128,-1,19
 417 102 417 102 442.5 119.5 c 128,-1,20
 468 137 468 137 480 170 c 0,21,22
 498 217 498 217 506 287 c 0,23,24
 508 307 508 307 519 307 c 2,25,-1
 587 307 l 2,26,27
 606 307 606 307 606 266 c 2,28,-1
 606 246 l 2,0,1
227 562 m 2,29,-1
 493 562 l 2,30,31
 495 562 495 562 495 580 c 0,32,33
 489 749 489 749 458 827.5 c 128,-1,34
 427 906 427 906 362 906 c 0,35,36
 241 906 241 906 224 616 c 1,37,38
 224 562 224 562 227 562 c 2,29,-1
EndSplineSet
EndChar

StartChar: f
Encoding: 102 102 73
Width: 462
GlyphClass: 2
Flags: W
LayerCount: 2
Fore
SplineSet
433 917 m 2,0,1
 433 881 433 881 411 881 c 2,2,-1
 276 881 l 2,3,4
 267 881 267 881 267 853 c 2,5,-1
 267 66 l 2,6,7
 267 0 267 0 242 0 c 2,8,-1
 157 0 l 2,9,10
 131 0 131 0 131 66 c 2,11,-1
 131 853 l 2,12,13
 131 881 131 881 124 881 c 2,14,-1
 73 881 l 2,15,16
 49 881 49 881 49 917 c 2,17,-1
 49 967 l 2,18,19
 49 1006 49 1006 73 1006 c 2,20,-1
 124 1006 l 2,21,22
 131 1006 131 1006 131 1107 c 128,-1,23
 131 1208 131 1208 154 1298.5 c 128,-1,24
 177 1389 177 1389 219.5 1419.5 c 128,-1,25
 262 1450 262 1450 330.5 1450 c 128,-1,26
 399 1450 399 1450 412.5 1447.5 c 0,27,28
 426 1446 426 1446 430 1444 c 0,29,30
 440 1440 440 1440 440 1414 c 2,31,-1
 440 1364 l 2,32,33
 440 1324 440 1324 427 1324 c 2,34,-1
 369 1324 l 2,35,36
 309 1324 309 1324 288 1277.5 c 128,-1,37
 267 1231 267 1231 267 1097 c 2,38,-1
 267 1012 l 2,39,40
 267 1006 267 1006 270 1006 c 2,41,-1
 411 1006 l 2,42,43
 433 1006 433 1006 433 971 c 2,44,-1
 433 917 l 2,0,1
EndSplineSet
EndChar

StartChar: g
Encoding: 103 103 74
Width: 681
GlyphClass: 2
Flags: W
LayerCount: 2
Fore
SplineSet
237 379 m 1,0,1
 189 341 189 341 189 265 c 0,2,3
 189 226 189 226 215 203.5 c 128,-1,4
 241 181 241 181 291 181 c 2,5,-1
 403 181 l 2,6,7
 540 181 540 181 600.5 129.5 c 128,-1,8
 661 78 661 78 661 -12.5 c 128,-1,9
 661 -103 661 -103 633.5 -158.5 c 128,-1,10
 606 -214 606 -214 558 -244 c 0,11,12
 465 -300 465 -300 339.5 -300 c 128,-1,13
 214 -300 214 -300 150 -255.5 c 128,-1,14
 86 -211 86 -211 86 -124.5 c 128,-1,15
 86 -38 86 -38 168 90 c 0,16,17
 172 98 172 98 172 105.5 c 128,-1,18
 172 113 172 113 165 117 c 0,19,20
 118 137 118 137 96.5 159 c 128,-1,21
 75 181 75 181 75 210.5 c 128,-1,22
 75 240 75 240 76.5 253.5 c 128,-1,23
 78 267 78 267 79 277.5 c 128,-1,24
 80 288 80 288 84 299.5 c 128,-1,25
 88 311 88 311 89.5 318 c 128,-1,26
 91 325 91 325 97 336 c 128,-1,27
 103 347 103 347 105 351 c 128,-1,28
 107 355 107 355 115 366 c 128,-1,29
 123 377 123 377 124 379 c 0,30,31
 130 391 130 391 141 403.5 c 128,-1,32
 152 416 152 416 152 425 c 128,-1,33
 152 434 152 434 146 440 c 0,34,35
 68 538 68 538 68 656.5 c 128,-1,36
 68 775 68 775 94.5 850 c 128,-1,37
 121 925 121 925 183.5 971.5 c 128,-1,38
 246 1018 246 1018 339 1018 c 0,39,40
 364 1018 364 1018 406 1008 c 0,41,42
 422 1004 422 1004 423 1023 c 2,43,-1
 440 1276 l 2,44,45
 441 1304 441 1304 448 1311.5 c 128,-1,46
 455 1319 455 1319 470 1319 c 2,47,-1
 537 1319 l 2,48,49
 544 1319 544 1319 548 1305 c 128,-1,50
 552 1291 552 1291 549 1278 c 2,51,-1
 482 997 l 2,52,53
 477 973 477 973 496 960 c 0,54,55
 546 923 546 923 581.5 850.5 c 128,-1,56
 617 778 617 778 617 676 c 0,57,58
 617 347 617 347 360 347 c 0,59,60
 290 347 290 347 237 379 c 1,0,1
215 -100 m 0,61,62
 215 -209 215 -209 342 -209 c 0,63,64
 544 -209 544 -209 544 -35 c 0,65,66
 544 92 544 92 405 92 c 2,67,-1
 290 92 l 2,68,69
 271 92 271 92 243 27 c 128,-1,70
 215 -38 215 -38 215 -100 c 0,61,62
247 504.5 m 128,-1,72
 284 442 284 442 355.5 442 c 128,-1,73
 427 442 427 442 456.5 502 c 128,-1,74
 486 562 486 562 486 671 c 128,-1,75
 486 780 486 780 449 851.5 c 128,-1,76
 412 923 412 923 343 923 c 128,-1,77
 274 923 274 923 242 855.5 c 128,-1,78
 210 788 210 788 210 677.5 c 128,-1,71
 210 567 210 567 247 504.5 c 128,-1,72
EndSplineSet
EndChar

StartChar: h
Encoding: 104 104 75
Width: 728
GlyphClass: 2
Flags: W
LayerCount: 2
Fore
SplineSet
237 50 m 2,0,1
 237 0 237 0 213 0 c 2,2,-1
 125 0 l 2,3,4
 101 0 101 0 101 50 c 2,5,-1
 101 1384 l 2,6,7
 101 1438 101 1438 125 1438 c 2,8,-1
 212 1438 l 2,9,10
 237 1438 237 1438 237 1384 c 2,11,-1
 237 861 l 2,12,13
 237 849 237 849 240.5 849 c 128,-1,14
 244 849 244 849 247 854 c 1,15,16
 278 939 278 939 331 978.5 c 128,-1,17
 384 1018 384 1018 444.5 1018 c 128,-1,18
 505 1018 505 1018 547 982 c 0,19,20
 639 902 639 902 639 582 c 2,21,-1
 639 50 l 2,22,23
 639 0 639 0 614 0 c 2,24,-1
 527 0 l 2,25,26
 503 0 503 0 503 50 c 2,27,-1
 503 606 l 2,28,29
 503 905 503 905 394 905 c 0,30,31
 330 905 330 905 283.5 814 c 128,-1,32
 237 723 237 723 237 595 c 2,33,-1
 237 50 l 2,0,1
EndSplineSet
EndChar

StartChar: i
Encoding: 105 105 76
Width: 349
GlyphClass: 2
Flags: W
LayerCount: 2
Fore
SplineSet
133 0 m 2,0,1
 108 0 108 0 108 61 c 2,2,-1
 108 946 l 2,3,4
 108 1006 108 1006 133 1006 c 2,5,-1
 220 1006 l 2,6,7
 244 1006 244 1006 244 946 c 2,8,-1
 244 61 l 2,9,10
 244 0 244 0 220 0 c 2,11,-1
 133 0 l 2,0,1
249 1218 m 2,12,13
 249 1167 249 1167 226 1167 c 2,14,-1
 127 1167 l 2,15,16
 103 1167 103 1167 103 1218 c 2,17,-1
 103 1322 l 2,18,19
 103 1374 103 1374 127 1374 c 2,20,-1
 226 1374 l 2,21,22
 249 1374 249 1374 249 1322 c 2,23,-1
 249 1218 l 2,12,13
EndSplineSet
EndChar

StartChar: j
Encoding: 106 106 77
Width: 427
GlyphClass: 2
Flags: W
LayerCount: 2
Fore
SplineSet
58 -321 m 2,0,1
 35 -321 35 -321 35 -274 c 2,2,-1
 35 -242 l 2,3,4
 35 -200 35 -200 58 -200 c 2,5,-1
 97 -200 l 2,6,7
 134 -200 134 -200 150.5 -155 c 128,-1,8
 167 -110 167 -110 167 1 c 2,9,-1
 167 946 l 2,10,11
 167 1006 167 1006 191 1006 c 2,12,-1
 278 1006 l 2,13,14
 303 1006 303 1006 303 946 c 2,15,-1
 303 0 l 2,16,17
 302 -239 302 -239 234 -292 c 0,18,19
 197 -321 197 -321 128 -321 c 2,20,-1
 58 -321 l 2,0,1
308 1218 m 2,21,22
 308 1167 308 1167 284 1167 c 2,23,-1
 186 1167 l 2,24,25
 161 1167 161 1167 161 1218 c 2,26,-1
 161 1322 l 2,27,28
 161 1374 161 1374 186 1374 c 2,29,-1
 284 1374 l 2,30,31
 308 1374 308 1374 308 1322 c 2,32,-1
 308 1218 l 2,21,22
EndSplineSet
EndChar

StartChar: k
Encoding: 107 107 78
Width: 683
GlyphClass: 2
Flags: W
LayerCount: 2
Fore
SplineSet
128 0 m 2,0,1
 104 0 104 0 104 63 c 2,2,-1
 104 1375 l 2,3,4
 104 1438 104 1438 128 1438 c 2,5,-1
 216 1438 l 2,6,7
 240 1438 240 1438 240 1375 c 2,8,-1
 240 522 l 2,9,10
 240 508 240 508 243.5 508.5 c 128,-1,11
 247 509 247 509 262.5 545 c 128,-1,12
 278 581 278 581 317 653 c 128,-1,13
 356 725 356 725 407.5 813.5 c 128,-1,14
 459 902 459 902 487.5 954 c 128,-1,15
 516 1006 516 1006 534 1006 c 2,16,-1
 628 1006 l 2,17,18
 638 1006 638 1006 638 987.5 c 128,-1,19
 638 969 638 969 627 949 c 2,20,-1
 429 584 l 1,21,22
 425 574 425 574 425 569.5 c 128,-1,23
 425 565 425 565 429 553 c 1,24,-1
 643 61 l 2,25,26
 651 42 651 42 651 21 c 128,-1,27
 651 0 651 0 640 0 c 2,28,-1
 540 0 l 2,29,30
 524 0 524 0 501 54 c 2,31,-1
 320 485 l 2,32,33
 316 495 316 495 312.5 495 c 128,-1,34
 309 495 309 495 304 487 c 0,35,36
 295 473 295 473 258 383 c 2,37,-1
 246 354 l 2,38,39
 240 339 240 339 240 314 c 2,40,-1
 240 63 l 2,41,42
 240 0 240 0 216 0 c 2,43,-1
 128 0 l 2,0,1
EndSplineSet
EndChar

StartChar: l
Encoding: 108 108 79
Width: 376
GlyphClass: 2
Flags: W
LayerCount: 2
Fore
SplineSet
165 0 m 2,0,1
 140 0 140 0 140 58 c 2,2,-1
 140 1375 l 2,3,4
 140 1438 140 1438 165 1438 c 2,5,-1
 252 1438 l 2,6,7
 276 1438 276 1438 276 1375 c 2,8,-1
 276 58 l 2,9,10
 276 0 276 0 252 0 c 2,11,-1
 165 0 l 2,0,1
EndSplineSet
EndChar

StartChar: m
Encoding: 109 109 80
Width: 1071
GlyphClass: 2
Flags: W
LayerCount: 2
Fore
SplineSet
126 0 m 2,0,1
 101 0 101 0 101 63 c 2,2,-1
 101 935 l 2,3,4
 101 1006 101 1006 124 1006 c 2,5,-1
 150 1006 l 2,6,7
 174 1006 174 1006 180 948 c 2,8,-1
 195 805 l 2,9,10
 197 792 197 792 200.5 792 c 128,-1,11
 204 792 204 792 208 806 c 0,12,13
 259 1018 259 1018 400 1018 c 0,14,15
 464 1018 464 1018 508 972 c 128,-1,16
 552 926 552 926 578 817 c 1,17,18
 581 810 581 810 584 810 c 128,-1,19
 587 810 587 810 589 817 c 0,20,21
 615 919 615 919 668 968.5 c 128,-1,22
 721 1018 721 1018 769 1018 c 128,-1,23
 817 1018 817 1018 845.5 1008.5 c 128,-1,24
 874 999 874 999 900.5 972.5 c 128,-1,25
 927 946 927 946 944 900 c 0,26,27
 981 801 981 801 981 604 c 2,28,-1
 981 63 l 2,29,30
 981 0 981 0 956 0 c 2,31,-1
 869 0 l 2,32,33
 845 0 845 0 845 63 c 2,34,-1
 845 633 l 2,35,36
 845 788 845 788 822.5 846.5 c 128,-1,37
 800 905 800 905 745.5 905 c 128,-1,38
 691 905 691 905 650.5 821.5 c 128,-1,39
 610 738 610 738 610 598 c 2,40,-1
 610 63 l 2,41,42
 610 0 610 0 586 0 c 2,43,-1
 499 0 l 2,44,45
 474 0 474 0 474 63 c 2,46,-1
 474 624 l 2,47,48
 474 782 474 782 450 843.5 c 128,-1,49
 426 905 426 905 379 905 c 0,50,51
 332 904 332 904 300 858 c 0,52,53
 237 766 237 766 237 591 c 2,54,-1
 237 63 l 2,55,56
 237 0 237 0 212 0 c 2,57,-1
 126 0 l 2,0,1
EndSplineSet
EndChar

StartChar: n
Encoding: 110 110 81
Width: 724
GlyphClass: 2
Flags: W
LayerCount: 2
Fore
SplineSet
237 50 m 2,0,1
 237 0 237 0 213 0 c 2,2,-1
 126 0 l 2,3,4
 101 0 101 0 101 50 c 2,5,-1
 101 944 l 2,6,7
 101 1006 101 1006 125 1006 c 2,8,-1
 144 1006 l 2,9,10
 158 1006 158 1006 165.5 997 c 128,-1,11
 173 988 173 988 178 957 c 1,12,-1
 194 826 l 1,13,14
 197 815 197 815 201 815 c 128,-1,15
 205 815 205 815 214 850 c 128,-1,16
 223 885 223 885 248.5 925 c 128,-1,17
 274 965 274 965 304 984 c 0,18,19
 359 1018 359 1018 425.5 1018 c 128,-1,20
 492 1018 492 1018 536 984 c 0,21,22
 630 910 630 910 629 603 c 2,23,-1
 629 50 l 2,24,25
 629 0 629 0 605 0 c 2,26,-1
 517 0 l 2,27,28
 493 0 493 0 493 50 c 2,29,-1
 493 624 l 2,30,31
 493 905 493 905 394 905 c 0,32,33
 327 905 327 905 282 819.5 c 128,-1,34
 237 734 237 734 237 613 c 2,35,-1
 237 50 l 2,0,1
EndSplineSet
EndChar

StartChar: o
Encoding: 111 111 82
Width: 739
GlyphClass: 2
Flags: W
LayerCount: 2
Fore
SplineSet
311.5 116.5 m 128,-1,1
 335 102 335 102 369.5 102 c 128,-1,2
 404 102 404 102 427.5 116.5 c 128,-1,3
 451 131 451 131 472 172 c 0,4,5
 514 254 514 254 514 505 c 0,6,7
 514 760 514 760 472 838 c 0,8,9
 450 878 450 878 427 891.5 c 128,-1,10
 404 905 404 905 370 905 c 128,-1,11
 336 905 336 905 312.5 891 c 128,-1,12
 289 877 289 877 268 837 c 0,13,14
 226 757 226 757 226 505 c 0,15,16
 226 252 226 252 267 172 c 0,17,0
 288 131 288 131 311.5 116.5 c 128,-1,1
371 -11 m 128,-1,19
 326 -11 326 -11 291 -3 c 128,-1,20
 256 5 256 5 214 36 c 128,-1,21
 172 67 172 67 145 120 c 0,22,23
 81 246 81 246 81 505 c 0,24,25
 82 928 82 928 258 998 c 0,26,27
 307 1018 307 1018 354.5 1018 c 128,-1,28
 402 1018 402 1018 427.5 1014.5 c 128,-1,29
 453 1011 453 1011 484 998.5 c 128,-1,30
 515 986 515 986 538 964.5 c 128,-1,31
 561 943 561 943 585 904.5 c 128,-1,32
 609 866 609 866 624 813 c 0,33,34
 658 693 658 693 658 531.5 c 128,-1,35
 658 370 658 370 639.5 271.5 c 128,-1,36
 621 173 621 173 594 120 c 128,-1,37
 567 67 567 67 526 36 c 128,-1,38
 485 5 485 5 450.5 -3 c 128,-1,18
 416 -11 416 -11 371 -11 c 128,-1,19
EndSplineSet
EndChar

StartChar: p
Encoding: 112 112 83
Width: 751
GlyphClass: 2
Flags: W
LayerCount: 2
Fore
SplineSet
124 -369 m 2,0,1
 101 -369 101 -369 101 -302 c 2,2,-1
 101 942 l 2,3,4
 101 1008 101 1008 122 1008 c 2,5,-1
 142 1008 l 2,6,7
 165 1008 165 1008 179.5 904.5 c 128,-1,8
 194 801 194 801 195 793 c 128,-1,9
 196 785 196 785 199 785 c 128,-1,10
 202 785 202 785 205 793 c 0,11,12
 234 906 234 906 292.5 962 c 128,-1,13
 351 1018 351 1018 408.5 1018 c 128,-1,14
 466 1018 466 1018 510 988.5 c 0,15,16
 554 958 554 958 590 900 c 0,17,18
 670 773 670 773 670 509 c 0,19,20
 670 116 670 116 515 17 c 0,21,22
 471 -11 471 -11 417.5 -11 c 128,-1,23
 364 -11 364 -11 318.5 30.5 c 128,-1,24
 273 72 273 72 247 151 c 0,25,26
 245 156 245 156 241 156 c 128,-1,27
 237 156 237 156 237 145 c 2,28,-1
 237 -302 l 2,29,30
 237 -369 237 -369 213 -369 c 2,31,-1
 124 -369 l 2,0,1
384 102 m 0,32,33
 526 102 526 102 526 502 c 0,34,35
 526 691 526 691 486.5 798 c 128,-1,36
 447 905 447 905 383 905 c 128,-1,37
 319 905 319 905 278 794 c 128,-1,38
 237 683 237 683 237 499 c 128,-1,39
 237 315 237 315 278.5 208.5 c 128,-1,40
 320 102 320 102 384 102 c 0,32,33
EndSplineSet
EndChar

StartChar: q
Encoding: 113 113 84
Width: 743
GlyphClass: 2
Flags: W
LayerCount: 2
Fore
SplineSet
532 -369 m 2,0,1
 508 -369 508 -369 508 -314 c 2,2,-1
 508 145 l 2,3,4
 508 156 508 156 504 156 c 128,-1,5
 500 156 500 156 498 151 c 0,6,7
 471 71 471 71 427 30 c 128,-1,8
 383 -11 383 -11 330 -11 c 0,9,10
 80 -11 80 -11 80 509 c 0,11,12
 80 823 80 823 193 949 c 0,13,14
 255 1018 255 1018 330 1018 c 0,15,16
 482 1018 482 1018 540 785 c 0,17,18
 543 777 543 777 546 777 c 128,-1,19
 549 777 549 777 550 792.5 c 128,-1,20
 551 808 551 808 570 941 c 0,21,22
 580 1009 580 1009 603 1009 c 2,23,-1
 623 1009 l 2,24,25
 644 1009 644 1009 644 949 c 2,26,-1
 644 -314 l 2,27,28
 644 -369 644 -369 621 -369 c 2,29,-1
 532 -369 l 2,0,1
363 102 m 0,30,31
 427 102 427 102 467.5 208 c 128,-1,32
 508 314 508 314 508 498.5 c 128,-1,33
 508 683 508 683 468 794 c 128,-1,34
 428 905 428 905 364.5 905 c 128,-1,35
 301 905 301 905 263 798.5 c 128,-1,36
 225 692 225 692 225 502 c 0,37,38
 225 102 225 102 363 102 c 0,30,31
EndSplineSet
EndChar

StartChar: r
Encoding: 114 114 85
Width: 466
GlyphClass: 2
Flags: W
LayerCount: 2
Fore
SplineSet
126 0 m 2,0,1
 101 0 101 0 101 64 c 2,2,-1
 101 929 l 2,3,4
 101 1006 101 1006 121 1006 c 2,5,-1
 149 1006 l 2,6,7
 167 1006 167 1006 178 942 c 1,8,-1
 196 804 l 1,9,10
 200 787 200 787 203.5 787 c 128,-1,11
 207 787 207 787 221.5 845 c 128,-1,12
 236 903 236 903 277.5 958 c 128,-1,13
 319 1013 319 1013 364 1014 c 1,14,-1
 380 1014 l 2,15,16
 401 1014 401 1014 409 1003 c 128,-1,17
 417 992 417 992 417 966 c 2,18,-1
 417 894 l 2,19,20
 417 870 417 870 413 862.5 c 128,-1,21
 409 855 409 855 384.5 854 c 128,-1,22
 360 853 360 853 354 851 c 0,23,24
 318 842 318 842 290 788 c 0,25,26
 236 682 236 682 237 536 c 2,27,-1
 237 64 l 2,28,29
 237 0 237 0 213 0 c 2,30,-1
 126 0 l 2,0,1
EndSplineSet
EndChar

StartChar: s
Encoding: 115 115 86
Width: 581
GlyphClass: 2
Flags: W
LayerCount: 2
Fore
SplineSet
467 61.5 m 128,-1,1
 401 -11 401 -11 271.5 -11 c 128,-1,2
 142 -11 142 -11 42 109 c 1,3,4
 40 113 40 113 40 123.5 c 128,-1,5
 40 134 40 134 62 166.5 c 128,-1,6
 84 199 84 199 97 199 c 0,7,8
 100 199 100 199 102 197 c 0,9,10
 184 102 184 102 279 102 c 0,11,12
 342 102 342 102 375.5 147 c 128,-1,13
 409 192 409 192 409 256.5 c 128,-1,14
 409 321 409 321 375.5 361.5 c 128,-1,15
 342 402 342 402 280 443.5 c 128,-1,16
 218 485 218 485 190 508.5 c 128,-1,17
 162 532 162 532 133 568 c 0,18,19
 77 638 77 638 77 754 c 128,-1,20
 77 870 77 870 139.5 944 c 128,-1,21
 202 1018 202 1018 311.5 1018 c 128,-1,22
 421 1018 421 1018 510 924 c 0,23,24
 514 920 514 920 514 906 c 128,-1,25
 514 892 514 892 495.5 860.5 c 128,-1,26
 477 829 477 829 467 829 c 0,27,28
 465 829 465 829 464 830 c 0,29,30
 398 901 398 901 312 901 c 0,31,32
 260 901 260 901 231 861.5 c 128,-1,33
 202 822 202 822 202 762 c 128,-1,34
 202 702 202 702 233 660.5 c 128,-1,35
 264 619 264 619 320.5 584 c 128,-1,36
 377 549 377 549 408 523 c 0,37,38
 438 497 438 497 470 459 c 0,39,40
 532 384 532 384 532.5 259 c 128,-1,0
 533 134 533 134 467 61.5 c 128,-1,1
EndSplineSet
EndChar

StartChar: t
Encoding: 116 116 87
Width: 554
GlyphClass: 2
Flags: W
LayerCount: 2
Fore
SplineSet
330 880 m 2,0,1
 318 880 318 880 318 862 c 2,2,-1
 318 314 l 2,3,4
 318 156 318 156 366 126 c 0,5,6
 384 114 384 114 413 115 c 2,7,-1
 482 115 l 2,8,9
 509 115 509 115 509 85 c 2,10,-1
 509 32 l 2,11,12
 509 -2 509 -2 480 -2 c 2,13,-1
 386 -2 l 2,14,15
 264 -2 264 -2 220 86 c 0,16,17
 182 162 182 162 182 314 c 2,18,-1
 182 862 l 2,19,20
 182 880 182 880 171 880 c 2,21,-1
 107 880 l 2,22,23
 83 880 83 880 83 924 c 2,24,-1
 83 962 l 2,25,26
 83 1006 83 1006 107 1006 c 2,27,-1
 171 1006 l 2,28,29
 181 1006 181 1006 182 1033 c 2,30,-1
 199 1387 l 1,31,32
 200 1438 200 1438 224 1438 c 2,33,-1
 294 1438 l 2,34,35
 318 1438 318 1438 318 1387 c 2,36,-1
 318 1033 l 2,37,38
 318 1006 318 1006 330 1006 c 2,39,-1
 459 1006 l 2,40,41
 483 1006 483 1006 483 962 c 2,42,-1
 483 924 l 2,43,44
 483 880 483 880 459 880 c 2,45,-1
 330 880 l 2,0,1
EndSplineSet
EndChar

StartChar: u
Encoding: 117 117 88
Width: 756
GlyphClass: 2
Flags: W
LayerCount: 2
Fore
SplineSet
629 1006 m 2,0,1
 654 1006 654 1006 654 956 c 2,2,-1
 654 63 l 2,3,4
 654 0 654 0 631 0 c 2,5,-1
 611 0 l 2,6,7
 597 0 597 0 589.5 9 c 128,-1,8
 582 18 582 18 577 50 c 2,9,-1
 559 191 l 2,10,11
 557 204 557 204 553.5 204 c 128,-1,12
 550 204 550 204 546 190 c 0,13,14
 520 83 520 83 465 36 c 128,-1,15
 410 -11 410 -11 351.5 -11 c 128,-1,16
 293 -11 293 -11 256 4.5 c 0,17,18
 220 20 220 20 188 60 c 0,19,20
 124 141 124 141 123 373 c 2,21,-1
 123 956 l 2,22,23
 123 1006 123 1006 147 1006 c 2,24,-1
 234 1006 l 2,25,26
 259 1006 259 1006 259 956 c 2,27,-1
 259 337 l 2,28,29
 259 207 259 207 286.5 154.5 c 128,-1,30
 314 102 314 102 373 102 c 128,-1,31
 432 102 432 102 475 188.5 c 128,-1,32
 518 275 518 275 518 381 c 2,33,-1
 518 956 l 2,34,35
 518 1006 518 1006 543 1006 c 2,36,-1
 629 1006 l 2,0,1
EndSplineSet
EndChar

StartChar: v
Encoding: 118 118 89
Width: 664
GlyphClass: 2
Flags: W
LayerCount: 2
Fore
SplineSet
279 1 m 2,0,1
 258 1 258 1 245 67 c 2,2,-1
 75 941 l 2,3,4
 72 954 72 954 72 980 c 0,5,6
 72 1006 72 1006 86 1006 c 2,7,-1
 178 1006 l 2,8,9
 201 1006 201 1006 211 944 c 2,10,-1
 333 220 l 1,11,12
 336 211 336 211 338 211 c 128,-1,13
 340 211 340 211 342 220 c 2,14,-1
 466 944 l 2,15,16
 476 1006 476 1006 501 1006 c 2,17,-1
 581 1006 l 2,18,19
 595 1006 595 1006 595 987 c 0,20,21
 595 968 595 968 591 942 c 1,22,-1
 422 67 l 2,23,24
 409 1 409 1 385 1 c 2,25,-1
 279 1 l 2,0,1
EndSplineSet
EndChar

StartChar: w
Encoding: 119 119 90
Width: 916
GlyphClass: 2
Flags: W
LayerCount: 2
Fore
SplineSet
244 0 m 2,0,1
 219 0 219 0 210 60 c 1,2,-1
 58 940 l 2,3,4
 55 956 55 956 55 970 c 0,5,6
 55 1006 55 1006 71 1006 c 2,7,-1
 147 1006 l 2,8,9
 169 1006 169 1006 179 942 c 2,10,-1
 285 224 l 1,11,12
 288 214 288 214 290 214 c 0,13,14
 292 214 292 214 294 223 c 2,15,-1
 401 943 l 2,16,17
 411 1006 411 1006 434 1006 c 2,18,-1
 502 1006 l 2,19,20
 520 1006 520 1006 531 943 c 2,21,-1
 647 222 l 2,22,23
 648 215 648 215 651 215 c 128,-1,24
 654 215 654 215 654 223 c 2,25,-1
 742 943 l 2,26,27
 749 1006 749 1006 775 1006 c 2,28,-1
 846 1006 l 2,29,30
 861 1006 861 1006 861 982 c 0,31,32
 861 958 861 958 857 941 c 1,33,-1
 729 60 l 1,34,35
 719 0 719 0 693 0 c 2,36,-1
 608 0 l 2,37,38
 582 0 582 0 572 61 c 2,39,-1
 469 718 l 2,40,41
 468 725 468 725 466 725 c 0,42,43
 464 725 464 725 461 718 c 2,44,-1
 358 61 l 2,45,46
 348 0 348 0 322 0 c 2,47,-1
 244 0 l 2,0,1
EndSplineSet
EndChar

StartChar: x
Encoding: 120 120 91
Width: 643
GlyphClass: 2
Flags: W
LayerCount: 2
Fore
SplineSet
60 0 m 2,0,1
 52 0 52 0 52 20.5 c 128,-1,2
 52 41 52 41 54 46 c 0,3,4
 136 247 136 247 236 473 c 0,5,6
 238 479 238 479 238 486 c 128,-1,7
 238 493 238 493 236 503 c 1,8,9
 171 656 171 656 110 812 c 128,-1,10
 49 968 49 968 49 987 c 128,-1,11
 49 1006 49 1006 59 1006 c 2,12,-1
 154 1006 l 2,13,14
 165 1006 165 1006 172 994.5 c 128,-1,15
 179 983 179 983 190 956 c 2,16,-1
 317 631 l 2,17,18
 320 624 320 624 323.5 624 c 128,-1,19
 327 624 327 624 330 630 c 2,20,-1
 443 958 l 2,21,22
 459 1006 459 1006 484 1006 c 2,23,-1
 572 1006 l 2,24,25
 581 1006 581 1006 581 986.5 c 128,-1,26
 581 967 581 967 572 945.5 c 128,-1,27
 563 924 563 924 487.5 752 c 128,-1,28
 412 580 412 580 404 561.5 c 128,-1,29
 396 543 396 543 396 536 c 0,30,31
 396 530 396 530 472 350 c 0,32,33
 600 44 600 44 600 22 c 128,-1,34
 600 0 600 0 591 0 c 2,35,-1
 512 0 l 2,36,37
 485 0 485 0 467 50 c 0,38,39
 462 61 462 61 436.5 121.5 c 128,-1,40
 411 182 411 182 379 257 c 0,41,42
 330 373 330 373 326.5 373 c 128,-1,43
 323 373 323 373 316 365 c 1,44,45
 300 325 300 325 251 193.5 c 128,-1,46
 202 62 202 62 196 47 c 1,47,48
 173 0 173 0 151 0 c 2,49,-1
 60 0 l 2,0,1
EndSplineSet
EndChar

StartChar: y
Encoding: 121 121 92
Width: 660
GlyphClass: 2
Flags: W
LayerCount: 2
Fore
SplineSet
147 -124 m 1,0,-1
 224 -142 l 1,1,2
 251 -142 251 -142 274.5 -96 c 128,-1,3
 298 -50 298 -50 298 -4 c 128,-1,4
 298 42 298 42 278 126 c 1,5,-1
 68 947 l 1,6,7
 66 961 66 961 66 983.5 c 128,-1,8
 66 1006 66 1006 81 1006 c 2,9,-1
 176 1006 l 2,10,11
 203 1006 203 1006 211 956 c 1,12,-1
 362 272 l 1,13,14
 366 261 366 261 368.5 261 c 128,-1,15
 371 261 371 261 371 272 c 1,16,-1
 495 953 l 1,17,18
 502 1006 502 1006 528 1006 c 2,19,-1
 596 1006 l 2,20,21
 613 1006 613 1006 613 966 c 0,22,23
 613 964 613 964 610 943 c 1,24,-1
 430 14 l 1,25,26
 402 -141 402 -141 359.5 -200 c 128,-1,27
 317 -259 317 -259 247 -262 c 1,28,-1
 234 -262 l 2,29,30
 154 -262 154 -262 130 -222 c 0,31,32
 125 -213 125 -213 125 -168.5 c 128,-1,33
 125 -124 125 -124 147 -124 c 1,0,-1
EndSplineSet
EndChar

StartChar: z
Encoding: 122 122 93
Width: 540
GlyphClass: 2
Flags: W
LayerCount: 2
Fore
SplineSet
458 1006 m 2,0,1
 475 1006 475 1006 475 982 c 2,2,-1
 475 886 l 2,3,4
 475 859 475 859 465 829 c 2,5,-1
 220 116 l 1,6,-1
 474 116 l 2,7,8
 486 116 486 116 486 92 c 2,9,-1
 486 23 l 2,10,11
 486 0 486 0 474 0 c 2,12,-1
 93 0 l 2,13,14
 76 0 76 0 76 22 c 2,15,-1
 76 105 l 2,16,17
 76 130 76 130 90 169 c 2,18,-1
 338 881 l 1,19,-1
 89 881 l 2,20,21
 77 881 77 881 77 906 c 2,22,-1
 77 982 l 2,23,24
 77 1006 77 1006 89 1006 c 2,25,-1
 458 1006 l 2,0,1
EndSplineSet
EndChar

StartChar: braceleft
Encoding: 123 123 94
Width: 518
GlyphClass: 2
Flags: W
LayerCount: 2
Fore
SplineSet
438 -40 m 2,0,1
 438 -91 438 -91 411 -91 c 2,2,-1
 341 -91 l 2,3,4
 290 -91 290 -91 262 -61 c 0,5,6
 206 0 206 0 204 291 c 1,7,-1
 204 453 l 1,8,9
 203 565 203 565 190.5 603 c 128,-1,10
 178 641 178 641 146.5 641.5 c 128,-1,11
 115 642 115 642 105 655 c 128,-1,12
 95 668 95 668 95 708 c 2,13,-1
 95 748 l 2,14,15
 95 784 95 784 105 795 c 128,-1,16
 115 806 115 806 141 807 c 0,17,18
 168 808 168 808 180 828 c 0,19,20
 203 863 203 863 204 1004 c 1,21,-1
 204 1173 l 1,22,23
 206 1462 206 1462 262 1516 c 0,24,25
 290 1542 290 1542 341 1543 c 2,26,-1
 411 1543 l 2,27,28
 438 1543 438 1543 438 1492 c 2,29,-1
 438 1468 l 2,30,31
 438 1440 438 1440 428.5 1428 c 128,-1,32
 419 1416 419 1416 394 1416 c 0,33,34
 358 1416 358 1416 350 1375.5 c 128,-1,35
 342 1335 342 1335 341 1158 c 1,36,-1
 341 976 l 2,37,38
 341 861 341 861 327.5 804 c 128,-1,39
 314 747 314 747 273 734 c 0,40,41
 270 733 270 733 269.5 727.5 c 128,-1,42
 269 722 269 722 273 720 c 0,43,44
 314 707 314 707 326.5 654 c 128,-1,45
 339 601 339 601 339 491 c 2,46,-1
 339 310 l 1,47,48
 340 124 340 124 348 80 c 128,-1,49
 356 36 356 36 394 36 c 0,50,51
 419 36 419 36 428.5 24 c 128,-1,52
 438 12 438 12 438 -16 c 2,53,-1
 438 -40 l 2,0,1
EndSplineSet
EndChar

StartChar: bar
Encoding: 124 124 95
Width: 313
GlyphClass: 2
Flags: W
LayerCount: 2
Fore
SplineSet
140 -150 m 2,0,1
 112 -150 112 -150 112 -84 c 2,2,-1
 112 1489 l 2,3,4
 112 1555 112 1555 140 1555 c 2,5,-1
 174 1555 l 2,6,7
 200 1555 200 1555 200 1489 c 2,8,-1
 200 -84 l 2,9,10
 200 -150 200 -150 174 -150 c 2,11,-1
 140 -150 l 2,0,1
EndSplineSet
EndChar

StartChar: braceright
Encoding: 125 125 96
Width: 518
GlyphClass: 2
Flags: W
LayerCount: 2
Fore
SplineSet
95 1492 m 2,0,1
 95 1543 95 1543 121 1543 c 2,2,-1
 191 1543 l 2,3,4
 243 1542 243 1542 271 1512 c 0,5,6
 326 1452 326 1452 328 1161 c 1,7,-1
 328 999 l 1,8,9
 329 887 329 887 342 849 c 128,-1,10
 355 811 355 811 386.5 810.5 c 128,-1,11
 418 810 418 810 428 797 c 128,-1,12
 438 784 438 784 438 744 c 2,13,-1
 438 704 l 2,14,15
 438 668 438 668 427.5 657 c 128,-1,16
 417 646 417 646 390 645 c 0,17,18
 355 644 355 644 343 602 c 128,-1,19
 331 560 331 560 329.5 500 c 128,-1,20
 328 440 328 440 327.5 282 c 128,-1,21
 327 124 327 124 312 43 c 128,-1,22
 297 -38 297 -38 269.5 -64.5 c 128,-1,23
 242 -91 242 -91 191 -91 c 2,24,-1
 121 -91 l 2,25,26
 95 -91 95 -91 95 -40 c 2,27,-1
 95 -16 l 2,28,29
 95 12 95 12 104 24 c 128,-1,30
 113 36 113 36 138 36 c 0,31,32
 175 36 175 36 182.5 75.5 c 128,-1,33
 190 115 190 115 191 294 c 1,34,-1
 191 476 l 1,35,36
 192 592 192 592 205 648.5 c 128,-1,37
 218 705 218 705 259 718 c 0,38,39
 263 719 263 719 263 724.5 c 128,-1,40
 263 730 263 730 259 732 c 0,41,42
 219 745 219 745 206.5 798 c 128,-1,43
 194 851 194 851 193 961 c 1,44,-1
 193 1142 l 2,45,46
 193 1327 193 1327 184.5 1371.5 c 128,-1,47
 176 1416 176 1416 138 1416 c 0,48,49
 113 1416 113 1416 104 1428 c 128,-1,50
 95 1440 95 1440 95 1468 c 2,51,-1
 95 1492 l 2,0,1
EndSplineSet
EndChar

StartChar: asciitilde
Encoding: 126 126 97
Width: 816
GlyphClass: 2
Flags: W
LayerCount: 2
Fore
SplineSet
48 619 m 2,0,1
 48 632 48 632 63.5 644 c 128,-1,2
 79 656 79 656 88.5 656 c 128,-1,3
 98 656 98 656 101.5 655 c 128,-1,4
 105 654 105 654 108 651 c 0,5,6
 113 646 113 646 134.5 611 c 128,-1,7
 156 576 156 576 181 559 c 128,-1,8
 206 542 206 542 246.5 542 c 128,-1,9
 287 542 287 542 412.5 599.5 c 128,-1,10
 538 657 538 657 577.5 657 c 128,-1,11
 617 657 617 657 641.5 649 c 128,-1,12
 666 641 666 641 688 618 c 0,13,14
 715 590 715 590 741.5 545.5 c 128,-1,15
 768 501 768 501 768 480 c 128,-1,16
 768 459 768 459 760.5 449.5 c 128,-1,17
 753 440 753 440 731 437.5 c 128,-1,18
 709 435 709 435 696 458 c 1,19,20
 692 463 692 463 679.5 480.5 c 128,-1,21
 667 498 667 498 662 503 c 128,-1,22
 657 508 657 508 646 518 c 0,23,24
 628 534 628 534 593.5 534 c 128,-1,25
 559 534 559 534 499 505 c 128,-1,26
 439 476 439 476 372.5 447 c 128,-1,27
 306 418 306 418 265 418 c 128,-1,28
 224 418 224 418 201 423 c 128,-1,29
 178 428 178 428 158.5 442.5 c 128,-1,30
 139 457 139 457 127.5 466.5 c 128,-1,31
 116 476 116 476 100 502 c 0,32,33
 83 530 83 530 65.5 562 c 128,-1,34
 48 594 48 594 48 610 c 2,35,-1
 48 619 l 2,0,1
EndSplineSet
EndChar

StartChar: cent
Encoding: 162 162 99
Width: 558
GlyphClass: 2
Flags: W
LayerCount: 2
Fore
SplineSet
501 983 m 2,0,-1
 501 897 l 2,1,2
 501 893 501 893 497.5 888 c 128,-1,3
 494 883 494 883 490 883.5 c 128,-1,4
 486 884 486 884 459 891 c 128,-1,5
 432 898 432 898 419 899 c 1,6,-1
 419 108 l 1,7,8
 447 110 447 110 490 124 c 1,9,10
 493 123 493 123 497.5 116.5 c 128,-1,11
 502 110 502 110 502 106 c 2,12,-1
 502 26 l 2,13,14
 502 6 502 6 462 -2 c 0,15,16
 452 -4 452 -4 446 -5 c 0,17,18
 432 -8 432 -8 419 -8 c 1,19,-1
 419 -134 l 2,20,21
 419 -187 419 -187 397 -187 c 2,22,-1
 376 -187 l 2,23,24
 354 -187 354 -187 354 -134 c 2,25,-1
 354 -11 l 1,26,27
 202 -4 202 -4 138 136 c 0,28,29
 81 260 81 260 81 508 c 0,30,31
 81 854 81 854 201 961 c 0,32,33
 263 1016 263 1016 354 1018 c 1,34,-1
 354 1182 l 2,35,36
 354 1232 354 1232 376 1232 c 2,37,-1
 397 1232 l 2,38,39
 419 1232 419 1232 419 1182 c 2,40,-1
 419 1013 l 1,41,42
 501 1003 501 1003 501 983 c 2,0,-1
354 110 m 1,43,-1
 354 897 l 1,44,45
 260 877 260 877 236 696 c 0,46,47
 226 619 226 619 225.5 489 c 128,-1,48
 225 359 225 359 243.5 270 c 128,-1,49
 262 181 262 181 288 149.5 c 128,-1,50
 314 118 314 118 354 110 c 1,43,-1
EndSplineSet
EndChar

StartChar: sterling
Encoding: 163 163 100
Width: 926
GlyphClass: 2
Flags: W
LayerCount: 2
Fore
SplineSet
214 787 m 1,0,-1
 213 937 l 1,1,2
 214 1140 214 1140 244 1233 c 0,3,4
 277 1332 277 1332 315 1366 c 128,-1,5
 353 1400 353 1400 392 1421 c 0,6,7
 468 1462 468 1462 603 1462 c 128,-1,8
 738 1462 738 1462 835 1407 c 0,9,10
 857 1395 857 1395 867.5 1385.5 c 128,-1,11
 878 1376 878 1376 878 1364.5 c 128,-1,12
 878 1353 878 1353 877 1349 c 2,13,-1
 866 1299 l 1,14,15
 860 1279 860 1279 849.5 1275 c 128,-1,16
 839 1271 839 1271 823 1276 c 0,17,18
 808 1282 808 1282 776 1296 c 0,19,20
 703 1330 703 1330 632.5 1329.5 c 128,-1,21
 562 1329 562 1329 525.5 1321.5 c 128,-1,22
 489 1314 489 1314 462 1293 c 128,-1,23
 435 1272 435 1272 419 1243.5 c 0,24,25
 404 1215 404 1215 394 1165 c 0,26,27
 378 1083 378 1083 378 914 c 2,28,-1
 378 787 l 1,29,-1
 681 787 l 2,30,31
 721 787 721 787 721 743 c 2,32,-1
 721 715 l 2,33,34
 721 672 721 672 681 672 c 2,35,-1
 376 672 l 1,36,-1
 376 165 l 2,37,38
 376 136 376 136 381 128.5 c 128,-1,39
 386 121 386 121 408 121 c 2,40,-1
 836 121 l 2,41,42
 856 121 856 121 864.5 113 c 128,-1,43
 873 105 873 105 873 83 c 2,44,-1
 873 33 l 2,45,46
 873 13 873 13 865 6.5 c 128,-1,47
 857 0 857 0 836 0 c 2,48,-1
 90 0 l 2,49,50
 62 0 62 0 52.5 9 c 128,-1,51
 43 18 43 18 43 43 c 2,52,-1
 43 77 l 2,53,54
 43 102 43 102 52.5 111.5 c 128,-1,55
 62 121 62 121 90 121 c 2,56,-1
 188 121 l 2,57,58
 207 121 207 121 212 125 c 128,-1,59
 217 129 217 129 217 144 c 2,60,-1
 217 629 l 2,61,62
 217 672 217 672 188 672 c 2,63,-1
 85 672 l 2,64,65
 43 672 43 672 43 715 c 2,66,-1
 43 743 l 2,67,68
 43 787 43 787 85 787 c 2,69,-1
 214 787 l 1,0,-1
EndSplineSet
EndChar

StartChar: currency
Encoding: 164 164 101
Width: 1117
GlyphClass: 2
Flags: W
LayerCount: 2
Fore
SplineSet
823 643 m 1,0,1
 703 565 703 565 557 565 c 128,-1,2
 411 565 411 565 294 643 c 1,3,-1
 267 615 l 2,4,5
 233 581 233 581 219.5 581 c 128,-1,6
 206 581 206 581 196 592 c 2,7,-1
 168 620 l 2,8,9
 156 632 156 632 156 646 c 128,-1,10
 156 660 156 660 188 694 c 1,11,-1
 210 716 l 1,12,13
 107 833 107 833 107 1005 c 128,-1,14
 107 1177 107 1177 212 1297 c 1,15,-1
 188 1320 l 1,16,17
 154 1354 154 1354 154 1367.5 c 128,-1,18
 154 1381 154 1381 165 1391 c 2,19,-1
 193 1419 l 2,20,21
 205 1431 205 1431 220 1431 c 128,-1,22
 235 1431 235 1431 267 1399 c 2,23,-1
 297 1370 l 1,24,25
 417 1446 417 1446 559 1446 c 128,-1,26
 701 1446 701 1446 821 1370 c 1,27,-1
 849 1398 l 2,28,29
 882 1431 882 1431 896.5 1431 c 128,-1,30
 911 1431 911 1431 923 1419 c 2,31,-1
 952 1391 l 2,32,33
 962 1380 962 1380 962 1366.5 c 128,-1,34
 962 1353 962 1353 929 1320 c 2,35,-1
 905 1297 l 1,36,37
 1010 1177 1010 1177 1010 1005.5 c 128,-1,38
 1010 834 1010 834 907 716 c 1,39,-1
 929 694 l 2,40,41
 962 661 962 661 962 647 c 128,-1,42
 962 633 962 633 949 621 c 1,43,-1
 921 592 l 2,44,45
 910 581 910 581 896 581 c 128,-1,46
 882 581 882 581 850 615 c 2,47,-1
 823 643 l 1,0,1
558 655 m 128,-1,49
 648 655 648 655 717.5 686 c 0,50,51
 787 716 787 716 826 768 c 0,52,53
 904 871 904 871 904 1001 c 0,54,55
 904 1138 904 1138 826 1240 c 0,56,57
 741 1352 741 1352 558 1352 c 0,58,59
 302 1352 302 1352 230 1128 c 0,60,61
 210 1068 210 1068 210.5 1003 c 128,-1,62
 211 938 211 938 230.5 879 c 128,-1,63
 250 820 250 820 289.5 768.5 c 128,-1,64
 329 717 329 717 398.5 686 c 128,-1,48
 468 655 468 655 558 655 c 128,-1,49
EndSplineSet
EndChar

StartChar: yen
Encoding: 165 165 102
Width: 693
GlyphClass: 2
Flags: W
LayerCount: 2
Fore
SplineSet
429 52 m 2,0,1
 429 0 429 0 405 0 c 2,2,-1
 293 0 l 2,3,4
 269 0 269 0 269 52 c 2,5,-1
 269 347 l 1,6,-1
 128 347 l 2,7,8
 116 347 116 347 111 354 c 128,-1,9
 106 361 106 361 106 384 c 2,10,-1
 106 436 l 2,11,12
 106 459 106 459 111 466 c 128,-1,13
 116 473 116 473 128 473 c 2,14,-1
 261 473 l 1,15,-1
 252 569 l 1,16,-1
 128 569 l 2,17,18
 116 569 116 569 111 576 c 128,-1,19
 106 583 106 583 106 606 c 2,20,-1
 106 658 l 2,21,22
 106 681 106 681 111 688 c 128,-1,23
 116 695 116 695 128 695 c 2,24,-1
 226 695 l 1,25,-1
 42 1379 l 2,26,27
 37 1396 37 1396 37 1417 c 128,-1,28
 37 1438 37 1438 55 1438 c 2,29,-1
 154 1438 l 2,30,31
 184 1438 184 1438 196 1390 c 2,32,-1
 352 741 l 1,33,-1
 362 741 l 1,34,-1
 518 1389 l 1,35,36
 522 1411 522 1411 533.5 1424.5 c 128,-1,37
 545 1438 545 1438 557 1438 c 2,38,-1
 640 1438 l 2,39,40
 658 1438 658 1438 658 1416.5 c 128,-1,41
 658 1395 658 1395 653 1379 c 2,42,-1
 471 695 l 1,43,-1
 565 695 l 2,44,45
 588 695 588 695 588 658 c 2,46,-1
 588 606 l 2,47,48
 588 569 588 569 565 569 c 2,49,-1
 445 569 l 1,50,-1
 436 473 l 1,51,-1
 562 473 l 2,52,53
 584 473 584 473 584 436 c 2,54,-1
 584 384 l 2,55,56
 584 347 584 347 562 347 c 2,57,-1
 429 347 l 1,58,-1
 429 52 l 2,0,1
EndSplineSet
EndChar

StartChar: brokenbar
Encoding: 166 166 103
Width: 406
GlyphClass: 2
Flags: W
LayerCount: 2
Fore
SplineSet
181 -108 m 2,0,1
 157 -108 157 -108 157 -52 c 2,2,-1
 157 525 l 2,3,4
 157 581 157 581 181 581 c 2,5,-1
 224 581 l 2,6,7
 249 581 249 581 249 525 c 2,8,-1
 249 -52 l 2,9,10
 249 -108 249 -108 224 -108 c 2,11,-1
 181 -108 l 2,0,1
181 843 m 2,12,13
 157 843 157 843 157 899 c 2,14,-1
 157 1479 l 2,15,16
 157 1535 157 1535 181 1535 c 2,17,-1
 224 1535 l 2,18,19
 249 1535 249 1535 249 1479 c 2,20,-1
 249 899 l 2,21,22
 249 843 249 843 224 843 c 2,23,-1
 181 843 l 2,12,13
EndSplineSet
EndChar

StartChar: section
Encoding: 167 167 104
Width: 789
GlyphClass: 2
Flags: W
LayerCount: 2
Fore
SplineSet
399 -14 m 0,0,1
 236 -14 236 -14 120 89 c 0,2,3
 109 98 109 98 109 123 c 1,4,-1
 125 169 l 2,5,6
 129 182 129 182 141 189.5 c 128,-1,7
 153 197 153 197 161 192 c 1,8,9
 222 141 222 141 278.5 117.5 c 128,-1,10
 335 94 335 94 412.5 94 c 128,-1,11
 490 94 490 94 531.5 144 c 128,-1,12
 573 194 573 194 573 269.5 c 128,-1,13
 573 345 573 345 530 387 c 128,-1,14
 487 429 487 429 419.5 451.5 c 128,-1,15
 352 474 352 474 325.5 484.5 c 128,-1,16
 299 495 299 495 263.5 512 c 128,-1,17
 228 529 228 529 207.5 549 c 0,18,19
 186 570 186 570 166 598 c 0,20,21
 128 652 128 652 128 752 c 0,22,23
 128 887 128 887 219 956 c 1,24,25
 128 1037 128 1037 128 1174 c 0,26,27
 128 1384 128 1384 303 1437 c 0,28,29
 348 1451 348 1451 410 1451 c 0,30,31
 536 1451 536 1451 634 1372 c 0,32,33
 647 1362 647 1362 647 1341 c 1,34,-1
 628 1291 l 2,35,36
 624 1280 624 1280 612 1275 c 128,-1,37
 600 1270 600 1270 593 1275 c 0,38,39
 547 1311 547 1311 511 1326 c 128,-1,40
 475 1341 475 1341 413 1341 c 0,41,42
 249 1341 249 1341 249 1188 c 0,43,44
 249 1120 249 1120 287 1084.5 c 128,-1,45
 325 1049 325 1049 391 1026.5 c 128,-1,46
 457 1004 457 1004 481 995 c 128,-1,47
 505 986 505 986 538 971 c 128,-1,48
 571 956 571 956 590 941 c 128,-1,49
 609 926 609 926 631 902.5 c 0,50,51
 652 880 652 880 664 852 c 0,52,53
 690 789 690 789 691 703 c 0,54,55
 691 580 691 580 606 500 c 1,56,57
 691 413 691 413 691 280 c 0,58,59
 691 -14 691 -14 399 -14 c 0,0,1
527 557 m 1,60,61
 550 570 550 570 569 613.5 c 128,-1,62
 588 657 588 657 588 714.5 c 128,-1,63
 588 772 588 772 542 811 c 128,-1,64
 496 850 496 850 397 881 c 1,65,66
 333 895 333 895 300 908 c 1,67,68
 235 867 235 867 235 768 c 0,69,70
 235 705 235 705 279 667.5 c 128,-1,71
 323 630 323 630 386.5 607.5 c 128,-1,72
 450 585 450 585 527 557 c 1,60,61
EndSplineSet
EndChar

StartChar: dieresis
Encoding: 168 168 105
Width: 298
GlyphClass: 2
Flags: W
LayerCount: 2
Fore
SplineSet
149 57 m 2,0,1
 149 0 149 0 122 0 c 2,2,-1
 67 0 l 2,3,4
 40 0 40 0 40 57 c 2,5,-1
 40 114 l 2,6,7
 40 171 40 171 67 171 c 2,8,-1
 122 171 l 2,9,10
 149 171 149 171 149 114 c 2,11,-1
 149 57 l 2,0,1
372 57 m 2,12,13
 372 0 372 0 345 0 c 2,14,-1
 290 0 l 2,15,16
 264 0 264 0 264 57 c 2,17,-1
 264 114 l 2,18,19
 264 171 264 171 290 171 c 2,20,-1
 345 171 l 2,21,22
 372 171 372 171 372 114 c 2,23,-1
 372 57 l 2,12,13
EndSplineSet
EndChar

StartChar: copyright
Encoding: 169 169 106
Width: 1401
GlyphClass: 2
Flags: W
LayerCount: 2
Fore
SplineSet
717 338 m 0,0,1
 587 338 587 338 500 437 c 128,-1,2
 413 536 413 536 413 728 c 0,3,4
 412 1012 412 1012 602 1092 c 0,5,6
 652 1114 652 1114 708 1114 c 0,7,8
 821 1114 821 1114 896 1051 c 0,9,10
 905 1044 905 1044 905 1024 c 128,-1,11
 905 1004 905 1004 896 985.5 c 128,-1,12
 887 967 887 967 876 967 c 0,13,14
 874 967 874 967 870 969 c 0,15,16
 790 1022 790 1022 727 1022 c 0,17,18
 630 1022 630 1022 572.5 945.5 c 128,-1,19
 515 869 515 869 515 722.5 c 128,-1,20
 515 576 515 576 574.5 503.5 c 128,-1,21
 634 431 634 431 726 431 c 0,22,23
 785 431 785 431 821 450 c 0,24,25
 864 473 864 473 873 473 c 128,-1,26
 882 473 882 473 892.5 454.5 c 128,-1,27
 903 436 903 436 903 414.5 c 128,-1,28
 903 393 903 393 889 386 c 0,29,30
 839 359 839 359 804.5 348.5 c 128,-1,31
 770 338 770 338 717 338 c 0,0,1
703 80 m 128,-1,33
 810 80 810 80 897 117 c 128,-1,34
 984 154 984 154 1040.5 216 c 128,-1,35
 1097 278 1097 278 1135 362 c 0,36,37
 1206 518 1206 518 1206 716 c 0,38,39
 1206 1044 1206 1044 1040 1224 c 0,40,41
 916 1360 916 1360 703 1359 c 1,42,43
 397 1359 397 1359 270 1078 c 0,44,45
 199 921 199 921 199 716 c 0,46,47
 199 518 199 518 270 362 c 0,48,49
 351 185 351 185 509 117 c 0,50,32
 596 80 596 80 703 80 c 128,-1,33
700 -15 m 0,51,52
 578 -15 578 -15 477 24.5 c 128,-1,53
 376 64 376 64 305.5 132 c 128,-1,54
 235 200 235 200 186.5 293.5 c 128,-1,55
 138 387 138 387 115.5 494.5 c 128,-1,56
 93 602 93 602 93 720 c 128,-1,57
 93 838 93 838 115.5 945.5 c 128,-1,58
 138 1053 138 1053 186.5 1146.5 c 0,59,60
 236 1240 236 1240 306 1308 c 0,61,62
 458 1456 458 1456 700 1456 c 0,63,64
 1054 1456 1054 1456 1214 1146 c 0,65,66
 1308 966 1308 966 1308 720 c 0,67,68
 1308 338 1308 338 1096 132 c 0,69,70
 944 -15 944 -15 700 -15 c 0,51,52
EndSplineSet
EndChar

StartChar: ordfeminine
Encoding: 170 170 107
Width: 699
GlyphClass: 2
Flags: W
LayerCount: 2
Fore
SplineSet
407.5 655 m 128,-1,1
 366 614 366 614 289.5 614 c 128,-1,2
 213 614 213 614 171.5 666 c 128,-1,3
 130 718 130 718 130 796.5 c 128,-1,4
 130 875 130 875 146 923 c 128,-1,5
 162 971 162 971 188 1000.5 c 128,-1,6
 214 1030 214 1030 245.5 1050.5 c 128,-1,7
 277 1071 277 1071 311 1081 c 128,-1,8
 345 1091 345 1091 372.5 1096.5 c 128,-1,9
 400 1102 400 1102 422 1106 c 128,-1,10
 444 1110 444 1110 449 1114 c 1,11,-1
 449 1158 l 2,12,13
 449 1251 449 1251 428.5 1299.5 c 128,-1,14
 408 1348 408 1348 355.5 1348 c 128,-1,15
 303 1348 303 1348 279.5 1320.5 c 128,-1,16
 256 1293 256 1293 238 1233 c 0,17,18
 230 1209 230 1209 216 1212 c 0,19,20
 152 1228 152 1228 149 1236 c 1,21,22
 146 1239 146 1239 146 1247 c 0,23,24
 146 1262 146 1262 156 1300 c 0,25,26
 172 1356 172 1356 219.5 1397 c 128,-1,27
 267 1438 267 1438 363 1438 c 128,-1,28
 459 1438 459 1438 508.5 1364.5 c 128,-1,29
 558 1291 558 1291 558 1120 c 2,30,-1
 558 663 l 2,31,32
 558 624 558 624 541 624 c 2,33,-1
 522 624 l 2,34,35
 507 624 507 624 500 656 c 0,36,37
 478 746 478 746 475 774 c 0,38,39
 473 785 473 785 469 774 c 1,40,0
 449 696 449 696 407.5 655 c 128,-1,1
316 700 m 0,41,42
 379 700 379 700 415 781.5 c 128,-1,43
 451 863 451 863 451 950.5 c 128,-1,44
 451 1038 451 1038 448 1038 c 0,45,46
 416 1038 416 1038 410 1032 c 1,47,48
 314 1010 314 1010 272 957.5 c 128,-1,49
 230 905 230 905 230 823 c 0,50,51
 230 700 230 700 316 700 c 0,41,42
EndSplineSet
EndChar

StartChar: guillemotleft
Encoding: 171 171 108
Width: 778
GlyphClass: 2
Flags: W
LayerCount: 2
Fore
SplineSet
388 381 m 1,0,1
 402 368 402 368 402 304 c 128,-1,2
 402 240 402 240 395 240 c 1,3,4
 394 225 394 225 391 225 c 128,-1,5
 388 225 388 225 388 225.5 c 128,-1,6
 388 226 388 226 387 226 c 2,7,-1
 253 360 l 1,8,9
 91 542 91 542 91 558 c 1,10,11
 77 572 77 572 77 653.5 c 128,-1,12
 77 735 77 735 88 745 c 1,13,14
 88 761 88 761 227 900 c 0,15,16
 228 902 228 902 304 982 c 128,-1,17
 380 1062 380 1062 381 1062 c 2,18,-1
 382 1062 l 1,19,-1
 384 1063 l 1,20,21
 393 1063 393 1063 396 1046 c 1,22,23
 402 1046 402 1046 402 983 c 128,-1,24
 402 920 402 920 391 903 c 1,25,26
 392 882 392 882 314 810 c 0,27,28
 299 796 299 796 233 724 c 128,-1,29
 167 652 167 652 166 647.5 c 128,-1,30
 165 643 165 643 166 638.5 c 128,-1,31
 167 634 167 634 206 596.5 c 128,-1,32
 245 559 245 559 247 558 c 1,33,34
 248 556 248 556 284 515 c 0,35,36
 388 399 388 399 388 381 c 1,0,1
698 381 m 1,37,38
 711 369 711 369 711 304.5 c 128,-1,39
 711 240 711 240 704 240 c 1,40,41
 703 225 703 225 697 225 c 2,42,-1
 696 225 l 2,43,44
 694 225 694 225 662 258.5 c 128,-1,45
 630 292 630 292 611 311 c 128,-1,46
 592 330 592 330 578 345 c 2,47,-1
 563 360 l 1,48,49
 401 542 401 542 401 558 c 1,50,51
 387 571 387 571 387 653 c 128,-1,52
 387 735 387 735 397 745 c 1,53,54
 397 761 397 761 536 900 c 1,55,-1
 575 941 l 2,56,57
 614 982 614 982 652 1022 c 2,58,-1
 691 1062 l 1,59,-1
 692 1062 l 1,60,-1
 694 1063 l 1,61,62
 702 1063 702 1063 705 1046 c 1,63,64
 711 1046 711 1046 711 981.5 c 128,-1,65
 711 917 711 917 700 903 c 1,66,67
 700 887 700 887 672 859 c 128,-1,68
 644 831 644 831 628 815.5 c 128,-1,69
 612 800 612 800 610 798.5 c 128,-1,70
 608 797 608 797 542 724.5 c 128,-1,71
 476 652 476 652 475 647 c 128,-1,72
 474 642 474 642 475.5 638 c 128,-1,73
 477 634 477 634 515.5 596.5 c 128,-1,74
 554 559 554 559 555.5 558 c 128,-1,75
 557 557 557 557 581 530 c 128,-1,76
 605 503 605 503 630 474 c 0,77,78
 698 395 698 395 698 381 c 1,37,38
EndSplineSet
EndChar

StartChar: logicalnot
Encoding: 172 172 109
Width: 1012
GlyphClass: 2
Flags: W
LayerCount: 2
Fore
SplineSet
777 261 m 2,0,1
 731 261 731 261 731 320 c 2,2,-1
 731 545 l 2,3,4
 731 574 731 574 706 574 c 2,5,-1
 176 574 l 2,6,7
 131 574 131 574 131 621 c 2,8,-1
 131 665 l 2,9,10
 131 713 131 713 176 713 c 2,11,-1
 836 713 l 2,12,13
 888 713 888 713 888 662 c 2,14,-1
 888 320 l 2,15,16
 888 261 888 261 843 261 c 2,17,-1
 777 261 l 2,0,1
EndSplineSet
EndChar

StartChar: uni00AD
Encoding: 173 173 110
Width: 783
GlyphClass: 2
Flags: W
LayerCount: 2
Fore
SplineSet
220 489 m 2,0,1
 188 489 188 489 188 525 c 2,2,-1
 188 549 l 2,3,4
 188 586 188 586 220 586 c 2,5,-1
 579 586 l 2,6,7
 612 586 612 586 612 550 c 2,8,-1
 612 526 l 2,9,10
 612 489 612 489 579 489 c 2,11,-1
 220 489 l 2,0,1
EndSplineSet
EndChar

StartChar: registered
Encoding: 174 174 111
Width: 1401
GlyphClass: 2
Flags: W
LayerCount: 2
Fore
SplineSet
505 346 m 2,0,1
 488 346 488 346 488 376 c 2,2,-1
 488 1080 l 2,3,4
 488 1111 488 1111 505 1111 c 2,5,-1
 690 1111 l 2,6,7
 837 1111 837 1111 880 1063 c 0,8,9
 926 1012 926 1012 926 906 c 0,10,11
 926 754 926 754 828 731 c 0,12,13
 825 731 825 731 825 728 c 1,14,-1
 828 726 l 1,15,16
 925 689 925 689 928 538 c 1,17,18
 930 512 930 512 930 375 c 0,19,20
 930 346 930 346 918 346 c 2,21,-1
 857 346 l 2,22,23
 842 346 842 346 841.5 380.5 c 128,-1,24
 841 415 841 415 835.5 507 c 128,-1,25
 830 599 830 599 827 605 c 1,26,27
 821 660 821 660 793.5 677.5 c 128,-1,28
 766 695 766 695 710 695 c 2,29,-1
 586 695 l 2,30,31
 580 695 580 695 580 682 c 2,32,-1
 580 376 l 2,33,34
 580 346 580 346 564 346 c 2,35,-1
 505 346 l 2,0,1
585 774 m 2,36,-1
 726 774 l 2,37,38
 788 774 788 774 813 801.5 c 128,-1,39
 838 829 838 829 838 908.5 c 128,-1,40
 838 988 838 988 806 1011.5 c 128,-1,41
 774 1035 774 1035 699 1035 c 2,42,-1
 586 1035 l 2,43,44
 580 1035 580 1035 580 1024 c 2,45,-1
 580 785 l 2,46,47
 580 774 580 774 585 774 c 2,36,-1
703 80 m 128,-1,49
 810 80 810 80 897 117 c 128,-1,50
 984 154 984 154 1040.5 216 c 128,-1,51
 1097 278 1097 278 1135 362 c 0,52,53
 1206 518 1206 518 1206 716 c 0,54,55
 1206 1044 1206 1044 1040 1224 c 0,56,57
 916 1360 916 1360 703 1359 c 1,58,59
 397 1359 397 1359 270 1078 c 0,60,61
 199 921 199 921 199 716 c 0,62,63
 199 518 199 518 270 362 c 0,64,65
 351 185 351 185 509 117 c 0,66,48
 596 80 596 80 703 80 c 128,-1,49
700 -15 m 0,67,68
 578 -15 578 -15 477 24.5 c 128,-1,69
 376 64 376 64 305.5 132 c 128,-1,70
 235 200 235 200 186.5 293.5 c 128,-1,71
 138 387 138 387 115.5 494.5 c 128,-1,72
 93 602 93 602 93 720 c 128,-1,73
 93 838 93 838 115.5 945.5 c 128,-1,74
 138 1053 138 1053 186.5 1146.5 c 0,75,76
 236 1240 236 1240 306 1308 c 0,77,78
 458 1456 458 1456 700 1456 c 0,79,80
 1054 1456 1054 1456 1214 1146 c 0,81,82
 1308 966 1308 966 1308 720 c 0,83,84
 1308 338 1308 338 1096 132 c 0,85,86
 944 -15 944 -15 700 -15 c 0,67,68
EndSplineSet
EndChar

StartChar: macron
Encoding: 175 175 112
Width: 783
GlyphClass: 2
Flags: W
LayerCount: 2
Fore
SplineSet
220 489 m 2,0,1
 188 489 188 489 188 525 c 2,2,-1
 188 549 l 2,3,4
 188 586 188 586 220 586 c 2,5,-1
 579 586 l 2,6,7
 612 586 612 586 612 550 c 2,8,-1
 612 526 l 2,9,10
 612 489 612 489 579 489 c 2,11,-1
 220 489 l 2,0,1
EndSplineSet
EndChar

StartChar: degree
Encoding: 176 176 113
Width: 1061
GlyphClass: 2
Flags: W
LayerCount: 2
Fore
SplineSet
462.5 1166 m 128,-1,1
 495 1137 495 1137 538.5 1137 c 128,-1,2
 582 1137 582 1137 614 1166 c 128,-1,3
 646 1195 646 1195 646 1258 c 128,-1,4
 646 1321 646 1321 614 1348 c 128,-1,5
 582 1375 582 1375 538 1375 c 128,-1,6
 494 1375 494 1375 462 1348.5 c 128,-1,7
 430 1322 430 1322 430 1258.5 c 128,-1,0
 430 1195 430 1195 462.5 1166 c 128,-1,1
539 1075 m 128,-1,9
 510 1075 510 1075 480 1084 c 128,-1,10
 450 1093 450 1093 421 1112 c 0,11,12
 355 1155 355 1155 355 1256 c 0,13,14
 355 1396 355 1396 477 1430 c 0,15,16
 507 1438 507 1438 539 1438 c 128,-1,17
 571 1438 571 1438 600 1429.5 c 128,-1,18
 629 1421 629 1421 658 1402 c 0,19,20
 721 1361 721 1361 721 1256 c 0,21,22
 721 1122 721 1122 597 1084 c 0,23,8
 568 1075 568 1075 539 1075 c 128,-1,9
EndSplineSet
EndChar

StartChar: plusminus
Encoding: 177 177 114
Width: 801
GlyphClass: 2
Flags: W
LayerCount: 2
Fore
SplineSet
483 639 m 2,0,1
 466 639 466 639 466 617 c 2,2,-1
 466 414 l 2,3,4
 466 386 466 386 458.5 377.5 c 128,-1,5
 451 369 451 369 435 369 c 2,6,-1
 380 369 l 2,7,8
 363 369 363 369 355 377.5 c 128,-1,9
 347 386 347 386 347 414 c 2,10,-1
 347 617 l 2,11,12
 347 639 347 639 332 639 c 2,13,-1
 149 639 l 2,14,15
 118 639 118 639 118 678 c 2,16,-1
 118 703 l 2,17,18
 118 743 118 743 149 743 c 2,19,-1
 332 743 l 2,20,21
 347 743 347 743 347 765 c 2,22,-1
 347 960 l 2,23,24
 347 988 347 988 355 996.5 c 128,-1,25
 363 1005 363 1005 380 1005 c 2,26,-1
 435 1005 l 2,27,28
 451 1005 451 1005 458.5 996.5 c 128,-1,29
 466 988 466 988 466 960 c 2,30,-1
 466 765 l 2,31,32
 466 743 466 743 483 743 c 2,33,-1
 663 743 l 2,34,35
 694 743 694 743 694 703 c 2,36,-1
 694 678 l 2,37,38
 694 639 694 639 663 639 c 2,39,-1
 483 639 l 2,0,1
693 165 m 2,40,41
 693 126 693 126 662 126 c 2,42,-1
 149 126 l 2,43,44
 118 126 118 126 118 165 c 2,45,-1
 118 190 l 2,46,47
 118 230 118 230 149 230 c 2,48,-1
 662 230 l 2,49,50
 693 230 693 230 693 190 c 2,51,-1
 693 165 l 2,40,41
EndSplineSet
EndChar

StartChar: acute
Encoding: 180 180 115
Width: 596
GlyphClass: 2
Flags: W
LayerCount: 2
Fore
SplineSet
369 1168 m 2,0,1
 354 1168 354 1168 354 1194.5 c 128,-1,2
 354 1221 354 1221 355 1235 c 2,3,-1
 376 1554 l 2,4,5
 379 1609 379 1609 402 1609 c 2,6,-1
 475 1609 l 2,7,8
 485 1609 485 1609 485 1588.5 c 128,-1,9
 485 1568 485 1568 481 1544 c 2,10,-1
 418 1207 l 2,11,12
 411 1168 411 1168 399 1168 c 2,13,-1
 369 1168 l 2,0,1
EndSplineSet
EndChar

StartChar: paragraph
Encoding: 182 182 116
Width: 1134
GlyphClass: 2
Flags: W
LayerCount: 2
Fore
SplineSet
827 800 m 2,0,1
 827 821 827 821 808 821 c 2,2,-1
 671 821 l 1,3,-1
 671 71 l 2,4,5
 671 -1 671 -1 623 -1 c 2,6,-1
 593 -1 l 2,7,8
 544 -1 544 -1 544 71 c 2,9,-1
 544 821 l 1,10,-1
 521 821 l 2,11,12
 380 821 380 821 274 889 c 0,13,14
 220 924 220 924 187 986.5 c 128,-1,15
 154 1049 154 1049 154 1131 c 0,16,17
 154 1296 154 1296 262 1367 c 128,-1,18
 370 1438 370 1438 585 1438 c 0,19,20
 904 1438 904 1438 936 1398 c 0,21,22
 950 1382 950 1382 950 1336 c 2,23,-1
 950 71 l 2,24,25
 950 -1 950 -1 901 -1 c 2,26,-1
 876 -1 l 2,27,28
 827 -1 827 -1 827 71 c 2,29,-1
 827 800 l 2,0,1
EndSplineSet
EndChar

StartChar: cedilla
Encoding: 184 184 117
Width: 457
GlyphClass: 2
Flags: W
LayerCount: 2
Fore
SplineSet
256 -210 m 0,0,1
 240 -210 240 -210 226 -210 c 0,2,3
 222 -210 222 -210 222 -200 c 2,4,-1
 222 -145 l 2,5,6
 222 -128 222 -128 232 -128 c 2,7,-1
 283 -128 l 2,8,9
 333 -128 333 -128 370.5 -202 c 128,-1,10
 408 -276 408 -276 408 -380 c 0,11,12
 408 -598 408 -598 257 -598 c 0,13,14
 195 -598 195 -598 155 -556 c 128,-1,15
 115 -514 115 -514 115 -429.5 c 128,-1,16
 115 -345 115 -345 141 -345 c 2,17,-1
 183 -345 l 2,18,19
 202 -345 202 -345 202 -378 c 1,20,-1
 198 -431 l 1,21,22
 198 -472 198 -472 214.5 -498.5 c 128,-1,23
 231 -525 231 -525 262 -525 c 0,24,25
 325 -525 325 -525 325 -379 c 0,26,27
 325 -321 325 -321 302.5 -265.5 c 128,-1,28
 280 -210 280 -210 256 -210 c 0,0,1
EndSplineSet
EndChar

StartChar: ordmasculine
Encoding: 186 186 118
Width: 739
GlyphClass: 2
Flags: W
LayerCount: 2
Fore
SplineSet
434.5 621.5 m 128,-1,1
 407 615 407 615 374 615 c 128,-1,2
 341 615 341 615 317.5 620 c 128,-1,3
 294 625 294 625 265.5 638.5 c 128,-1,4
 237 652 237 652 216 681 c 0,5,6
 194 710 194 710 176 754 c 0,7,8
 138 843 138 843 138.5 989.5 c 128,-1,9
 139 1136 139 1136 154 1215 c 128,-1,10
 169 1294 169 1294 190.5 1336 c 128,-1,11
 212 1378 212 1378 246 1402 c 0,12,13
 296 1438 296 1438 351.5 1438 c 128,-1,14
 407 1438 407 1438 434.5 1432 c 128,-1,15
 462 1426 462 1426 495 1402 c 128,-1,16
 528 1378 528 1378 549.5 1336 c 128,-1,17
 571 1294 571 1294 585.5 1215 c 128,-1,18
 600 1136 600 1136 600 1028 c 128,-1,19
 600 920 600 920 585.5 841.5 c 128,-1,20
 571 763 571 763 549.5 720.5 c 128,-1,21
 528 678 528 678 495 653 c 128,-1,0
 462 628 462 628 434.5 621.5 c 128,-1,1
309.5 726.5 m 128,-1,23
 332 705 332 705 364.5 705 c 128,-1,24
 397 705 397 705 416 717 c 0,25,26
 435 730 435 730 452 762 c 0,27,28
 485 825 485 825 485 977.5 c 128,-1,29
 485 1130 485 1130 476.5 1196 c 128,-1,30
 468 1262 468 1262 451 1294 c 128,-1,31
 434 1326 434 1326 415.5 1337 c 128,-1,32
 397 1348 397 1348 370 1348 c 128,-1,33
 343 1348 343 1348 324.5 1337 c 128,-1,34
 306 1326 306 1326 289 1294 c 0,35,36
 255 1230 255 1230 255 1062.5 c 128,-1,37
 255 895 255 895 271 821.5 c 128,-1,22
 287 748 287 748 309.5 726.5 c 128,-1,23
EndSplineSet
EndChar

StartChar: guillemotright
Encoding: 187 187 119
Width: 778
GlyphClass: 2
Flags: W
LayerCount: 2
Fore
SplineSet
89 223 m 0,0,1
 77 223 77 223 77 261 c 2,2,-1
 77 341 l 2,3,4
 77 395 77 395 101 423 c 1,5,-1
 310 620 l 2,6,7
 314 624 314 624 314 634 c 128,-1,8
 314 644 314 644 310 648 c 2,9,-1
 101 860 l 1,10,11
 77 887 77 887 77 945 c 2,12,-1
 77 1025 l 2,13,14
 77 1067 77 1067 90 1067 c 0,15,16
 95 1067 95 1067 101 1059 c 1,17,-1
 377 772 l 2,18,19
 401 746 401 746 401 687 c 2,20,-1
 402 584 l 2,21,22
 402 525 402 525 377 501 c 2,23,-1
 100 231 l 1,24,25
 90 223 90 223 89 223 c 0,0,1
398 223 m 0,26,27
 387 223 387 223 387 261 c 2,28,-1
 387 341 l 2,29,30
 387 396 387 396 411 423 c 1,31,-1
 619 620 l 2,32,33
 623 624 623 624 623 634 c 128,-1,34
 623 644 623 644 620 648 c 2,35,-1
 410 860 l 1,36,37
 387 887 387 887 387 945 c 2,38,-1
 387 1025 l 2,39,40
 387 1067 387 1067 399 1067 c 0,41,42
 404 1067 404 1067 410 1059 c 1,43,-1
 687 772 l 2,44,45
 711 746 711 746 711 687 c 2,46,-1
 711 584 l 2,47,48
 711 524 711 524 687 501 c 2,49,-1
 410 231 l 1,50,51
 400 223 400 223 398 223 c 0,26,27
EndSplineSet
EndChar

StartChar: onequarter
Encoding: 188 188 120
Width: 1926
GlyphClass: 2
Flags: W
LayerCount: 2
Fore
SplineSet
375 288 m 2,0,1
 357 288 357 288 357 342 c 2,2,-1
 357 1262 l 2,3,4
 357 1287 357 1287 346 1283 c 1,5,6
 277 1266 277 1266 272 1265 c 0,7,8
 258 1262 258 1262 258 1296 c 2,9,-1
 258 1358 l 2,10,11
 258 1383 258 1383 277 1387 c 2,12,-1
 459 1435 l 2,13,14
 467 1437 467 1437 470 1437 c 0,15,16
 486 1437 486 1437 486 1403 c 2,17,-1
 486 342 l 2,18,19
 486 288 486 288 466 288 c 2,20,-1
 375 288 l 2,0,1
981 1587 m 1,21,-1
 740 150 l 1,22,23
 737 123 737 123 726 123 c 2,24,-1
 665 124 l 2,25,26
 658 124 658 124 658 143 c 1,27,-1
 900 1579 l 1,28,29
 903 1606 903 1606 915 1606 c 2,30,-1
 974 1606 l 2,31,32
 981 1606 981 1606 981 1587 c 1,21,-1
1496 288 m 2,33,34
 1466 288 1466 288 1466 333 c 2,35,-1
 1466 516 l 1,36,-1
 1157 516 l 2,37,38
 1138 516 1138 516 1125.5 527.5 c 128,-1,39
 1113 539 1113 539 1113 552.5 c 128,-1,40
 1113 566 1113 566 1114 570 c 2,41,-1
 1226 1385 l 2,42,43
 1231 1415 1231 1415 1236.5 1426.5 c 128,-1,44
 1242 1438 1242 1438 1256 1438 c 2,45,-1
 1306 1438 l 2,46,47
 1331 1438 1331 1438 1331 1399 c 0,48,49
 1331 1390 1331 1390 1330 1385 c 2,50,-1
 1246 652 l 2,51,52
 1243 631 1243 631 1261 631 c 2,53,-1
 1466 631 l 1,54,-1
 1466 1392 l 2,55,56
 1466 1438 1466 1438 1496 1438 c 2,57,-1
 1552 1438 l 2,58,59
 1581 1438 1581 1438 1581 1392 c 2,60,-1
 1581 631 l 1,61,-1
 1696 631 l 2,62,63
 1717 631 1717 631 1725.5 622 c 128,-1,64
 1734 613 1734 613 1734 591 c 2,65,-1
 1734 555 l 2,66,67
 1734 533 1734 533 1725.5 524.5 c 128,-1,68
 1717 516 1717 516 1696 516 c 2,69,-1
 1581 516 l 1,70,-1
 1581 333 l 2,71,72
 1581 288 1581 288 1552 288 c 2,73,-1
 1496 288 l 2,33,34
EndSplineSet
EndChar

StartChar: onehalf
Encoding: 189 189 121
Width: 1788
GlyphClass: 2
Flags: W
LayerCount: 2
Fore
SplineSet
356 291 m 2,0,1
 338 291 338 291 338 345 c 2,2,-1
 338 1265 l 2,3,4
 338 1291 338 1291 326 1286 c 1,5,6
 258 1269 258 1269 253 1268 c 0,7,8
 239 1265 239 1265 239 1299 c 2,9,-1
 239 1361 l 2,10,11
 239 1386 239 1386 258 1390 c 2,12,-1
 440 1438 l 2,13,14
 448 1440 448 1440 451 1440 c 0,15,16
 466 1440 466 1440 466 1406 c 2,17,-1
 466 345 l 2,18,19
 466 291 466 291 447 291 c 2,20,-1
 356 291 l 2,0,1
962 1590 m 1,21,-1
 721 153 l 1,22,23
 718 126 718 126 706 126 c 2,24,-1
 646 127 l 2,25,26
 639 127 639 127 639 146 c 1,27,-1
 881 1582 l 1,28,29
 884 1609 884 1609 896 1609 c 2,30,-1
 955 1609 l 2,31,32
 962 1609 962 1609 962 1590 c 1,21,-1
1508 291 m 2,33,-1
 1113 291 l 2,34,35
 1093 290 1093 290 1093 336 c 0,36,37
 1093 584 1093 584 1222 776 c 0,38,39
 1271 848 1271 848 1319 914 c 0,40,41
 1434 1071 1434 1071 1434 1183 c 0,42,43
 1434 1261 1434 1261 1398 1304 c 128,-1,44
 1362 1347 1362 1347 1314.5 1347 c 128,-1,45
 1267 1347 1267 1347 1236 1341 c 128,-1,46
 1205 1335 1205 1335 1187.5 1329 c 128,-1,47
 1170 1323 1170 1323 1144 1312 c 128,-1,48
 1118 1301 1118 1301 1107 1297 c 1,49,50
 1097 1287 1097 1287 1095 1305 c 1,51,52
 1079 1346 1079 1346 1079 1368 c 128,-1,53
 1079 1390 1079 1390 1086 1399 c 1,54,55
 1184 1453 1184 1453 1302 1453 c 0,56,57
 1406 1453 1406 1453 1478 1400 c 0,58,59
 1560 1340 1560 1340 1560 1191 c 0,60,61
 1560 1054 1560 1054 1455 907 c 0,62,63
 1410 844 1410 844 1364 778 c 0,64,65
 1248 615 1248 615 1222 431 c 1,66,67
 1220 426 1220 426 1223 406.5 c 128,-1,68
 1226 387 1226 387 1230 387 c 2,69,-1
 1509 387 l 2,70,71
 1523 387 1523 387 1523 353 c 2,72,-1
 1523 324 l 2,73,74
 1523 291 1523 291 1508 291 c 2,33,-1
EndSplineSet
EndChar

StartChar: threequarters
Encoding: 190 190 122
Width: 2102
GlyphClass: 2
Flags: W
LayerCount: 2
Fore
SplineSet
279 330 m 0,0,1
 268 339 268 339 268 380.5 c 128,-1,2
 268 422 268 422 276 422 c 1,3,4
 276 440 276 440 279 438 c 0,5,6
 339 398 339 398 426 398 c 0,7,8
 512 398 512 398 552 452 c 0,9,10
 591 505 591 505 592 620 c 0,11,12
 592 739 592 739 548 787 c 0,13,14
 506 835 506 835 411 835 c 0,15,16
 391 835 391 835 391 860 c 2,17,-1
 391 926 l 2,18,19
 391 946 391 946 411 946 c 0,20,21
 425 946 425 946 438 946 c 0,22,23
 583 950 583 950 583 1148 c 0,24,25
 583 1263 583 1263 547 1312 c 128,-1,26
 511 1361 511 1361 429.5 1361 c 128,-1,27
 348 1361 348 1361 280 1321 c 1,28,29
 274 1316 274 1316 273 1328 c 2,30,-1
 272 1334 l 1,31,32
 270 1334 270 1334 267 1355.5 c 128,-1,33
 264 1377 264 1377 264 1395.5 c 128,-1,34
 264 1414 264 1414 277 1423 c 0,35,36
 348 1466 348 1466 455 1466 c 0,37,38
 700 1466 700 1466 700 1154 c 0,39,40
 700 932 700 932 542 890 c 1,41,42
 707 857 707 857 707 597 c 0,43,44
 707 362 707 362 541 308 c 0,45,46
 496 294 496 294 413.5 293.5 c 128,-1,47
 331 293 331 293 279 330 c 0,0,1
846 143 m 1,48,-1
 1088 1579 l 1,49,50
 1091 1606 1091 1606 1103 1606 c 2,51,-1
 1163 1606 l 2,52,53
 1169 1606 1169 1606 1169 1594 c 128,-1,54
 1169 1582 1169 1582 1168 1579 c 2,55,-1
 928 150 l 1,56,57
 925 123 925 123 914 123 c 2,58,-1
 853 124 l 2,59,60
 846 124 846 124 846 143 c 1,48,-1
1853 631 m 2,61,62
 1892 631 1892 631 1892 591 c 2,63,-1
 1892 555 l 2,64,65
 1892 533 1892 533 1883 524.5 c 128,-1,66
 1874 516 1874 516 1853 516 c 2,67,-1
 1738 516 l 1,68,-1
 1738 333 l 2,69,70
 1738 288 1738 288 1709 288 c 2,71,-1
 1653 288 l 2,72,73
 1624 288 1624 288 1624 333 c 2,74,-1
 1624 516 l 1,75,-1
 1314 516 l 2,76,77
 1295 516 1295 516 1282.5 527.5 c 128,-1,78
 1270 539 1270 539 1270 552.5 c 128,-1,79
 1270 566 1270 566 1271 570 c 2,80,-1
 1383 1385 l 2,81,82
 1388 1415 1388 1415 1393.5 1426.5 c 128,-1,83
 1399 1438 1399 1438 1413 1438 c 2,84,-1
 1463 1438 l 2,85,86
 1489 1438 1489 1438 1489 1398 c 0,87,88
 1489 1389 1489 1389 1488 1385 c 2,89,-1
 1403 652 l 2,90,91
 1400 631 1400 631 1418 631 c 2,92,-1
 1624 631 l 1,93,-1
 1624 1392 l 2,94,95
 1624 1438 1624 1438 1653 1438 c 2,96,-1
 1709 1438 l 2,97,98
 1738 1438 1738 1438 1738 1392 c 2,99,-1
 1738 631 l 1,100,-1
 1853 631 l 2,61,62
EndSplineSet
EndChar

StartChar: AE
Encoding: 198 198 130
Width: 1011
GlyphClass: 2
Flags: W
LayerCount: 2
Fore
SplineSet
881 802 m 2,0,1
 906 802 906 802 906 763 c 2,2,-1
 906 708 l 2,3,4
 906 667 906 667 881 667 c 2,5,-1
 696 667 l 2,6,7
 694 667 694 667 690.5 657.5 c 128,-1,8
 687 648 687 648 687 641 c 2,9,-1
 687 128 l 1,10,-1
 929 128 l 2,11,12
 945 128 945 128 949 118.5 c 128,-1,13
 953 109 953 109 953 92 c 2,14,-1
 953 36 l 2,15,16
 953 13 953 13 947.5 6.5 c 128,-1,17
 942 0 942 0 929 0 c 2,18,-1
 551 0 l 2,19,20
 535 0 535 0 530.5 10.5 c 128,-1,21
 526 21 526 21 526 39 c 2,22,-1
 526 331 l 1,23,-1
 286 331 l 2,24,25
 281 331 281 331 277 313 c 2,26,-1
 206 45 l 1,27,28
 198 0 198 0 172 0 c 2,29,-1
 69 0 l 2,30,31
 55 0 55 0 55 30 c 1,32,-1
 54 45 l 2,33,34
 54 52 54 52 57 60 c 2,35,-1
 411 1386 l 1,36,37
 423 1438 423 1438 451 1438 c 2,38,-1
 905 1438 l 2,39,40
 929 1438 929 1438 929 1402 c 2,41,-1
 929 1346 l 2,42,43
 929 1316 929 1316 921.5 1313 c 128,-1,44
 914 1310 914 1310 905 1310 c 2,45,-1
 698 1310 l 2,46,47
 687 1310 687 1310 687 1279 c 2,48,-1
 687 824 l 2,49,50
 687 802 687 802 695 802 c 2,51,-1
 881 802 l 2,0,1
324 436 m 2,52,-1
 522 436 l 2,53,54
 526 436 526 436 526 456 c 2,55,-1
 526 1285 l 1,56,-1
 525 1298 l 2,57,58
 524 1298 524 1298 520 1287 c 1,59,-1
 313 460 l 2,60,61
 311 452 311 452 311 448 c 0,62,63
 311 436 311 436 324 436 c 2,52,-1
EndSplineSet
EndChar

StartChar: Eth
Encoding: 208 208 140
Width: 919
GlyphClass: 2
Flags: W
LayerCount: 2
Fore
SplineSet
444 703 m 1,0,1
 442 669 442 669 403 669 c 2,2,-1
 273 669 l 1,3,-1
 273 150 l 2,4,5
 273 128 273 128 285 128 c 2,6,-1
 438 128 l 2,7,8
 530 128 530 128 579 179.5 c 128,-1,9
 628 231 628 231 650 358 c 128,-1,10
 672 485 672 485 672 713.5 c 128,-1,11
 672 942 672 942 647 1071 c 128,-1,12
 622 1200 622 1200 573 1255 c 128,-1,13
 524 1310 524 1310 443 1310 c 2,14,-1
 284 1310 l 2,15,16
 273 1310 273 1310 273 1290 c 2,17,-1
 273 783 l 1,18,-1
 403 783 l 2,19,20
 425 783 425 783 434.5 775 c 128,-1,21
 444 767 444 767 444 743 c 2,22,-1
 444 703 l 1,0,1
112 1402 m 2,23,24
 112 1438 112 1438 136 1438 c 2,25,-1
 462 1438 l 2,26,27
 684 1438 684 1438 768 1216 c 0,28,29
 832 1048 832 1048 832 726 c 0,30,31
 832 320 832 320 762 172 c 0,32,33
 712 66 712 66 635 32 c 0,34,35
 563 0 563 0 444 0 c 2,36,-1
 136 0 l 2,37,38
 112 0 112 0 112 42 c 2,39,-1
 112 669 l 1,40,-1
 53 669 l 2,41,42
 31 669 31 669 21.5 677.5 c 128,-1,43
 12 686 12 686 12 710 c 2,44,-1
 12 742 l 2,45,46
 12 766 12 766 21.5 774.5 c 128,-1,47
 31 783 31 783 53 783 c 2,48,-1
 112 783 l 1,49,-1
 112 1402 l 2,23,24
EndSplineSet
EndChar

StartChar: multiply
Encoding: 215 215 147
Width: 801
GlyphClass: 2
Flags: W
LayerCount: 2
Fore
SplineSet
200 357 m 2,0,-1
 162 396 l 2,1,2
 151 407 151 407 151 418 c 0,3,4
 151 429 151 429 172 450 c 2,5,-1
 323 601 l 1,6,-1
 172 753 l 2,7,8
 151 774 151 774 151 785 c 0,9,10
 151 796 151 796 163 808 c 2,11,-1
 201 846 l 2,12,13
 212 857 212 857 223 857 c 0,14,15
 234 857 234 857 255 836 c 2,16,-1
 407 685 l 1,17,-1
 558 836 l 2,18,19
 578 856 578 856 590 856 c 0,20,21
 602 856 602 856 612 846 c 2,22,-1
 650 808 l 2,23,24
 662 796 662 796 662 785 c 0,25,26
 662 774 662 774 641 753 c 2,27,-1
 490 601 l 1,28,-1
 641 450 l 2,29,30
 662 429 662 429 662 418 c 0,31,32
 662 407 662 407 651 396 c 2,33,-1
 613 358 l 2,34,35
 601 346 601 346 590 346 c 0,36,37
 579 346 579 346 558 367 c 2,38,-1
 407 518 l 1,39,-1
 255 366 l 2,40,41
 235 346 235 346 223 346 c 0,42,43
 211 346 211 346 200 357 c 2,0,-1
EndSplineSet
EndChar

StartChar: Oslash
Encoding: 216 216 148
Width: 900
GlyphClass: 2
Flags: W
LayerCount: 2
Fore
SplineSet
299 -205 m 2,0,1
 296 -205 296 -205 293.5 -191.5 c 128,-1,2
 291 -178 291 -178 293 -172 c 1,3,-1
 318 2 l 1,4,5
 236 28 236 28 186 104 c 0,6,7
 88 255 88 255 88 727 c 0,8,9
 88 1154 88 1154 174 1308 c 0,10,11
 220 1390 220 1390 285 1423 c 128,-1,12
 350 1456 350 1456 417.5 1456 c 128,-1,13
 485 1456 485 1456 523 1451 c 1,14,-1
 546 1614 l 1,15,16
 549 1647 549 1647 561 1647 c 2,17,-1
 624 1647 l 2,18,19
 628 1647 628 1647 630 1636 c 128,-1,20
 632 1625 632 1625 630 1614 c 2,21,-1
 604 1430 l 1,22,23
 715 1381 715 1381 763.5 1220 c 128,-1,24
 812 1059 812 1059 812 727 c 0,25,26
 812 371 812 371 760 201 c 0,27,28
 712 44 712 44 588 4 c 0,29,30
 532 -14 532 -14 482 -14.5 c 128,-1,31
 432 -15 432 -15 400 -13 c 1,32,-1
 377 -173 l 1,33,34
 374 -206 374 -206 363 -206 c 2,35,-1
 299 -205 l 2,0,1
342 178 m 1,36,-1
 504 1318 l 1,37,38
 474 1325 474 1325 450 1325 c 0,39,40
 372 1325 372 1325 329 1270 c 128,-1,41
 286 1215 286 1215 267.5 1087.5 c 128,-1,42
 249 960 249 960 249 719.5 c 128,-1,43
 249 479 249 479 270.5 353 c 128,-1,44
 292 227 292 227 342 178 c 1,36,-1
449 116 m 0,45,46
 528 116 528 116 570 164 c 0,47,48
 652 258 652 258 651 727 c 0,49,50
 651 939 651 939 634 1058.5 c 128,-1,51
 617 1178 617 1178 576 1234 c 1,52,-1
 419 118 l 1,53,54
 439 116 439 116 449 116 c 0,45,46
EndSplineSet
EndChar

StartChar: Thorn
Encoding: 222 222 154
Width: 835
GlyphClass: 2
Flags: W
LayerCount: 2
Fore
SplineSet
136 0 m 2,0,1
 112 0 112 0 112 49 c 2,2,-1
 112 1374 l 2,3,4
 112 1423 112 1423 137 1423 c 2,5,-1
 249 1423 l 2,6,7
 273 1423 273 1423 273 1374 c 2,8,-1
 273 1200 l 1,9,-1
 403 1200 l 2,10,11
 528 1200 528 1200 567.5 1186 c 128,-1,12
 607 1172 607 1172 635 1156.5 c 128,-1,13
 663 1141 663 1141 682 1119.5 c 128,-1,14
 701 1098 701 1098 720.5 1065.5 c 128,-1,15
 740 1033 740 1033 751 992 c 0,16,17
 776 899 776 899 776 796 c 128,-1,18
 776 693 776 693 766 629.5 c 128,-1,19
 756 566 756 566 739.5 523 c 128,-1,20
 723 480 723 480 696.5 449 c 128,-1,21
 670 418 670 418 643.5 400.5 c 0,22,23
 617 384 617 384 579 374 c 0,24,25
 517 358 517 358 435 358 c 2,26,-1
 282 358 l 2,27,28
 273 358 273 358 273 342 c 2,29,-1
 273 49 l 2,30,31
 273 0 273 0 248 0 c 2,32,-1
 136 0 l 2,0,1
281 487 m 2,33,-1
 418 487 l 2,34,35
 536 486 536 486 570 532 c 0,36,37
 602 575 602 575 608.5 641 c 128,-1,38
 615 707 615 707 615 766.5 c 128,-1,39
 615 826 615 826 611 869 c 128,-1,40
 607 912 607 912 598 942.5 c 128,-1,41
 589 973 589 973 579.5 995.5 c 128,-1,42
 570 1018 570 1018 553 1032 c 128,-1,43
 536 1046 536 1046 522 1054.5 c 0,44,45
 508 1062 508 1062 484 1066 c 0,46,47
 446 1072 446 1072 396 1072 c 2,48,-1
 282 1072 l 2,49,50
 273 1072 273 1072 273 1055 c 2,51,-1
 273 503 l 2,52,53
 273 487 273 487 281 487 c 2,33,-1
EndSplineSet
EndChar

StartChar: germandbls
Encoding: 223 223 155
Width: 848
GlyphClass: 2
Flags: W
LayerCount: 2
Fore
SplineSet
392 733 m 0,0,1
 369 733 369 733 369 793 c 128,-1,2
 369 853 369 853 392 853 c 0,3,4
 500 853 500 853 547.5 897.5 c 128,-1,5
 595 942 595 942 595 1070 c 128,-1,6
 595 1198 595 1198 555 1254.5 c 128,-1,7
 515 1311 515 1311 426 1311 c 128,-1,8
 337 1311 337 1311 287 1231.5 c 128,-1,9
 237 1152 237 1152 237 1020 c 2,10,-1
 237 43 l 2,11,12
 237 0 237 0 200 0 c 2,13,-1
 139 0 l 2,14,15
 101 0 101 0 101 42 c 2,16,-1
 101 1022 l 2,17,18
 101 1438 101 1438 438 1438 c 0,19,20
 568 1438 568 1438 650.5 1347.5 c 128,-1,21
 733 1257 733 1257 733 1092 c 0,22,23
 733 983 733 983 700.5 913.5 c 128,-1,24
 668 844 668 844 582 810 c 0,25,26
 573 806 573 806 573 799.5 c 128,-1,27
 573 793 573 793 583 789 c 0,28,29
 678 756 678 756 723.5 654.5 c 128,-1,30
 769 553 769 553 769 431 c 0,31,32
 769 199 769 199 675.5 99.5 c 128,-1,33
 582 0 582 0 390 0 c 1,34,-1
 390 123 l 1,35,36
 512 123 512 123 568.5 197.5 c 128,-1,37
 625 272 625 272 625 424 c 128,-1,38
 625 576 625 576 565 654.5 c 128,-1,39
 505 733 505 733 392 733 c 0,0,1
EndSplineSet
EndChar

StartChar: ae
Encoding: 230 230 162
Width: 1057
GlyphClass: 2
Flags: W
LayerCount: 2
Fore
SplineSet
279 -12 m 0,0,1
 179 -12 179 -12 127.5 52.5 c 128,-1,2
 76 117 76 117 76 238 c 0,3,4
 76 418 76 418 187 514 c 0,5,6
 230 551 230 551 292.5 571 c 0,7,8
 354 591 354 591 382 595 c 0,9,10
 447 604 447 604 458 613 c 1,11,-1
 458 658 l 2,12,13
 458 846 458 846 403 887 c 0,14,15
 379 905 379 905 343 905 c 0,16,17
 244 905 244 905 211 762 c 1,18,19
 206 745 206 745 199.5 739 c 128,-1,20
 193 733 193 733 182.5 735 c 128,-1,21
 172 737 172 737 137.5 748.5 c 128,-1,22
 103 760 103 760 102 764 c 1,23,24
 89 775 89 775 101 819 c 0,25,26
 121 899 121 899 182.5 958.5 c 128,-1,27
 244 1018 244 1018 342 1018 c 0,28,29
 500 1018 500 1018 542 843 c 1,30,31
 565 931 565 931 616.5 975 c 128,-1,32
 668 1019 668 1019 727 1019 c 0,33,34
 839 1019 839 1019 897.5 912.5 c 128,-1,35
 956 806 956 806 961 568 c 0,36,37
 961 529 961 529 952 501 c 128,-1,38
 943 473 943 473 930 473 c 2,39,-1
 604 473 l 2,40,41
 597 473 597 473 597 452 c 0,42,43
 597 102 597 102 743 102 c 0,44,45
 840 102 840 102 855 232 c 0,46,47
 860 274 860 274 861.5 290.5 c 128,-1,48
 863 307 863 307 873 307 c 2,49,-1
 933 307 l 2,50,51
 949 307 949 307 949 293 c 1,52,53
 952 278 952 278 952 246 c 0,54,55
 952 132 952 132 901 60.5 c 128,-1,56
 850 -11 850 -11 738 -11 c 0,57,58
 662 -11 662 -11 605.5 50 c 128,-1,59
 549 111 549 111 522 225 c 1,60,61
 460 -12 460 -12 279 -12 c 0,0,1
199 246 m 1,62,63
 228 127 228 127 302 92 c 1,64,65
 356 92 356 92 392 143 c 0,66,67
 460 239 460 239 461 448 c 0,68,69
 461 518 461 518 457 518 c 0,70,71
 424 518 424 518 410 511 c 1,72,73
 199 455 199 455 199 246 c 1,62,63
601 562 m 2,74,-1
 847 562 l 2,75,76
 848 562 848 562 848 584 c 0,77,78
 848 595 848 595 848 611 c 0,79,80
 847 660 847 660 839.5 717.5 c 0,81,82
 832 774 832 774 818 818 c 0,83,84
 790 906 790 906 725 906 c 0,85,86
 672 906 672 906 637.5 834 c 0,87,88
 602 762 602 762 600 662 c 0,89,90
 599 617 599 617 599 592 c 0,91,92
 599 562 599 562 601 562 c 2,74,-1
EndSplineSet
EndChar

StartChar: eth
Encoding: 240 240 172
Width: 784
GlyphClass: 2
Flags: W
LayerCount: 2
Fore
SplineSet
386 -16 m 0,0,1
 156 -16 156 -16 94 212 c 0,2,3
 70 303 70 303 70 434 c 0,4,5
 70 641 70 641 145 760 c 128,-1,6
 220 879 220 879 372 879 c 0,7,8
 467 879 467 879 542 814 c 1,9,10
 523 951 523 951 418 1097 c 1,11,-1
 278 1014 l 1,12,13
 255 999 255 999 235.5 1024 c 128,-1,14
 216 1049 216 1049 216 1064 c 128,-1,15
 216 1079 216 1079 231 1090 c 1,16,-1
 349 1156 l 1,17,18
 268 1223 268 1223 161 1271 c 1,19,20
 147 1274 147 1274 147 1287.5 c 128,-1,21
 147 1301 147 1301 156 1317.5 c 128,-1,22
 165 1334 165 1334 172 1334 c 1,23,24
 176 1359 176 1359 191 1359 c 2,25,-1
 194 1359 l 1,26,27
 344 1304 344 1304 437 1227 c 1,28,-1
 581 1314 l 1,29,30
 606 1337 606 1337 626 1300 c 1,31,-1
 640 1284 l 1,32,33
 659 1257 659 1257 630 1236 c 1,34,-1
 504 1164 l 1,35,36
 701 918 701 918 701 551 c 0,37,38
 701 246 701 246 630.5 115 c 128,-1,39
 560 -16 560 -16 386 -16 c 0,0,1
386 94 m 0,40,41
 488 94 488 94 530 202 c 0,42,43
 566 295 566 295 566 453 c 0,44,45
 566 769 566 769 380 769 c 0,46,47
 280 769 280 769 242 673 c 0,48,49
 208 586 208 586 208 421 c 0,50,51
 208 94 208 94 386 94 c 0,40,41
EndSplineSet
EndChar

StartChar: divide
Encoding: 247 247 179
Width: 796
GlyphClass: 2
Flags: W
LayerCount: 2
Fore
SplineSet
488 126 m 2,0,1
 488 75 488 75 465 75 c 2,2,-1
 366 75 l 2,3,4
 342 75 342 75 342 126 c 2,5,-1
 342 230 l 2,6,7
 342 282 342 282 366 282 c 2,8,-1
 465 282 l 2,9,10
 488 282 488 282 488 230 c 2,11,-1
 488 126 l 2,0,1
675 571 m 2,12,13
 726 571 726 571 726 547 c 2,14,-1
 726 460 l 2,15,16
 726 435 726 435 675 435 c 2,17,-1
 120 435 l 2,18,19
 70 435 70 435 70 460 c 2,20,-1
 70 547 l 2,21,22
 70 571 70 571 120 571 c 2,23,-1
 675 571 l 2,12,13
488 774 m 2,24,25
 488 723 488 723 465 723 c 2,26,-1
 366 723 l 2,27,28
 342 723 342 723 342 774 c 2,29,-1
 342 878 l 2,30,31
 342 930 342 930 366 930 c 2,32,-1
 465 930 l 2,33,34
 488 930 488 930 488 878 c 2,35,-1
 488 774 l 2,24,25
EndSplineSet
EndChar

StartChar: oslash
Encoding: 248 248 180
Width: 739
GlyphClass: 2
Flags: W
LayerCount: 2
Fore
SplineSet
475 829 m 1,0,1
 444 905 444 905 370 905 c 0,2,3
 336 905 336 905 312.5 891 c 128,-1,4
 289 877 289 877 268 837 c 0,5,6
 226 757 226 757 226 549 c 128,-1,7
 226 341 226 341 244 248 c 1,8,-1
 475 829 l 1,0,1
270 165 m 1,9,10
 302 102 302 102 370 102 c 0,11,12
 404 102 404 102 427.5 116.5 c 128,-1,13
 451 131 451 131 472 172 c 0,14,15
 514 254 514 254 514 452.5 c 128,-1,16
 514 651 514 651 499 740 c 1,17,-1
 270 165 l 1,9,10
572 925 m 1,18,19
 658 803 658 803 658 505 c 0,20,21
 658 136 658 136 526 36 c 0,22,23
 485 5 485 5 450.5 -3 c 128,-1,24
 416 -11 416 -11 371 -11 c 0,25,26
 276 -11 276 -11 218 32 c 1,27,-1
 181 -61 l 1,28,29
 175 -80 175 -80 168 -80 c 2,30,-1
 167 -80 l 1,31,-1
 126 -64 l 2,32,33
 125 -64 125 -64 125 -60 c 128,-1,34
 125 -56 125 -56 129 -42 c 1,35,-1
 175 74 l 1,36,37
 81 196 81 196 81 505 c 0,38,39
 82 928 82 928 258 998 c 0,40,41
 307 1018 307 1018 390 1018 c 128,-1,42
 473 1018 473 1018 531 970 c 1,43,-1
 573 1075 l 1,44,45
 583 1094 583 1094 587 1094 c 2,46,-1
 588 1094 l 1,47,-1
 628 1080 l 2,48,49
 630 1080 630 1080 630 1074 c 128,-1,50
 630 1068 630 1068 625 1058 c 2,51,-1
 572 925 l 1,18,19
EndSplineSet
EndChar

StartChar: thorn
Encoding: 254 254 186
Width: 740
GlyphClass: 2
Flags: W
LayerCount: 2
Fore
SplineSet
213 1431 m 2,0,1
 237 1431 237 1431 237 1360 c 2,2,-1
 237 867 l 2,3,4
 237 854 237 854 241 854 c 1,5,-1
 246 859 l 1,6,7
 275 938 275 938 322.5 978 c 128,-1,8
 370 1018 370 1018 421.5 1018 c 128,-1,9
 473 1018 473 1018 513 992.5 c 0,10,11
 554 966 554 966 588 910 c 0,12,13
 662 788 662 788 662 501 c 0,14,15
 662 190 662 190 551 60 c 0,16,17
 491 -11 491 -11 425 -11 c 1,18,19
 296 -11 296 -11 237 145 c 1,20,-1
 237 -345 l 2,21,22
 237 -416 237 -416 212 -416 c 2,23,-1
 125 -416 l 2,24,25
 101 -416 101 -416 101 -345 c 2,26,-1
 101 1360 l 2,27,28
 101 1431 101 1431 126 1431 c 2,29,-1
 213 1431 l 2,0,1
385 102 m 128,-1,31
 449 102 449 102 485.5 201 c 128,-1,32
 522 300 522 300 522 503 c 128,-1,33
 522 706 522 706 485.5 805.5 c 128,-1,34
 449 905 449 905 386.5 905 c 128,-1,35
 324 905 324 905 280.5 795 c 128,-1,36
 237 685 237 685 237 510 c 128,-1,37
 237 335 237 335 279 218.5 c 128,-1,30
 321 102 321 102 385 102 c 128,-1,31
EndSplineSet
EndChar

StartChar: Dcroat
Encoding: 272 272 204
Width: 919
GlyphClass: 2
Flags: W
LayerCount: 2
Fore
SplineSet
285 128 m 2,0,-1
 438 128 l 2,1,2
 530 128 530 128 579 179.5 c 128,-1,3
 628 231 628 231 650 358 c 128,-1,4
 672 485 672 485 672 713.5 c 128,-1,5
 672 942 672 942 647 1071 c 128,-1,6
 622 1200 622 1200 573 1255 c 128,-1,7
 524 1310 524 1310 443 1310 c 2,8,-1
 284 1310 l 2,9,10
 273 1310 273 1310 273 1290 c 2,11,-1
 273 772 l 1,12,-1
 439 772 l 2,13,14
 470 772 470 772 470 738 c 2,15,-1
 470 715 l 2,16,17
 470 680 470 680 439 680 c 2,18,-1
 273 680 l 1,19,-1
 273 150 l 2,20,21
 273 128 273 128 285 128 c 2,0,-1
112 1402 m 2,22,23
 112 1438 112 1438 136 1438 c 2,24,-1
 462 1438 l 2,25,26
 684 1438 684 1438 768 1216 c 0,27,28
 832 1048 832 1048 832 726 c 0,29,30
 832 320 832 320 762 172 c 0,31,32
 712 66 712 66 635 32 c 0,33,34
 563 0 563 0 444 0 c 2,35,-1
 136 0 l 2,36,37
 112 0 112 0 112 42 c 2,38,-1
 112 680 l 1,39,-1
 39 680 l 2,40,41
 8 680 8 680 8 714 c 2,42,-1
 8 736 l 2,43,44
 8 772 8 772 39 772 c 2,45,-1
 112 772 l 1,46,-1
 112 1402 l 2,22,23
EndSplineSet
EndChar

StartChar: dcroat
Encoding: 273 273 205
Width: 758
GlyphClass: 2
Flags: W
LayerCount: 2
Fore
SplineSet
336 -11 m 0,0,1
 198 -12 198 -12 134 130 c 0,2,3
 78 253 78 253 79 502 c 0,4,5
 80 946 80 946 256 1006 c 0,6,7
 290 1018 290 1018 331 1018 c 0,8,9
 446 1018 446 1018 502 862 c 0,10,11
 503 860 503 860 509 851 c 1,12,13
 512 851 512 851 512 870 c 2,14,-1
 512 1179 l 1,15,-1
 325 1179 l 2,16,17
 294 1179 294 1179 294 1213 c 2,18,-1
 294 1235 l 2,19,20
 294 1271 294 1271 325 1271 c 2,21,-1
 512 1271 l 1,22,-1
 512 1369 l 2,23,24
 512 1431 512 1431 537 1431 c 2,25,-1
 631 1431 l 2,26,27
 656 1431 656 1431 656 1369 c 2,28,-1
 656 1271 l 1,29,-1
 724 1271 l 2,30,31
 755 1271 755 1271 755 1237 c 2,32,-1
 755 1214 l 2,33,34
 755 1179 755 1179 724 1179 c 2,35,-1
 656 1179 l 1,36,-1
 656 67 l 2,37,38
 656 0 656 0 634 0 c 1,39,40
 608 2 608 2 607 5 c 1,41,42
 589 15 589 15 584.5 42 c 0,43,44
 580 68 580 68 574 102 c 0,45,46
 560 190 560 190 559 203.5 c 128,-1,47
 558 217 558 217 554 220 c 1,48,49
 550 215 550 215 548 206 c 0,50,51
 520 84 520 84 467 36.5 c 128,-1,52
 414 -11 414 -11 336 -11 c 0,0,1
472 207 m 128,-1,54
 511 312 511 312 511 507.5 c 128,-1,55
 511 703 511 703 471 804 c 128,-1,56
 431 905 431 905 365 905 c 0,57,58
 260 904 260 904 234 708 c 0,59,60
 224 628 224 628 224 508 c 128,-1,61
 224 388 224 388 233.5 306 c 128,-1,62
 243 224 243 224 263 180 c 0,63,64
 316 114 316 114 366 102 c 1,65,53
 433 102 433 102 472 207 c 128,-1,54
EndSplineSet
EndChar

StartChar: Hbar
Encoding: 294 294 224
Width: 918
GlyphClass: 2
Flags: W
LayerCount: 2
Fore
SplineSet
274 47 m 2,0,1
 274 0 274 0 248 0 c 2,2,-1
 137 0 l 2,3,4
 124 0 124 0 118 8.5 c 128,-1,5
 112 17 112 17 112 47 c 2,6,-1
 112 1179 l 1,7,-1
 50 1179 l 2,8,9
 19 1179 19 1179 19 1213 c 2,10,-1
 19 1235 l 2,11,12
 19 1271 19 1271 50 1271 c 2,13,-1
 112 1271 l 1,14,-1
 112 1391 l 2,15,16
 112 1421 112 1421 118 1429.5 c 128,-1,17
 124 1438 124 1438 137 1438 c 2,18,-1
 247 1438 l 2,19,20
 264 1438 264 1438 268.5 1424.5 c 128,-1,21
 273 1411 273 1411 273 1391 c 2,22,-1
 273 1271 l 1,23,-1
 645 1271 l 1,24,-1
 645 1391 l 2,25,26
 645 1421 645 1421 651 1429.5 c 128,-1,27
 657 1438 657 1438 671 1438 c 2,28,-1
 782 1438 l 2,29,30
 795 1438 795 1438 800.5 1429.5 c 128,-1,31
 806 1421 806 1421 806 1391 c 2,32,-1
 806 1271 l 1,33,-1
 867 1271 l 2,34,35
 899 1271 899 1271 899 1237 c 2,36,-1
 899 1214 l 2,37,38
 899 1179 899 1179 867 1179 c 2,39,-1
 806 1179 l 1,40,-1
 806 47 l 2,41,42
 806 17 806 17 800.5 8.5 c 128,-1,43
 795 0 795 0 782 0 c 2,44,-1
 671 0 l 2,45,46
 657 0 657 0 650.5 8.5 c 128,-1,47
 644 17 644 17 644 47 c 2,48,-1
 644 664 l 2,49,50
 644 670 644 670 640.5 677 c 128,-1,51
 637 684 637 684 635 684 c 2,52,-1
 282 684 l 2,53,54
 274 684 274 684 274 665 c 2,55,-1
 274 47 l 2,0,1
273 834 m 2,56,57
 273 814 273 814 281 814 c 2,58,-1
 634 814 l 2,59,60
 637 814 637 814 641 821.5 c 128,-1,61
 645 829 645 829 645 836 c 2,62,-1
 645 1179 l 1,63,-1
 273 1179 l 1,64,-1
 273 834 l 2,56,57
EndSplineSet
EndChar

StartChar: hbar
Encoding: 295 295 225
Width: 740
GlyphClass: 2
Flags: W
LayerCount: 2
Fore
SplineSet
249 50 m 2,0,1
 249 0 249 0 225 0 c 2,2,-1
 126 0 l 2,3,4
 102 0 102 0 102 50 c 2,5,-1
 102 1179 l 1,6,-1
 41 1179 l 2,7,8
 10 1179 10 1179 10 1213 c 2,9,-1
 10 1235 l 2,10,11
 10 1271 10 1271 41 1271 c 2,12,-1
 102 1271 l 1,13,-1
 102 1383 l 2,14,15
 102 1437 102 1437 126 1437 c 2,16,-1
 224 1437 l 2,17,18
 249 1437 249 1437 249 1383 c 2,19,-1
 249 1271 l 1,20,-1
 458 1271 l 2,21,22
 490 1271 490 1271 490 1237 c 2,23,-1
 490 1214 l 2,24,25
 490 1179 490 1179 458 1179 c 2,26,-1
 249 1179 l 1,27,-1
 249 861 l 2,28,29
 249 849 249 849 252.5 849 c 128,-1,30
 256 849 256 849 259 854 c 1,31,32
 290 939 290 939 343 978.5 c 128,-1,33
 396 1018 396 1018 456.5 1018 c 128,-1,34
 517 1018 517 1018 559 982 c 0,35,36
 651 902 651 902 651 582 c 2,37,-1
 651 50 l 2,38,39
 651 0 651 0 626 0 c 2,40,-1
 528 0 l 2,41,42
 504 0 504 0 504 50 c 2,43,-1
 504 606 l 2,44,45
 504 766 504 766 482 835.5 c 128,-1,46
 460 905 460 905 401 905 c 128,-1,47
 342 905 342 905 295.5 814 c 128,-1,48
 249 723 249 723 249 595 c 2,49,-1
 249 50 l 2,0,1
EndSplineSet
EndChar

StartChar: dotlessi
Encoding: 305 305 235
Width: 338
GlyphClass: 2
Flags: W
LayerCount: 2
Fore
SplineSet
132 0 m 2,0,1
 107 0 107 0 107 61 c 2,2,-1
 107 946 l 2,3,4
 107 1006 107 1006 132 1006 c 2,5,-1
 219 1006 l 2,6,7
 243 1006 243 1006 243 946 c 2,8,-1
 243 61 l 2,9,10
 243 0 243 0 219 0 c 2,11,-1
 132 0 l 2,0,1
EndSplineSet
EndChar

StartChar: kgreenlandic
Encoding: 312 312 242
Width: 683
GlyphClass: 2
Flags: W
LayerCount: 2
Fore
SplineSet
127 0 m 2,0,1
 103 0 103 0 103 63 c 2,2,-1
 103 944 l 2,3,4
 103 1006 103 1006 127 1006 c 2,5,-1
 216 1006 l 2,6,7
 240 1006 240 1006 240 944 c 2,8,-1
 240 542 l 2,9,10
 240 528 240 528 245 528 c 1,11,-1
 248 531 l 1,12,-1
 470 948 l 1,13,14
 498 1006 498 1006 525 1006 c 2,15,-1
 628 1006 l 2,16,17
 638 1006 638 1006 638 987.5 c 128,-1,18
 638 969 638 969 627 949 c 2,19,-1
 430 574 l 1,20,21
 426 564 426 564 426 559.5 c 128,-1,22
 426 555 426 555 430 543 c 1,23,-1
 643 61 l 2,24,25
 651 42 651 42 651 21 c 128,-1,26
 651 0 651 0 640 0 c 2,27,-1
 530 0 l 2,28,29
 512 0 512 0 491 54 c 2,30,-1
 330 458 l 2,31,32
 326 468 326 468 322.5 468 c 128,-1,33
 319 468 319 468 314 460 c 128,-1,34
 309 452 309 452 292 420.5 c 128,-1,35
 275 389 275 389 260 362 c 1,36,-1
 246 334 l 1,37,38
 240 319 240 319 240 294 c 2,39,-1
 240 63 l 2,40,41
 240 0 240 0 216 0 c 2,42,-1
 127 0 l 2,0,1
EndSplineSet
EndChar

StartChar: Lslash
Encoding: 321 321 251
Width: 617
GlyphClass: 2
Flags: W
LayerCount: 2
Fore
SplineSet
112 1391 m 2,0,1
 112 1438 112 1438 136 1438 c 2,2,-1
 249 1438 l 2,3,4
 273 1438 273 1438 273 1391 c 2,5,-1
 273 856 l 1,6,-1
 439 903 l 2,7,8
 451 906 451 906 457.5 898.5 c 128,-1,9
 464 891 464 891 464 868 c 2,10,-1
 464 803 l 2,11,12
 464 776 464 776 456.5 773 c 128,-1,13
 449 770 449 770 439 768 c 2,14,-1
 273 721 l 1,15,-1
 273 149 l 2,16,17
 273 128 273 128 286 128 c 2,18,-1
 548 128 l 2,19,20
 573 128 573 128 573 94 c 2,21,-1
 573 36 l 2,22,23
 573 13 573 13 567 6.5 c 128,-1,24
 561 0 561 0 548 0 c 2,25,-1
 136 0 l 2,26,27
 112 0 112 0 112 47 c 2,28,-1
 112 679 l 1,29,-1
 33 657 l 2,30,31
 21 654 21 654 14.5 661.5 c 128,-1,32
 8 669 8 669 8 692 c 2,33,-1
 8 756 l 2,34,35
 8 782 8 782 14.5 785 c 128,-1,36
 21 788 21 788 22 788 c 0,37,38
 29 792 29 792 33 792 c 1,39,-1
 112 814 l 1,40,-1
 112 1391 l 2,0,1
EndSplineSet
EndChar

StartChar: lslash
Encoding: 322 322 252
Width: 338
GlyphClass: 2
Flags: W
LayerCount: 2
Fore
SplineSet
221 0 m 2,0,-1
 134 0 l 2,1,2
 109 0 109 0 109 58 c 2,3,-1
 109 751 l 1,4,-1
 -2 722 l 2,5,6
 -15 718 -15 718 -22 726.5 c 128,-1,7
 -29 735 -29 735 -29 764 c 2,8,-1
 -29 811 l 2,9,10
 -28 840 -28 840 -22 845 c 0,11,12
 -12 853 -12 853 -2 853 c 1,13,-1
 109 882 l 1,14,-1
 109 1392 l 2,15,16
 109 1455 109 1455 134 1455 c 2,17,-1
 221 1455 l 2,18,19
 245 1455 245 1455 245 1392 c 2,20,-1
 245 918 l 1,21,-1
 355 946 l 2,22,23
 368 950 368 950 375 942 c 128,-1,24
 382 934 382 934 382 905 c 2,25,-1
 382 857 l 2,26,27
 382 825 382 825 375.5 822 c 128,-1,28
 369 819 369 819 363 818 c 128,-1,29
 357 817 357 817 355 816 c 2,30,-1
 245 787 l 1,31,-1
 245 58 l 2,32,33
 245 0 245 0 221 0 c 2,0,-1
EndSplineSet
EndChar

StartChar: OE
Encoding: 338 338 265
Width: 1103
GlyphClass: 2
Flags: W
LayerCount: 2
Fore
SplineSet
724 821 m 2,0,1
 724 800 724 800 732 800 c 2,2,-1
 971 800 l 2,3,4
 996 800 996 800 996 752 c 2,5,-1
 996 722 l 2,6,7
 996 672 996 672 971 672 c 2,8,-1
 733 672 l 2,9,10
 731 672 731 672 727.5 662.5 c 128,-1,11
 724 653 724 653 724 646 c 2,12,-1
 724 153 l 2,13,14
 724 128 724 128 730 128 c 2,15,-1
 1018 128 l 2,16,17
 1042 128 1042 128 1042 79 c 2,18,-1
 1042 50 l 2,19,20
 1042 0 1042 0 1018 0 c 2,21,-1
 475 0 l 2,22,23
 403 0 403 0 350 15.5 c 128,-1,24
 297 31 297 31 245 77 c 0,25,26
 192 124 192 124 160 202 c 0,27,28
 88 377 88 377 88 723 c 0,29,30
 88 1321 88 1321 339 1417 c 0,31,32
 394 1438 394 1438 462 1438 c 2,33,-1
 1005 1438 l 2,34,35
 1030 1438 1030 1438 1030 1389 c 2,36,-1
 1030 1359 l 2,37,38
 1030 1310 1030 1310 1005 1310 c 2,39,-1
 735 1310 l 2,40,41
 724 1310 724 1310 724 1279 c 2,42,-1
 724 821 l 2,0,1
558 128 m 2,43,44
 560 128 560 128 560 719 c 128,-1,45
 560 1310 560 1310 558 1310 c 2,46,-1
 468 1310 l 1,47,48
 356 1309 356 1309 302.5 1174 c 128,-1,49
 249 1039 249 1039 249 723 c 0,50,51
 249 378 249 378 306 248 c 0,52,53
 335 182 335 182 374 155 c 128,-1,54
 413 128 413 128 468 128 c 2,55,-1
 558 128 l 2,43,44
EndSplineSet
EndChar

StartChar: oe
Encoding: 339 339 266
Width: 1079
GlyphClass: 2
Flags: W
LayerCount: 2
Fore
SplineSet
995 246 m 2,0,1
 995 135 995 135 941.5 62 c 128,-1,2
 888 -11 888 -11 780 -11 c 0,3,4
 630 -11 630 -11 566 179 c 1,5,6
 509 -11 509 -11 360 -11 c 0,7,8
 315 -11 315 -11 281 -3 c 128,-1,9
 247 5 247 5 207 35.5 c 128,-1,10
 167 66 167 66 141.5 119.5 c 128,-1,11
 116 173 116 173 98.5 271.5 c 128,-1,12
 81 370 81 370 81 505 c 128,-1,13
 81 640 81 640 98 738 c 128,-1,14
 115 836 115 836 140.5 889 c 128,-1,15
 166 942 166 942 205.5 972.5 c 128,-1,16
 245 1003 245 1003 279 1010.5 c 128,-1,17
 313 1018 313 1018 358 1018 c 0,18,19
 499 1018 499 1018 563 845 c 1,20,21
 632 1019 632 1019 767 1019 c 0,22,23
 879 1019 879 1019 939 912.5 c 128,-1,24
 999 806 999 806 1004 568 c 0,25,26
 1004 529 1004 529 995 501 c 128,-1,27
 986 473 986 473 973 473 c 2,28,-1
 639 473 l 2,29,30
 631 473 631 473 631 425.5 c 128,-1,31
 631 378 631 378 639.5 317.5 c 128,-1,32
 648 257 648 257 665 207 c 0,33,34
 701 102 701 102 783 102 c 0,35,36
 837 102 837 102 860 135 c 0,37,38
 869 148 869 148 874.5 155.5 c 128,-1,39
 880 163 880 163 885.5 181.5 c 128,-1,40
 891 200 891 200 893 207 c 128,-1,41
 895 214 895 214 898 236 c 128,-1,42
 901 258 901 258 901.5 261.5 c 128,-1,43
 902 265 902 265 904 286 c 128,-1,44
 906 307 906 307 917 307 c 2,45,-1
 976 307 l 2,46,47
 995 307 995 307 995 271 c 2,48,-1
 995 246 l 2,0,1
636 562 m 2,49,-1
 890 562 l 2,50,51
 892 562 892 562 892 580 c 0,52,53
 887 741 887 741 858 823.5 c 128,-1,54
 829 906 829 906 765 906 c 0,55,56
 649 906 649 906 632 616 c 1,57,58
 632 562 632 562 636 562 c 2,49,-1
297 116.5 m 128,-1,60
 320 102 320 102 354.5 102 c 128,-1,61
 389 102 389 102 411.5 116.5 c 128,-1,62
 434 131 434 131 454 172 c 0,63,64
 493 252 493 252 493 505 c 0,65,66
 493 703 493 703 474.5 772 c 0,67,68
 456 842 456 842 438 866 c 0,69,70
 408 906 408 906 364.5 905.5 c 128,-1,71
 321 905 321 905 298.5 891 c 128,-1,72
 276 877 276 877 255.5 837 c 128,-1,73
 235 797 235 797 225.5 714.5 c 128,-1,74
 216 632 216 632 216 505 c 128,-1,75
 216 378 216 378 225.5 296 c 128,-1,76
 235 214 235 214 254.5 172.5 c 128,-1,59
 274 131 274 131 297 116.5 c 128,-1,60
EndSplineSet
EndChar

StartChar: florin
Encoding: 402 402 305
Width: 491
GlyphClass: 2
Flags: W
LayerCount: 2
Fore
SplineSet
83 788 m 2,0,1
 61 788 61 788 64 823 c 2,2,-1
 69 874 l 2,3,4
 73 913 73 913 97 913 c 2,5,-1
 174 913 l 2,6,7
 181 913 181 913 191.5 1021 c 128,-1,8
 202 1129 202 1129 234.5 1217 c 128,-1,9
 267 1305 267 1305 313.5 1336.5 c 128,-1,10
 360 1368 360 1368 436 1368 c 0,11,12
 464 1368 464 1368 478 1361.5 c 128,-1,13
 492 1355 492 1355 491 1351 c 1,14,15
 496 1351 496 1351 496 1315 c 0,16,17
 496 1309 496 1309 496 1302 c 0,18,19
 495 1253 495 1253 479 1253 c 2,20,-1
 455 1253 l 2,21,22
 395 1253 395 1253 369 1207 c 128,-1,23
 343 1161 343 1161 330 1027 c 1,24,-1
 318 919 l 2,25,26
 318 913 318 913 321 913 c 2,27,-1
 431 913 l 2,28,29
 453 913 453 913 449 877 c 2,30,-1
 443 823 l 2,31,32
 440 788 440 788 417 788 c 2,33,-1
 317 788 l 2,34,35
 308 788 308 788 305 759 c 2,36,-1
 264 274 l 2,37,38
 240 -14 240 -14 136 -88 c 0,39,40
 86 -124 86 -124 12 -124 c 2,41,-1
 -9 -124 l 2,42,43
 -36 -124 -36 -124 -37 -105 c 1,44,45
 -39 -105 -39 -105 -39 -82 c 2,46,-1
 -39 -64 l 1,47,48
 -37 -11 -37 -11 -22 -11 c 2,49,-1
 -8 -11 l 2,50,51
 53 -11 53 -11 79.5 34.5 c 128,-1,52
 106 80 106 80 118 215 c 2,53,-1
 165 759 l 2,54,55
 168 788 168 788 161 788 c 2,56,-1
 83 788 l 2,0,1
EndSplineSet
EndChar

StartChar: uni0237
Encoding: 567 567 348
Width: 377
GlyphClass: 2
Flags: W
LayerCount: 2
Fore
SplineSet
35 -321 m 2,0,1
 12 -321 12 -321 12 -274 c 2,2,-1
 12 -222 l 2,3,4
 12 -180 12 -180 35 -180 c 2,5,-1
 74 -180 l 2,6,7
 112 -180 112 -180 128 -144 c 128,-1,8
 144 -108 144 -108 144 1 c 2,9,-1
 144 946 l 2,10,11
 144 1006 144 1006 168 1006 c 2,12,-1
 255 1006 l 2,13,14
 280 1006 280 1006 280 946 c 2,15,-1
 280 0 l 2,16,17
 280 -239 280 -239 212 -292 c 0,18,19
 175 -321 175 -321 105 -321 c 2,20,-1
 35 -321 l 2,0,1
EndSplineSet
EndChar

StartChar: circumflex
Encoding: 710 710 349
Width: 307
GlyphClass: 2
Flags: W
LayerCount: 2
Fore
SplineSet
276 1242 m 1,0,1
 276 1230 276 1230 251 1230 c 128,-1,2
 226 1230 226 1230 212 1260 c 1,3,-1
 163 1375 l 2,4,5
 157 1389 157 1389 152.5 1389 c 128,-1,6
 148 1389 148 1389 142 1375 c 2,7,-1
 93 1260 l 1,8,9
 79 1230 79 1230 54 1230 c 128,-1,10
 29 1230 29 1230 29 1242 c 1,11,12
 19 1243 19 1243 19 1258 c 128,-1,13
 19 1273 19 1273 22 1282 c 2,14,-1
 89 1462 l 1,15,16
 114 1535 114 1535 141 1535 c 2,17,-1
 164 1535 l 2,18,19
 191 1535 191 1535 217 1462 c 2,20,-1
 283 1282 l 1,21,22
 287 1268 287 1268 287 1255.5 c 128,-1,23
 287 1243 287 1243 276 1242 c 1,0,1
EndSplineSet
EndChar

StartChar: caron
Encoding: 711 711 350
Width: 307
GlyphClass: 2
Flags: W
LayerCount: 2
Fore
SplineSet
141 1230 m 2,0,1
 114 1230 114 1230 89 1303 c 1,2,-1
 22 1483 l 1,3,4
 18 1497 18 1497 18 1509 c 0,5,6
 18 1521 18 1521 29 1522 c 1,7,8
 29 1527 29 1527 40.5 1531 c 128,-1,9
 52 1535 52 1535 61 1535 c 0,10,11
 79 1535 79 1535 93 1504 c 2,12,-1
 142 1390 l 2,13,14
 148 1376 148 1376 152 1376 c 0,15,16
 156 1376 156 1376 163 1390 c 2,17,-1
 212 1504 l 2,18,19
 226 1535 226 1535 243 1535 c 0,20,21
 252 1535 252 1535 264 1531 c 128,-1,22
 276 1527 276 1527 276 1522 c 1,23,24
 286 1520 286 1520 286 1506 c 0,25,26
 286 1492 286 1492 283 1483 c 2,27,-1
 216 1303 l 1,28,29
 191 1230 191 1230 164 1230 c 2,30,-1
 141 1230 l 2,0,1
EndSplineSet
EndChar

StartChar: breve
Encoding: 728 728 351
Width: 1403
GlyphClass: 2
Flags: W
LayerCount: 2
Fore
SplineSet
740.5 1339.5 m 128,-1,1
 686 1292 686 1292 609.5 1292 c 128,-1,2
 533 1292 533 1292 479 1339.5 c 128,-1,3
 425 1387 425 1387 425 1478 c 1,4,-1
 503 1478 l 1,5,6
 503 1429 503 1429 534.5 1404.5 c 128,-1,7
 566 1380 566 1380 611 1380 c 128,-1,8
 656 1380 656 1380 687.5 1404.5 c 128,-1,9
 719 1429 719 1429 719 1478 c 1,10,-1
 796 1478 l 1,11,0
 795 1387 795 1387 740.5 1339.5 c 128,-1,1
EndSplineSet
EndChar

StartChar: dotaccent
Encoding: 729 729 352
Width: 378
GlyphClass: 2
Flags: W
LayerCount: 2
Fore
SplineSet
39 67 m 2,0,1
 12 67 12 67 12 120 c 2,2,-1
 12 231 l 2,3,4
 12 283 12 283 39 283 c 2,5,-1
 161 283 l 2,6,7
 188 283 188 283 188 231 c 2,8,-1
 188 120 l 2,9,10
 188 67 188 67 161 67 c 2,11,-1
 39 67 l 2,0,1
EndSplineSet
EndChar

StartChar: ring
Encoding: 730 730 353
Width: 1061
GlyphClass: 2
Flags: W
LayerCount: 2
Fore
SplineSet
462.5 931 m 128,-1,1
 495 902 495 902 538.5 902 c 128,-1,2
 582 902 582 902 614 931 c 128,-1,3
 646 960 646 960 646 1023 c 128,-1,4
 646 1086 646 1086 614 1113 c 128,-1,5
 582 1140 582 1140 538 1140 c 128,-1,6
 494 1140 494 1140 462 1113.5 c 128,-1,7
 430 1087 430 1087 430 1023.5 c 128,-1,0
 430 960 430 960 462.5 931 c 128,-1,1
539 840 m 128,-1,9
 510 840 510 840 480 849 c 128,-1,10
 450 858 450 858 421 877 c 0,11,12
 355 920 355 920 355 1021 c 0,13,14
 355 1160 355 1160 477 1194 c 0,15,16
 507 1202 507 1202 539 1202.5 c 128,-1,17
 571 1203 571 1203 600 1194.5 c 128,-1,18
 629 1186 629 1186 658 1167 c 0,19,20
 721 1126 721 1126 721 1021 c 0,21,22
 721 887 721 887 597 849 c 0,23,8
 568 840 568 840 539 840 c 128,-1,9
EndSplineSet
EndChar

StartChar: ogonek
Encoding: 731 731 354
Width: 716
GlyphClass: 2
Flags: W
LayerCount: 2
Fore
SplineSet
344 -133 m 0,0,1
 344 -260 344 -260 470 -260 c 1,2,3
 495 -259 495 -259 495 -270 c 2,4,-1
 495 -325 l 2,5,6
 495 -342 495 -342 479 -342 c 0,7,8
 336 -342 336 -342 278 -292 c 128,-1,9
 220 -242 220 -242 220 -166.5 c 128,-1,10
 220 -91 220 -91 277 -37 c 128,-1,11
 334 17 334 17 432 29 c 1,12,-1
 430 -4 l 1,13,14
 344 -31 344 -31 344 -133 c 0,0,1
EndSplineSet
EndChar

StartChar: tilde
Encoding: 732 732 355
Width: 656
GlyphClass: 2
Flags: W
LayerCount: 2
Fore
SplineSet
437 876.5 m 128,-1,1
 426 888 426 888 410.5 888 c 0,2,3
 394 888 394 888 364 869 c 0,4,5
 271 811 271 811 234.5 811 c 128,-1,6
 198 811 198 811 179 819 c 0,7,8
 160 828 160 828 146 844 c 0,9,10
 122 871 122 871 107 895.5 c 128,-1,11
 92 920 92 920 92 935 c 128,-1,12
 92 950 92 950 103 960.5 c 128,-1,13
 114 971 114 971 130.5 971 c 128,-1,14
 147 971 147 971 164 944 c 1,15,16
 184 897 184 897 214 897 c 0,17,18
 237 897 237 897 303 935.5 c 128,-1,19
 369 974 369 974 407 974 c 128,-1,20
 445 974 445 974 470 950 c 128,-1,21
 495 926 495 926 515 893.5 c 128,-1,22
 535 861 535 861 535 846.5 c 128,-1,23
 535 832 535 832 525 822.5 c 128,-1,24
 515 813 515 813 501.5 813 c 128,-1,25
 488 813 488 813 475.5 824.5 c 128,-1,26
 463 836 463 836 455.5 850.5 c 128,-1,0
 448 865 448 865 437 876.5 c 128,-1,1
EndSplineSet
EndChar

StartChar: hungarumlaut
Encoding: 733 733 356
Width: 596
GlyphClass: 2
Flags: W
LayerCount: 2
Fore
SplineSet
221 1168 m 2,0,1
 206 1168 206 1168 206 1187.5 c 128,-1,2
 206 1207 206 1207 208 1235 c 2,3,-1
 229 1554 l 1,4,5
 231 1609 231 1609 254 1609 c 2,6,-1
 327 1609 l 2,7,8
 337 1609 337 1609 337 1588.5 c 128,-1,9
 337 1568 337 1568 333 1544 c 1,10,-1
 261 1207 l 1,11,12
 255 1173 255 1173 249.5 1170.5 c 128,-1,13
 244 1168 244 1168 241 1168 c 2,14,-1
 221 1168 l 2,0,1
368 1168 m 2,15,16
 354 1168 354 1168 354 1194.5 c 128,-1,17
 354 1221 354 1221 355 1235 c 2,18,-1
 376 1554 l 2,19,20
 379 1609 379 1609 402 1609 c 2,21,-1
 475 1609 l 2,22,23
 485 1609 485 1609 485 1588.5 c 128,-1,24
 485 1568 485 1568 481 1544 c 1,25,-1
 408 1207 l 1,26,27
 402 1173 402 1173 397 1170.5 c 128,-1,28
 392 1168 392 1168 389 1168 c 2,29,-1
 368 1168 l 2,15,16
EndSplineSet
EndChar

StartChar: endash
Encoding: 8211 8211 379
Width: 1024
GlyphClass: 2
Flags: W
LayerCount: 2
Fore
SplineSet
120 489 m 2,0,1
 88 489 88 489 88 525 c 2,2,-1
 88 549 l 2,3,4
 88 586 88 586 120 586 c 2,5,-1
 898 586 l 2,6,7
 931 586 931 586 931 550 c 2,8,-1
 931 526 l 2,9,10
 931 489 931 489 898 489 c 2,11,-1
 120 489 l 2,0,1
EndSplineSet
EndChar

StartChar: emdash
Encoding: 8212 8212 380
Width: 2048
GlyphClass: 2
Flags: W
LayerCount: 2
Fore
SplineSet
120 489 m 2,0,1
 88 489 88 489 88 525 c 2,2,-1
 88 549 l 2,3,4
 88 586 88 586 120 586 c 2,5,-1
 1921 586 l 2,6,7
 1954 586 1954 586 1954 550 c 2,8,-1
 1954 526 l 2,9,10
 1954 489 1954 489 1921 489 c 2,11,-1
 120 489 l 2,0,1
EndSplineSet
EndChar

StartChar: quoteleft
Encoding: 8216 8216 381
Width: 327
GlyphClass: 2
Flags: W
LayerCount: 2
Fore
SplineSet
220 1505 m 0,0,1
 239 1506 239 1506 239 1472 c 2,2,-1
 239 1424 l 2,3,4
 239 1416 239 1416 238 1409.5 c 128,-1,5
 237 1403 237 1403 236.5 1399.5 c 128,-1,6
 236 1396 236 1396 233.5 1391.5 c 128,-1,7
 231 1387 231 1387 229.5 1385.5 c 128,-1,8
 228 1384 228 1384 224 1378.5 c 128,-1,9
 220 1373 220 1373 208.5 1357.5 c 128,-1,10
 197 1342 197 1342 185 1295 c 128,-1,11
 173 1248 173 1248 173 1216.5 c 128,-1,12
 173 1185 173 1185 179 1185 c 2,13,-1
 218 1185 l 2,14,15
 239 1185 239 1185 239 1130 c 2,16,-1
 239 935 l 2,17,18
 239 874 239 874 218 874 c 2,19,-1
 115 874 l 2,20,21
 88 874 88 874 88 942 c 2,22,-1
 88 1121 l 2,23,24
 88 1281 88 1281 129 1381.5 c 128,-1,25
 170 1482 170 1482 215 1504 c 0,26,27
 217 1505 217 1505 220 1505 c 0,0,1
EndSplineSet
EndChar

StartChar: quoteright
Encoding: 8217 8217 382
Width: 322
GlyphClass: 2
Flags: W
LayerCount: 2
Fore
SplineSet
215 1501 m 2,0,1
 241 1501 241 1501 241 1433 c 2,2,-1
 241 1254 l 2,3,4
 241 1094 241 1094 200 993.5 c 128,-1,5
 159 893 159 893 114 871 c 0,6,7
 112 870 112 870 109 870 c 0,8,9
 90 870 90 870 90 904 c 2,10,-1
 90 951 l 2,11,12
 90 978 90 978 100 990 c 128,-1,13
 110 1002 110 1002 121 1017.5 c 128,-1,14
 132 1033 132 1033 144 1080.5 c 128,-1,15
 156 1128 156 1128 156 1159.5 c 128,-1,16
 156 1191 156 1191 150 1191 c 2,17,-1
 111 1191 l 2,18,19
 90 1191 90 1191 90 1245 c 2,20,-1
 90 1440 l 2,21,22
 90 1501 90 1501 111 1501 c 2,23,-1
 215 1501 l 2,0,1
EndSplineSet
EndChar

StartChar: quotesinglbase
Encoding: 8218 8218 383
Width: 265
GlyphClass: 2
Flags: W
LayerCount: 2
Fore
SplineSet
122 -210 m 2,0,1
 104 -210 104 -210 101 -144 c 1,2,-1
 67 249 l 1,3,-1
 67 257 l 2,4,5
 67 283 67 283 74.5 301.5 c 128,-1,6
 82 320 82 320 92 320 c 2,7,-1
 174 320 l 2,8,9
 184 320 184 320 191 300.5 c 128,-1,10
 198 281 198 281 198 253 c 2,11,-1
 198 248 l 1,12,-1
 166 -144 l 2,13,14
 161 -210 161 -210 145 -210 c 2,15,-1
 122 -210 l 2,0,1
EndSplineSet
EndChar

StartChar: quotedblleft
Encoding: 8220 8220 384
Width: 575
GlyphClass: 2
Flags: W
LayerCount: 2
Fore
SplineSet
220 1505 m 0,0,1
 239 1506 239 1506 239 1472 c 2,2,-1
 239 1424 l 2,3,4
 239 1416 239 1416 238 1409.5 c 128,-1,5
 237 1403 237 1403 236.5 1399.5 c 128,-1,6
 236 1396 236 1396 233.5 1391.5 c 128,-1,7
 231 1387 231 1387 229.5 1385.5 c 128,-1,8
 228 1384 228 1384 224 1378.5 c 128,-1,9
 220 1373 220 1373 208.5 1357.5 c 128,-1,10
 197 1342 197 1342 185 1295 c 128,-1,11
 173 1248 173 1248 173 1216.5 c 128,-1,12
 173 1185 173 1185 179 1185 c 2,13,-1
 218 1185 l 2,14,15
 239 1185 239 1185 239 1130 c 2,16,-1
 239 935 l 2,17,18
 239 874 239 874 218 874 c 2,19,-1
 115 874 l 2,20,21
 88 874 88 874 88 942 c 2,22,-1
 88 1121 l 2,23,24
 88 1281 88 1281 129 1381.5 c 128,-1,25
 170 1482 170 1482 215 1504 c 0,26,27
 217 1505 217 1505 220 1505 c 0,0,1
466 1505 m 0,28,29
 485 1506 485 1506 485 1472 c 2,30,-1
 485 1424 l 2,31,32
 485 1416 485 1416 484 1409.5 c 128,-1,33
 483 1403 483 1403 482.5 1399.5 c 128,-1,34
 482 1396 482 1396 479.5 1391.5 c 128,-1,35
 477 1387 477 1387 475.5 1385.5 c 128,-1,36
 474 1384 474 1384 470 1378.5 c 128,-1,37
 466 1373 466 1373 454.5 1357.5 c 128,-1,38
 443 1342 443 1342 431 1295 c 128,-1,39
 419 1248 419 1248 419 1216.5 c 128,-1,40
 419 1185 419 1185 425 1185 c 2,41,-1
 464 1185 l 2,42,43
 485 1185 485 1185 485 1130 c 2,44,-1
 485 935 l 2,45,46
 485 874 485 874 464 874 c 2,47,-1
 361 874 l 2,48,49
 334 874 334 874 334 942 c 2,50,-1
 334 1121 l 2,51,52
 334 1281 334 1281 375 1381.5 c 128,-1,53
 416 1482 416 1482 461 1504 c 0,54,55
 463 1505 463 1505 466 1505 c 0,28,29
EndSplineSet
EndChar

StartChar: quotedblright
Encoding: 8221 8221 385
Width: 574
GlyphClass: 2
Flags: W
LayerCount: 2
Fore
SplineSet
215 1501 m 2,0,1
 241 1501 241 1501 241 1433 c 2,2,-1
 241 1254 l 2,3,4
 241 1094 241 1094 200 993.5 c 128,-1,5
 159 893 159 893 114 871 c 0,6,7
 112 870 112 870 109 870 c 0,8,9
 90 870 90 870 90 904 c 2,10,-1
 90 951 l 2,11,12
 90 978 90 978 100 990 c 128,-1,13
 110 1002 110 1002 121 1017.5 c 128,-1,14
 132 1033 132 1033 144 1080.5 c 128,-1,15
 156 1128 156 1128 156 1159.5 c 128,-1,16
 156 1191 156 1191 150 1191 c 2,17,-1
 111 1191 l 2,18,19
 90 1191 90 1191 90 1245 c 2,20,-1
 90 1440 l 2,21,22
 90 1501 90 1501 111 1501 c 2,23,-1
 215 1501 l 2,0,1
458 1501 m 2,24,25
 484 1501 484 1501 484 1433 c 2,26,-1
 484 1254 l 2,27,28
 484 1094 484 1094 443 993.5 c 128,-1,29
 402 893 402 893 357 871 c 0,30,31
 355 870 355 870 352 870 c 0,32,33
 333 870 333 870 333 916 c 2,34,-1
 333 931 l 2,35,36
 333 970 333 970 337 978 c 128,-1,37
 341 986 341 986 347.5 994.5 c 128,-1,38
 354 1003 354 1003 364.5 1018 c 128,-1,39
 375 1033 375 1033 387 1080.5 c 128,-1,40
 399 1128 399 1128 399 1159.5 c 128,-1,41
 399 1191 399 1191 393 1191 c 2,42,-1
 354 1191 l 2,43,44
 333 1191 333 1191 333 1245 c 2,45,-1
 333 1440 l 2,46,47
 333 1501 333 1501 354 1501 c 2,48,-1
 458 1501 l 2,24,25
EndSplineSet
EndChar

StartChar: quotedblbase
Encoding: 8222 8222 386
Width: 512
GlyphClass: 2
Flags: W
LayerCount: 2
Fore
SplineSet
122 -210 m 2,0,1
 104 -210 104 -210 101 -144 c 1,2,-1
 67 249 l 1,3,-1
 67 257 l 2,4,5
 67 283 67 283 74.5 301.5 c 128,-1,6
 82 320 82 320 92 320 c 2,7,-1
 174 320 l 2,8,9
 184 320 184 320 191 300.5 c 128,-1,10
 198 281 198 281 198 253 c 2,11,-1
 198 248 l 1,12,-1
 166 -144 l 2,13,14
 161 -210 161 -210 145 -210 c 2,15,-1
 122 -210 l 2,0,1
369 -210 m 2,16,17
 351 -210 351 -210 348 -144 c 1,18,-1
 314 249 l 1,19,-1
 314 257 l 2,20,21
 314 283 314 283 321.5 301.5 c 128,-1,22
 329 320 329 320 339 320 c 2,23,-1
 421 320 l 2,24,25
 431 320 431 320 438 300.5 c 128,-1,26
 445 281 445 281 445 253 c 2,27,-1
 445 248 l 1,28,-1
 413 -144 l 2,29,30
 408 -210 408 -210 392 -210 c 2,31,-1
 369 -210 l 2,16,17
EndSplineSet
EndChar

StartChar: dagger
Encoding: 8224 8224 387
Width: 590
GlyphClass: 2
Flags: W
LayerCount: 2
Fore
SplineSet
260 0 m 2,0,1
 236 0 236 0 236 58 c 2,2,-1
 236 925 l 1,3,-1
 -24 925 l 2,4,5
 -77 925 -77 925 -77 949 c 2,6,-1
 -77 1036 l 2,7,8
 -77 1062 -77 1062 -24 1062 c 2,9,-1
 236 1062 l 1,10,-1
 236 1392 l 2,11,12
 236 1455 236 1455 260 1455 c 2,13,-1
 347 1455 l 2,14,15
 372 1455 372 1455 372 1392 c 2,16,-1
 372 1062 l 1,17,-1
 610 1062 l 2,18,19
 667 1062 667 1062 667 1036 c 2,20,-1
 667 949 l 2,21,22
 667 925 667 925 610 925 c 2,23,-1
 372 925 l 1,24,-1
 372 58 l 2,25,26
 372 0 372 0 347 0 c 2,27,-1
 260 0 l 2,0,1
EndSplineSet
EndChar

StartChar: daggerdbl
Encoding: 8225 8225 388
Width: 590
GlyphClass: 2
Flags: W
LayerCount: 2
Fore
SplineSet
260 0 m 2,0,1
 236 0 236 0 236 58 c 2,2,-1
 236 388 l 1,3,-1
 -24 388 l 2,4,5
 -77 388 -77 388 -77 412 c 2,6,-1
 -77 499 l 2,7,8
 -77 524 -77 524 -24 524 c 2,9,-1
 236 524 l 1,10,-1
 236 951 l 1,11,-1
 -24 951 l 2,12,13
 -77 951 -77 951 -77 974 c 2,14,-1
 -77 1061 l 2,15,16
 -77 1087 -77 1087 -24 1087 c 2,17,-1
 236 1087 l 1,18,-1
 236 1392 l 2,19,20
 236 1455 236 1455 260 1455 c 2,21,-1
 347 1455 l 2,22,23
 372 1455 372 1455 372 1392 c 2,24,-1
 372 1087 l 1,25,-1
 610 1087 l 2,26,27
 667 1087 667 1087 667 1061 c 2,28,-1
 667 974 l 2,29,30
 667 951 667 951 610 951 c 2,31,-1
 372 951 l 1,32,-1
 372 524 l 1,33,-1
 610 524 l 2,34,35
 667 524 667 524 667 499 c 2,36,-1
 667 412 l 2,37,38
 667 388 667 388 610 388 c 2,39,-1
 372 388 l 1,40,-1
 372 58 l 2,41,42
 372 0 372 0 347 0 c 2,43,-1
 260 0 l 2,0,1
EndSplineSet
EndChar

StartChar: bullet
Encoding: 8226 8226 389
Width: 1117
GlyphClass: 2
Flags: W
LayerCount: 2
Fore
SplineSet
558 655 m 128,-1,1
 468 655 468 655 398.5 686 c 0,2,3
 330 716 330 716 290 768 c 0,4,5
 212 870 212 870 211 1001 c 0,6,7
 212 1138 212 1138 290 1240 c 0,8,9
 376 1352 376 1352 558 1352 c 0,10,11
 812 1352 812 1352 884 1128 c 0,12,13
 904 1068 904 1068 904 1003 c 128,-1,14
 904 938 904 938 884.5 879 c 128,-1,15
 865 820 865 820 826 768.5 c 128,-1,16
 787 717 787 717 717.5 686 c 128,-1,0
 648 655 648 655 558 655 c 128,-1,1
EndSplineSet
EndChar

StartChar: perthousand
Encoding: 8240 8240 391
Width: 1477
GlyphClass: 2
Flags: W
LayerCount: 2
Fore
SplineSet
735 402.5 m 128,-1,1
 735 101 735 101 820 101 c 128,-1,2
 905 101 905 101 905 402.5 c 128,-1,3
 905 704 905 704 820 704 c 128,-1,0
 735 704 735 704 735 402.5 c 128,-1,1
821 -1 m 0,4,5
 649 -1 649 -1 649 402.5 c 128,-1,6
 649 806 649 806 821 806 c 0,7,8
 904 806 904 806 947.5 702.5 c 128,-1,9
 991 599 991 599 991 401.5 c 128,-1,10
 991 204 991 204 947 101.5 c 128,-1,11
 903 -1 903 -1 821 -1 c 0,4,5
653 1536 m 2,12,13
 669 1536 669 1536 669 1489 c 0,14,15
 669 1482 669 1482 667 1466 c 2,16,-1
 445 -12 l 1,17,18
 433 -82 433 -82 408 -82 c 2,19,-1
 377 -82 l 2,20,21
 370 -82 370 -82 364.5 -67 c 128,-1,22
 359 -52 359 -52 359 -39 c 128,-1,23
 359 -26 359 -26 361 -12 c 2,24,-1
 584 1466 l 1,25,26
 596 1536 596 1536 621 1536 c 2,27,-1
 653 1536 l 2,12,13
125 1044.5 m 128,-1,29
 125 743 125 743 210.5 743 c 128,-1,30
 296 743 296 743 296 1044.5 c 128,-1,31
 296 1346 296 1346 210.5 1346 c 128,-1,28
 125 1346 125 1346 125 1044.5 c 128,-1,29
211 642 m 0,32,33
 39 642 39 642 39 1045 c 128,-1,34
 39 1448 39 1448 210.5 1448 c 128,-1,35
 382 1448 382 1448 382 1044 c 0,36,37
 382 846 382 846 338 744 c 128,-1,38
 294 642 294 642 211 642 c 0,32,33
1182 402.5 m 128,-1,40
 1182 101 1182 101 1267 101 c 128,-1,41
 1352 101 1352 101 1352 402.5 c 128,-1,42
 1352 704 1352 704 1267 704 c 128,-1,39
 1182 704 1182 704 1182 402.5 c 128,-1,40
1268 -1 m 0,43,44
 1096 -1 1096 -1 1096 402.5 c 128,-1,45
 1096 806 1096 806 1268 806 c 0,46,47
 1351 806 1351 806 1394.5 702.5 c 128,-1,48
 1438 599 1438 599 1438 401.5 c 128,-1,49
 1438 204 1438 204 1394 101.5 c 128,-1,50
 1350 -1 1350 -1 1268 -1 c 0,43,44
EndSplineSet
EndChar

StartChar: guilsinglleft
Encoding: 8249 8249 392
Width: 494
GlyphClass: 2
Flags: W
LayerCount: 2
Fore
SplineSet
388 381 m 1,0,1
 402 368 402 368 402 304 c 128,-1,2
 402 240 402 240 395 240 c 1,3,4
 394 225 394 225 391 225 c 128,-1,5
 388 225 388 225 388 225.5 c 128,-1,6
 388 226 388 226 387 226 c 2,7,-1
 253 360 l 1,8,9
 91 542 91 542 91 558 c 1,10,11
 77 572 77 572 77 653.5 c 128,-1,12
 77 735 77 735 88 745 c 1,13,14
 88 761 88 761 227 900 c 0,15,16
 228 902 228 902 304 982 c 128,-1,17
 380 1062 380 1062 381 1062 c 2,18,-1
 382 1062 l 1,19,-1
 384 1063 l 1,20,21
 393 1063 393 1063 396 1046 c 1,22,23
 402 1046 402 1046 402 983 c 128,-1,24
 402 920 402 920 391 903 c 1,25,26
 392 882 392 882 314 810 c 0,27,28
 299 796 299 796 233 724 c 128,-1,29
 167 652 167 652 166 647.5 c 128,-1,30
 165 643 165 643 166 638.5 c 128,-1,31
 167 634 167 634 206 596.5 c 128,-1,32
 245 559 245 559 247 558 c 1,33,34
 248 556 248 556 284 515 c 0,35,36
 388 399 388 399 388 381 c 1,0,1
EndSplineSet
EndChar

StartChar: guilsinglright
Encoding: 8250 8250 393
Width: 494
GlyphClass: 2
Flags: W
LayerCount: 2
Fore
SplineSet
89 223 m 0,0,1
 77 223 77 223 77 261 c 2,2,-1
 77 341 l 2,3,4
 77 395 77 395 101 423 c 1,5,-1
 310 620 l 2,6,7
 314 624 314 624 314 634 c 128,-1,8
 314 644 314 644 310 648 c 2,9,-1
 101 860 l 1,10,11
 77 887 77 887 77 945 c 2,12,-1
 77 1025 l 2,13,14
 77 1067 77 1067 90 1067 c 0,15,16
 95 1067 95 1067 101 1059 c 1,17,-1
 377 772 l 2,18,19
 401 747 401 747 401 687 c 2,20,-1
 402 584 l 2,21,22
 402 525 402 525 377 501 c 2,23,-1
 100 231 l 2,24,25
 92 223 92 223 89 223 c 0,0,1
EndSplineSet
EndChar

StartChar: fraction
Encoding: 8260 8260 394
Width: 548
GlyphClass: 2
Flags: W
LayerCount: 2
Fore
SplineSet
75 -180 m 1,0,-1
 377 1614 l 2,1,2
 382 1647 382 1647 396 1647 c 2,3,-1
 470 1647 l 2,4,5
 478 1647 478 1647 478 1632.5 c 128,-1,6
 478 1618 478 1618 477 1614 c 2,7,-1
 177 -173 l 2,8,9
 172 -206 172 -206 159 -206 c 2,10,-1
 83 -205 l 2,11,12
 75 -205 75 -205 75 -180 c 1,0,-1
EndSplineSet
EndChar

StartChar: Euro
Encoding: 8364 8364 395
Width: 699
GlyphClass: 2
Flags: W
LayerCount: 2
Fore
SplineSet
482 1455 m 0,0,1
 624 1455 624 1455 641 1411 c 1,2,-1
 641 1315 l 2,3,4
 641 1303 641 1303 637 1303 c 128,-1,5
 633 1303 633 1303 626 1305 c 128,-1,6
 619 1307 619 1307 607.5 1310 c 128,-1,7
 596 1313 596 1313 581 1316 c 0,8,9
 546 1323 546 1323 511 1323 c 128,-1,10
 476 1323 476 1323 450 1317.5 c 128,-1,11
 424 1312 424 1312 396 1297 c 128,-1,12
 368 1282 368 1282 347 1253 c 128,-1,13
 326 1224 326 1224 307 1181 c 0,14,15
 271 1098 271 1098 256 918 c 1,16,-1
 426 918 l 2,17,18
 439 918 439 918 444 910.5 c 128,-1,19
 449 903 449 903 449 873 c 2,20,-1
 449 844 l 2,21,22
 449 814 449 814 444 806.5 c 128,-1,23
 439 799 439 799 426 799 c 2,24,-1
 250 799 l 1,25,26
 249 774 249 774 249 721 c 128,-1,27
 249 668 249 668 250 643 c 1,28,-1
 426 643 l 2,29,30
 439 643 439 643 444 635.5 c 128,-1,31
 449 628 449 628 449 598 c 2,32,-1
 449 569 l 2,33,34
 449 539 449 539 444 531.5 c 128,-1,35
 439 524 439 524 426 524 c 2,36,-1
 255 524 l 1,37,38
 272 229 272 229 362 155 c 0,39,40
 411 115 411 115 486 115 c 128,-1,41
 561 115 561 115 620 134 c 1,42,43
 628 134 628 134 628 117 c 2,44,-1
 628 23 l 2,45,46
 628 -16 628 -16 475 -16 c 0,47,48
 332 -16 332 -16 262 40 c 0,49,50
 120 152 120 152 95 524 c 1,51,-1
 48 524 l 2,52,53
 35 524 35 524 30 531.5 c 128,-1,54
 25 539 25 539 25 569 c 2,55,-1
 25 598 l 2,56,57
 25 628 25 628 30 635.5 c 128,-1,58
 35 643 35 643 48 643 c 2,59,-1
 89 643 l 1,60,61
 88 668 88 668 88 720 c 2,62,-1
 89 799 l 1,63,-1
 48 799 l 2,64,65
 35 799 35 799 30 806.5 c 128,-1,66
 25 814 25 814 25 844 c 2,67,-1
 25 873 l 2,68,69
 25 903 25 903 30 910.5 c 128,-1,70
 35 918 35 918 48 918 c 2,71,-1
 95 918 l 1,72,73
 122 1302 122 1302 280 1404 c 0,74,75
 330 1436 330 1436 376 1445.5 c 128,-1,76
 422 1455 422 1455 482 1455 c 0,0,1
EndSplineSet
EndChar

StartChar: trademark
Encoding: 8482 8482 396
Width: 1691
GlyphClass: 2
Flags: W
LayerCount: 2
Fore
SplineSet
482 325 m 2,0,1
 482 288 482 288 463 288 c 2,2,-1
 372 288 l 2,3,4
 353 288 353 288 353 325 c 2,5,-1
 353 1312 l 2,6,7
 353 1332 353 1332 344 1332 c 2,8,-1
 204 1332 l 2,9,10
 193 1332 193 1332 188.5 1336.5 c 128,-1,11
 184 1341 184 1341 184 1360 c 2,12,-1
 184 1405 l 2,13,14
 184 1426 184 1426 188.5 1432 c 128,-1,15
 193 1438 193 1438 204 1438 c 2,16,-1
 630 1438 l 2,17,18
 649 1438 649 1438 649 1405 c 2,19,-1
 649 1360 l 2,20,21
 649 1341 649 1341 645 1336.5 c 128,-1,22
 641 1332 641 1332 630 1332 c 2,23,-1
 491 1332 l 2,24,25
 482 1332 482 1332 482 1312 c 2,26,-1
 482 325 l 2,0,1
767 288 m 2,27,28
 748 288 748 288 748 329 c 2,29,-1
 748 334 l 1,30,-1
 784 1390 l 1,31,32
 784 1438 784 1438 802 1438 c 2,33,-1
 901 1438 l 2,34,35
 926 1438 926 1438 934 1398 c 2,36,-1
 1087 620 l 2,37,38
 1088 616 1088 616 1091 616 c 128,-1,39
 1094 616 1094 616 1095 620 c 2,40,-1
 1247 1394 l 1,41,42
 1257 1438 1257 1438 1278 1438 c 2,43,-1
 1381 1438 l 2,44,45
 1400 1438 1400 1438 1400 1390 c 1,46,-1
 1436 334 l 1,47,-1
 1436 329 l 2,48,49
 1436 288 1436 288 1417 288 c 2,50,-1
 1350 288 l 2,51,52
 1331 288 1331 288 1330 334 c 2,53,-1
 1304 1186 l 2,54,55
 1304 1188 1304 1188 1302.5 1189 c 128,-1,56
 1301 1190 1301 1190 1300 1188 c 2,57,-1
 1140 331 l 2,58,59
 1131 288 1131 288 1111 288 c 2,60,-1
 1068 288 l 2,61,62
 1049 288 1049 288 1040 331 c 1,63,-1
 884 1183 l 1,64,65
 882 1185 882 1185 880 1179 c 1,66,-1
 853 334 l 1,67,68
 853 288 853 288 836 288 c 2,69,-1
 767 288 l 2,27,28
EndSplineSet
EndChar

StartChar: product
Encoding: 8719 8719 397
Width: 918
GlyphClass: 2
Flags: W
LayerCount: 2
Fore
SplineSet
274 47 m 2,0,1
 274 0 274 0 248 0 c 2,2,-1
 137 0 l 2,3,4
 124 0 124 0 118 8.5 c 128,-1,5
 112 17 112 17 112 47 c 2,6,-1
 112 1391 l 2,7,8
 112 1421 112 1421 118 1429.5 c 128,-1,9
 124 1438 124 1438 137 1438 c 2,10,-1
 782 1438 l 2,11,12
 795 1438 795 1438 800.5 1429.5 c 128,-1,13
 806 1421 806 1421 806 1391 c 2,14,-1
 806 47 l 2,15,16
 806 17 806 17 800.5 8.5 c 128,-1,17
 795 0 795 0 782 0 c 2,18,-1
 671 0 l 2,19,20
 657 0 657 0 650.5 8.5 c 128,-1,21
 644 17 644 17 644 47 c 2,22,-1
 644 1287 l 2,23,24
 644 1307 644 1307 635 1307 c 2,25,-1
 282 1307 l 2,26,27
 274 1307 274 1307 274 1288 c 2,28,-1
 274 47 l 2,0,1
EndSplineSet
EndChar

StartChar: infinity
Encoding: 8734 8734 398
Width: 866
GlyphClass: 2
Flags: W
LayerCount: 2
Fore
SplineSet
133 725 m 128,-1,1
 133 683 133 683 162.5 656 c 128,-1,2
 192 629 192 629 229 629 c 128,-1,3
 266 629 266 629 308.5 656.5 c 128,-1,4
 351 684 351 684 383 726 c 1,5,6
 352 767 352 767 310.5 794 c 0,7,8
 268 821 268 821 230 821 c 128,-1,9
 192 821 192 821 162.5 794 c 128,-1,0
 133 767 133 767 133 725 c 128,-1,1
68 725 m 128,-1,11
 68 823 68 823 117.5 883.5 c 0,12,13
 168 944 168 944 254 944 c 128,-1,14
 340 944 340 944 435 821 c 1,15,16
 481 879 481 879 524.5 911.5 c 128,-1,17
 568 944 568 944 633 944 c 128,-1,18
 698 944 698 944 748 882 c 128,-1,19
 798 820 798 820 798 722 c 128,-1,20
 798 624 798 624 748.5 565 c 0,21,22
 698 506 698 506 614 506 c 128,-1,23
 530 506 530 506 439 623 c 1,24,25
 348 506 348 506 246 506 c 0,26,27
 167 506 167 506 117.5 566.5 c 128,-1,10
 68 627 68 627 68 725 c 128,-1,11
489 722 m 1,28,29
 520 682 520 682 560 655.5 c 128,-1,30
 600 629 600 629 637 629 c 128,-1,31
 674 629 674 629 703.5 654 c 128,-1,32
 733 679 733 679 733 721 c 128,-1,33
 733 763 733 763 703 792 c 128,-1,34
 673 821 673 821 636 821 c 128,-1,35
 599 821 599 821 559 793 c 128,-1,36
 519 765 519 765 489 722 c 1,28,29
EndSplineSet
EndChar

StartChar: integral
Encoding: 8747 8747 399
Width: 491
GlyphClass: 2
Flags: W
LayerCount: 2
Fore
SplineSet
12 -124 m 1,0,-1
 -12 -125 l 2,1,2
 -29 -125 -29 -125 -35.5 -119.5 c 128,-1,3
 -42 -114 -42 -114 -42 -96 c 0,4,5
 -42 -11 -42 -11 -22 -11 c 2,6,-1
 -8 -11 l 2,7,8
 53 -11 53 -11 79.5 34.5 c 128,-1,9
 106 80 106 80 118 215 c 2,10,-1
 186 970 l 2,11,12
 208 1206 208 1206 269 1290 c 0,13,14
 301 1334 301 1334 340 1351 c 128,-1,15
 379 1368 379 1368 439.5 1368 c 128,-1,16
 500 1368 500 1368 500 1344 c 0,17,18
 500 1253 500 1253 479 1253 c 2,19,-1
 455 1253 l 2,20,21
 395 1253 395 1253 368.5 1206.5 c 128,-1,22
 342 1160 342 1160 330 1027 c 2,23,-1
 264 274 l 2,24,25
 239 -12 239 -12 135 -88 c 0,26,27
 86 -124 86 -124 12 -124 c 1,0,-1
EndSplineSet
EndChar

StartChar: approxequal
Encoding: 8776 8776 400
Width: 816
GlyphClass: 2
Flags: W
LayerCount: 2
Fore
SplineSet
715.5 655 m 128,-1,1
 719 656 719 656 728 656 c 128,-1,2
 737 656 737 656 752.5 644 c 128,-1,3
 768 632 768 632 768 619 c 2,4,-1
 768 610 l 2,5,6
 768 594 768 594 754.5 570 c 128,-1,7
 741 546 741 546 736 536.5 c 128,-1,8
 731 527 731 527 715.5 501.5 c 128,-1,9
 700 476 700 476 688.5 466.5 c 0,10,11
 678 456 678 456 658 442 c 0,12,13
 625 418 625 418 567.5 418 c 128,-1,14
 510 418 510 418 443.5 447 c 128,-1,15
 377 476 377 476 317 505 c 128,-1,16
 257 534 257 534 230.5 534 c 128,-1,17
 204 534 204 534 192.5 531 c 128,-1,18
 181 528 181 528 170 518 c 128,-1,19
 159 508 159 508 154 503 c 128,-1,20
 149 498 149 498 136.5 480.5 c 128,-1,21
 124 463 124 463 120 458 c 1,22,23
 107 435 107 435 85 437.5 c 128,-1,24
 63 440 63 440 55.5 449.5 c 128,-1,25
 48 459 48 459 48 480 c 128,-1,26
 48 501 48 501 64.5 528.5 c 128,-1,27
 81 556 81 556 93.5 575.5 c 128,-1,28
 106 595 106 595 128 618 c 0,29,30
 165 657 165 657 221.5 657 c 128,-1,31
 278 657 278 657 403.5 599.5 c 128,-1,32
 529 542 529 542 569.5 542 c 128,-1,33
 610 542 610 542 635 559 c 128,-1,34
 660 576 660 576 679 606.5 c 128,-1,35
 698 637 698 637 700 640 c 128,-1,36
 702 643 702 643 702.5 644.5 c 128,-1,37
 703 646 703 646 705.5 648.5 c 128,-1,38
 708 651 708 651 710 652.5 c 128,-1,0
 712 654 712 654 715.5 655 c 128,-1,1
715.5 961 m 128,-1,40
 719 962 719 962 727.5 962 c 128,-1,41
 736 962 736 962 752 949.5 c 128,-1,42
 768 937 768 937 768 924 c 2,43,-1
 768 916 l 2,44,45
 768 899 768 899 742 850.5 c 128,-1,46
 716 802 716 802 690 774 c 0,47,48
 642 724 642 724 576 724 c 128,-1,49
 510 724 510 724 443.5 753 c 128,-1,50
 377 782 377 782 317 811 c 128,-1,51
 257 840 257 840 230.5 840 c 128,-1,52
 204 840 204 840 192.5 837 c 128,-1,53
 181 834 181 834 170 824 c 128,-1,54
 159 814 159 814 154 809 c 128,-1,55
 149 804 149 804 136.5 786.5 c 128,-1,56
 124 769 124 769 120 764 c 1,57,58
 107 741 107 741 85 743.5 c 128,-1,59
 63 746 63 746 55.5 755 c 128,-1,60
 48 764 48 764 48 785.5 c 128,-1,61
 48 807 48 807 64 834.5 c 128,-1,62
 80 862 80 862 93 881.5 c 0,63,64
 106 902 106 902 128 924 c 0,65,66
 166 962 166 962 222 962 c 128,-1,67
 278 962 278 962 403.5 905 c 128,-1,68
 529 848 529 848 569.5 848 c 128,-1,69
 610 848 610 848 635 865 c 128,-1,70
 660 882 660 882 679 912.5 c 128,-1,71
 698 943 698 943 700 946 c 128,-1,72
 702 949 702 949 702.5 950.5 c 128,-1,73
 703 952 703 952 705.5 954.5 c 128,-1,74
 708 957 708 957 710 958.5 c 128,-1,39
 712 960 712 960 715.5 961 c 128,-1,40
EndSplineSet
EndChar

StartChar: notequal
Encoding: 8800 8800 401
Width: 643
GlyphClass: 2
Flags: W
LayerCount: 2
Fore
SplineSet
114 266 m 2,0,1
 106 266 106 266 106 293 c 2,2,-1
 106 301 l 1,3,-1
 189 515 l 1,4,-1
 93 515 l 2,5,6
 80 515 80 515 75 522 c 128,-1,7
 70 529 70 529 70 559 c 2,8,-1
 70 589 l 2,9,10
 70 619 70 619 75 626.5 c 128,-1,11
 80 634 80 634 93 634 c 2,12,-1
 235 634 l 1,13,-1
 296 790 l 1,14,-1
 93 790 l 2,15,16
 80 790 80 790 75 797 c 128,-1,17
 70 804 70 804 70 834 c 2,18,-1
 70 864 l 2,19,20
 70 894 70 894 75 901.5 c 128,-1,21
 80 909 80 909 93 909 c 2,22,-1
 342 909 l 1,23,-1
 410 1083 l 2,24,25
 416 1099 416 1099 417.5 1103.5 c 128,-1,26
 419 1108 419 1108 421 1112 c 0,27,28
 425 1118 425 1118 428 1118 c 2,29,-1
 510 1118 l 2,30,31
 518 1118 518 1118 518 1091 c 2,32,-1
 518 1083 l 1,33,-1
 450 909 l 1,34,-1
 551 909 l 2,35,36
 564 909 564 909 569 901.5 c 128,-1,37
 574 894 574 894 574 864 c 2,38,-1
 574 834 l 2,39,40
 574 804 574 804 569 797 c 128,-1,41
 564 790 564 790 551 790 c 2,42,-1
 404 790 l 1,43,-1
 343 634 l 1,44,-1
 551 634 l 2,45,46
 564 634 564 634 569 626.5 c 128,-1,47
 574 619 574 619 574 589 c 2,48,-1
 574 559 l 2,49,50
 574 529 574 529 569 522 c 128,-1,51
 564 515 564 515 551 515 c 2,52,-1
 296 515 l 1,53,-1
 212 301 l 2,54,55
 209 293 209 293 206.5 284.5 c 128,-1,56
 204 276 204 276 202 272 c 0,57,58
 199 266 199 266 196 266 c 2,59,-1
 114 266 l 2,0,1
EndSplineSet
EndChar

StartChar: lessequal
Encoding: 8804 8804 402
Width: 895
GlyphClass: 2
Flags: W
LayerCount: 2
Fore
SplineSet
250 99 m 2,0,1
 218 99 218 99 218 135 c 2,2,-1
 218 159 l 2,3,4
 218 196 218 196 250 196 c 2,5,-1
 579 196 l 2,6,7
 612 196 612 196 612 160 c 2,8,-1
 612 136 l 2,9,10
 612 99 612 99 579 99 c 2,11,-1
 250 99 l 2,0,1
600 372 m 2,12,13
 600 332 600 332 574 332 c 0,14,15
 568 332 568 332 552 346 c 2,16,-1
 266 606 l 1,17,18
 233 646 233 646 226 665.5 c 128,-1,19
 219 685 219 685 219 706 c 2,20,-1
 219 741 l 2,21,22
 219 764 219 764 222.5 772.5 c 128,-1,23
 226 781 226 781 227 784 c 128,-1,24
 228 787 228 787 231.5 793 c 128,-1,25
 235 799 235 799 236.5 801 c 128,-1,26
 238 803 238 803 243.5 810 c 128,-1,27
 249 817 249 817 250 819 c 0,28,29
 254 827 254 827 267 840 c 2,30,-1
 552 1120 l 1,31,32
 565 1131 565 1131 574 1131 c 0,33,34
 600 1131 600 1131 600 1088 c 2,35,-1
 600 1045 l 2,36,37
 600 1005 600 1005 588.5 990 c 128,-1,38
 577 975 577 975 560 953 c 1,39,-1
 331 739 l 1,40,41
 324 731 324 731 324 722 c 128,-1,42
 324 713 324 713 331 706 c 2,43,-1
 559 511 l 1,44,45
 572 498 572 498 576 492 c 128,-1,46
 580 486 580 486 585 479.5 c 128,-1,47
 590 473 590 473 591.5 468.5 c 128,-1,48
 593 464 593 464 596 457 c 0,49,50
 600 448 600 448 600 425 c 2,51,-1
 600 372 l 2,12,13
EndSplineSet
EndChar

StartChar: greaterequal
Encoding: 8805 8805 403
Width: 895
GlyphClass: 2
Flags: W
LayerCount: 2
Fore
SplineSet
580 99 m 2,0,-1
 251 99 l 2,1,2
 218 99 218 99 218 136 c 2,3,-1
 218 160 l 2,4,5
 218 196 218 196 251 196 c 2,6,-1
 580 196 l 2,7,8
 612 196 612 196 612 159 c 2,9,-1
 612 135 l 2,10,11
 612 99 612 99 580 99 c 2,0,-1
256 332 m 0,12,13
 230 332 230 332 230 372 c 2,14,-1
 230 425 l 2,15,16
 230 448 230 448 233.5 456 c 128,-1,17
 237 464 237 464 238.5 468.5 c 128,-1,18
 240 473 240 473 245 479.5 c 128,-1,19
 250 486 250 486 252 489 c 0,20,21
 258 498 258 498 271 511 c 1,22,-1
 499 706 l 2,23,24
 506 713 506 713 506 722 c 128,-1,25
 506 731 506 731 499 739 c 1,26,-1
 270 953 l 1,27,28
 267 959 267 959 261 965 c 128,-1,29
 255 971 255 971 250.5 977 c 128,-1,30
 246 983 246 983 245 985 c 128,-1,31
 244 987 244 987 241 992.5 c 128,-1,32
 238 998 238 998 237 1001.5 c 128,-1,33
 236 1005 236 1005 234 1010.5 c 128,-1,34
 232 1016 232 1016 232 1021 c 0,35,36
 230 1036 230 1036 230 1045 c 2,37,-1
 230 1088 l 2,38,39
 230 1131 230 1131 256 1131 c 0,40,41
 265 1131 265 1131 278 1120 c 1,42,-1
 563 840 l 1,43,44
 599 796 599 796 605 779 c 128,-1,45
 611 762 611 762 611 741 c 2,46,-1
 611 706 l 2,47,48
 611 668 611 668 597 648.5 c 128,-1,49
 583 629 583 629 564 606 c 1,50,-1
 278 346 l 2,51,52
 262 332 262 332 256 332 c 0,12,13
EndSplineSet
EndChar

StartChar: lozenge
Encoding: 9674 9674 404
Width: 796
GlyphClass: 2
Flags: W
LayerCount: 2
Fore
SplineSet
692 666 m 2,0,-1
 691 649 l 1,1,-1
 506 -81 l 2,2,3
 494 -132 494 -132 470 -133 c 1,4,-1
 334 -133 l 1,5,6
 310 -132 310 -132 298 -81 c 1,7,-1
 107 649 l 2,8,9
 106 653 106 653 106 663.5 c 128,-1,10
 106 674 106 674 107 679 c 2,11,-1
 296 1398 l 1,12,13
 308 1448 308 1448 333 1451 c 1,14,-1
 468 1451 l 1,15,16
 493 1448 493 1448 504 1398 c 1,17,-1
 690 679 l 2,18,19
 692 671 692 671 692 666 c 2,0,-1
397 52 m 1,20,21
 397 47 397 47 399.5 47 c 128,-1,22
 402 47 402 47 403 52 c 2,23,-1
 538 673 l 1,24,-1
 406 1265 l 1,25,26
 406 1270 406 1270 403.5 1270 c 128,-1,27
 401 1270 401 1270 401 1265 c 1,28,-1
 257 667 l 1,29,-1
 397 52 l 1,20,21
EndSplineSet
EndChar

StartChar: uniFB00
Encoding: 64256 64256 405
Width: 924
GlyphClass: 3
Flags: W
LayerCount: 2
Fore
SplineSet
895 917 m 2,0,1
 895 881 895 881 873 881 c 2,2,-1
 738 881 l 2,3,4
 729 881 729 881 729 853 c 2,5,-1
 729 66 l 2,6,7
 729 0 729 0 704 0 c 2,8,-1
 619 0 l 2,9,10
 593 0 593 0 593 66 c 2,11,-1
 593 853 l 2,12,13
 593 881 593 881 586 881 c 2,14,-1
 276 881 l 2,15,16
 267 881 267 881 267 853 c 2,17,-1
 267 66 l 2,18,19
 267 0 267 0 242 0 c 2,20,-1
 157 0 l 2,21,22
 131 0 131 0 131 66 c 2,23,-1
 131 853 l 2,24,25
 131 881 131 881 124 881 c 2,26,-1
 73 881 l 2,27,28
 49 881 49 881 49 917 c 2,29,-1
 49 967 l 2,30,31
 49 1006 49 1006 73 1006 c 2,32,-1
 124 1006 l 2,33,34
 131 1006 131 1006 131 1107 c 128,-1,35
 131 1208 131 1208 154 1298.5 c 128,-1,36
 177 1389 177 1389 219.5 1419.5 c 128,-1,37
 262 1450 262 1450 330.5 1450 c 128,-1,38
 399 1450 399 1450 412.5 1447.5 c 0,39,40
 426 1446 426 1446 430 1444 c 0,41,42
 440 1440 440 1440 440 1414 c 2,43,-1
 440 1364 l 2,44,45
 440 1324 440 1324 427 1324 c 2,46,-1
 369 1324 l 2,47,48
 309 1324 309 1324 288 1277.5 c 128,-1,49
 267 1231 267 1231 267 1097 c 2,50,-1
 267 1012 l 2,51,52
 267 1006 267 1006 270 1006 c 2,53,-1
 586 1006 l 2,54,55
 593 1006 593 1006 593 1107 c 128,-1,56
 593 1208 593 1208 616 1298.5 c 128,-1,57
 639 1389 639 1389 681.5 1419.5 c 128,-1,58
 724 1450 724 1450 792.5 1450 c 128,-1,59
 861 1450 861 1450 874.5 1447.5 c 0,60,61
 888 1446 888 1446 892 1444 c 0,62,63
 902 1440 902 1440 902 1414 c 2,64,-1
 902 1364 l 2,65,66
 902 1324 902 1324 889 1324 c 2,67,-1
 831 1324 l 2,68,69
 771 1324 771 1324 750 1277.5 c 128,-1,70
 729 1231 729 1231 729 1097 c 2,71,-1
 729 1012 l 2,72,73
 729 1006 729 1006 732 1006 c 2,74,-1
 873 1006 l 2,75,76
 895 1006 895 1006 895 971 c 2,77,-1
 895 917 l 2,0,1
EndSplineSet
Ligature2: "'liga' Standard Ligatures lookup 0 subtable" f f
EndChar

StartChar: uniFB01
Encoding: 64257 64257 406
Width: 800
GlyphClass: 3
Flags: W
LayerCount: 2
Fore
SplineSet
710 1218 m 2,0,1
 710 1167 710 1167 687 1167 c 2,2,-1
 588 1167 l 2,3,4
 564 1167 564 1167 564 1218 c 2,5,-1
 564 1322 l 2,6,7
 564 1374 564 1374 588 1374 c 2,8,-1
 687 1374 l 2,9,10
 710 1374 710 1374 710 1322 c 2,11,-1
 710 1218 l 2,0,1
73 881 m 2,12,13
 49 881 49 881 49 917 c 2,14,-1
 49 967 l 2,15,16
 49 1006 49 1006 73 1006 c 2,17,-1
 124 1006 l 2,18,19
 131 1006 131 1006 131 1107 c 128,-1,20
 131 1208 131 1208 154 1298.5 c 128,-1,21
 177 1389 177 1389 219.5 1419.5 c 128,-1,22
 262 1450 262 1450 330.5 1450 c 128,-1,23
 399 1450 399 1450 412.5 1447.5 c 0,24,25
 426 1446 426 1446 430 1444 c 0,26,27
 440 1440 440 1440 440 1414 c 2,28,-1
 440 1364 l 2,29,30
 440 1324 440 1324 427 1324 c 2,31,-1
 369 1324 l 2,32,33
 309 1324 309 1324 288 1277.5 c 128,-1,34
 267 1231 267 1231 267 1097 c 2,35,-1
 267 1012 l 2,36,37
 267 1006 267 1006 270 1006 c 2,38,-1
 681 1006 l 2,39,40
 705 1006 705 1006 705 946 c 2,41,-1
 705 61 l 2,42,43
 705 0 705 0 681 0 c 2,44,-1
 594 0 l 2,45,46
 569 0 569 0 569 61 c 2,47,-1
 569 881 l 1,48,-1
 276 881 l 2,49,50
 267 881 267 881 267 853 c 2,51,-1
 267 66 l 2,52,53
 267 0 267 0 242 0 c 2,54,-1
 157 0 l 2,55,56
 131 0 131 0 131 66 c 2,57,-1
 131 853 l 2,58,59
 131 881 131 881 124 881 c 2,60,-1
 73 881 l 2,12,13
EndSplineSet
Ligature2: "'liga' Standard Ligatures lookup 0 subtable" f i
EndChar

StartChar: uniFB02
Encoding: 64258 64258 407
Width: 800
GlyphClass: 3
Flags: W
LayerCount: 2
Fore
SplineSet
433 917 m 2,0,1
 433 881 433 881 411 881 c 2,2,-1
 276 881 l 2,3,4
 267 881 267 881 267 853 c 2,5,-1
 267 66 l 2,6,7
 267 0 267 0 242 0 c 2,8,-1
 157 0 l 2,9,10
 131 0 131 0 131 66 c 2,11,-1
 131 853 l 2,12,13
 131 881 131 881 124 881 c 2,14,-1
 73 881 l 2,15,16
 49 881 49 881 49 917 c 2,17,-1
 49 967 l 2,18,19
 49 1006 49 1006 73 1006 c 2,20,-1
 124 1006 l 2,21,22
 131 1006 131 1006 131 1107 c 128,-1,23
 131 1208 131 1208 154 1298.5 c 128,-1,24
 177 1389 177 1389 219.5 1419.5 c 128,-1,25
 262 1450 262 1450 330.5 1450 c 128,-1,26
 399 1450 399 1450 412.5 1447.5 c 0,27,28
 426 1446 426 1446 430 1444 c 0,29,30
 440 1440 440 1440 440 1414 c 2,31,-1
 440 1364 l 2,32,33
 440 1324 440 1324 427 1324 c 2,34,-1
 369 1324 l 2,35,36
 309 1324 309 1324 288 1277.5 c 128,-1,37
 267 1231 267 1231 267 1097 c 2,38,-1
 267 1012 l 2,39,40
 267 1006 267 1006 270 1006 c 2,41,-1
 411 1006 l 2,42,43
 433 1006 433 1006 433 971 c 2,44,-1
 433 917 l 2,0,1
596 0 m 2,45,46
 571 0 571 0 571 58 c 2,47,-1
 571 1392 l 2,48,49
 571 1455 571 1455 596 1455 c 2,50,-1
 683 1455 l 2,51,52
 707 1455 707 1455 707 1392 c 2,53,-1
 707 58 l 2,54,55
 707 0 707 0 683 0 c 2,56,-1
 596 0 l 2,45,46
EndSplineSet
Ligature2: "'liga' Standard Ligatures lookup 0 subtable" f l
EndChar

StartChar: Delta
Encoding: 916 916 408
Width: 796
GlyphClass: 2
Flags: W
LayerCount: 2
Fore
SplineSet
112 246 m 2,0,1
 97 246 97 246 97 275 c 2,2,-1
 97 290 l 2,3,4
 97 300 97 300 98 306 c 2,5,-1
 292 1325 l 2,6,7
 302 1375 302 1375 329 1378 c 1,8,-1
 474 1378 l 1,9,10
 502 1375 502 1375 510 1325 c 1,11,-1
 699 306 l 2,12,13
 704 278 704 278 704 275 c 0,14,15
 704 246 704 246 688 246 c 2,16,-1
 112 246 l 2,0,1
283 376 m 2,17,-1
 516 376 l 2,18,19
 521 376 521 376 521 386 c 0,20,21
 521 396 521 396 519 397 c 1,22,-1
 403 1192 l 1,23,-1
 401 1197 l 1,24,25
 398 1197 398 1197 398 1192 c 2,26,-1
 271 400 l 2,27,28
 270 396 270 396 270 391 c 0,29,30
 270 376 270 376 283 376 c 2,17,-1
EndSplineSet
EndChar

StartChar: uni030F
Encoding: 783 783 409
Width: 596
GlyphClass: 2
Flags: W
LayerCount: 2
Fore
SplineSet
242 1235 m 1,0,-1
 244 1194 l 1,1,2
 244 1168 244 1168 233 1168 c 2,3,-1
 212 1168 l 2,4,5
 202 1168 202 1168 198.5 1178 c 128,-1,6
 195 1188 195 1188 194 1190.5 c 128,-1,7
 193 1193 193 1193 191.5 1198.5 c 128,-1,8
 190 1204 190 1204 189 1207 c 2,9,-1
 116 1500 l 1,10,11
 112 1524 112 1524 112 1544.5 c 128,-1,12
 112 1565 112 1565 128 1565 c 2,13,-1
 190 1565 l 2,14,15
 217 1565 217 1565 221 1510 c 2,16,-1
 242 1235 l 1,0,-1
412 1510 m 1,17,-1
 436 1194 l 1,18,19
 436 1168 436 1168 423 1168 c 2,20,-1
 403 1168 l 2,21,22
 391 1168 391 1168 389 1176 c 128,-1,23
 387 1184 387 1184 385.5 1187.5 c 0,24,25
 384 1192 384 1192 384 1194 c 0,26,27
 382 1202 382 1202 380 1207 c 2,28,-1
 308 1500 l 1,29,30
 304 1524 304 1524 304 1544.5 c 128,-1,31
 304 1565 304 1565 319 1565 c 2,32,-1
 382 1565 l 2,33,34
 409 1565 409 1565 412 1510 c 1,17,-1
EndSplineSet
EndChar

StartChar: uniFB03
Encoding: 64259 64259 410
Width: 1262
GlyphClass: 3
Flags: W
LayerCount: 2
Fore
SplineSet
1172 1218 m 2,0,1
 1172 1167 1172 1167 1149 1167 c 2,2,-1
 1050 1167 l 2,3,4
 1026 1167 1026 1167 1026 1218 c 2,5,-1
 1026 1322 l 2,6,7
 1026 1374 1026 1374 1050 1374 c 2,8,-1
 1149 1374 l 2,9,10
 1172 1374 1172 1374 1172 1322 c 2,11,-1
 1172 1218 l 2,0,1
73 881 m 2,12,13
 49 881 49 881 49 917 c 2,14,-1
 49 967 l 2,15,16
 49 1006 49 1006 73 1006 c 2,17,-1
 124 1006 l 2,18,19
 131 1006 131 1006 131 1107 c 128,-1,20
 131 1208 131 1208 154 1298.5 c 128,-1,21
 177 1389 177 1389 219.5 1419.5 c 128,-1,22
 262 1450 262 1450 330.5 1450 c 128,-1,23
 399 1450 399 1450 412.5 1447.5 c 0,24,25
 426 1446 426 1446 430 1444 c 0,26,27
 440 1440 440 1440 440 1414 c 2,28,-1
 440 1364 l 2,29,30
 440 1324 440 1324 427 1324 c 2,31,-1
 369 1324 l 2,32,33
 309 1324 309 1324 288 1277.5 c 128,-1,34
 267 1231 267 1231 267 1097 c 2,35,-1
 267 1012 l 2,36,37
 267 1006 267 1006 270 1006 c 2,38,-1
 586 1006 l 2,39,40
 593 1006 593 1006 593 1107 c 128,-1,41
 593 1208 593 1208 616 1298.5 c 128,-1,42
 639 1389 639 1389 681.5 1419.5 c 128,-1,43
 724 1450 724 1450 792.5 1450 c 128,-1,44
 861 1450 861 1450 874.5 1447.5 c 0,45,46
 888 1446 888 1446 892 1444 c 0,47,48
 902 1440 902 1440 902 1414 c 2,49,-1
 902 1364 l 2,50,51
 902 1324 902 1324 889 1324 c 2,52,-1
 831 1324 l 2,53,54
 771 1324 771 1324 750 1277.5 c 128,-1,55
 729 1231 729 1231 729 1097 c 2,56,-1
 729 1012 l 2,57,58
 729 1006 729 1006 732 1006 c 2,59,-1
 1143 1006 l 2,60,61
 1167 1006 1167 1006 1167 946 c 2,62,-1
 1167 61 l 2,63,64
 1167 0 1167 0 1143 0 c 2,65,-1
 1056 0 l 2,66,67
 1031 0 1031 0 1031 61 c 2,68,-1
 1031 881 l 1,69,-1
 738 881 l 2,70,71
 729 881 729 881 729 853 c 2,72,-1
 729 66 l 2,73,74
 729 0 729 0 704 0 c 2,75,-1
 619 0 l 2,76,77
 593 0 593 0 593 66 c 2,78,-1
 593 853 l 2,79,80
 593 881 593 881 586 881 c 2,81,-1
 276 881 l 2,82,83
 267 881 267 881 267 853 c 2,84,-1
 267 66 l 2,85,86
 267 0 267 0 242 0 c 2,87,-1
 157 0 l 2,88,89
 131 0 131 0 131 66 c 2,90,-1
 131 853 l 2,91,92
 131 881 131 881 124 881 c 2,93,-1
 73 881 l 2,12,13
EndSplineSet
Ligature2: "'liga' Standard Ligatures lookup 0 subtable" f f i
EndChar

StartChar: minus
Encoding: 8722 8722 411
Width: 875
GlyphClass: 2
Flags: W
LayerCount: 2
Fore
SplineSet
133 612 m 2,0,1
 89 612 89 612 89 659 c 2,2,-1
 89 700 l 2,3,4
 89 749 89 749 133 749 c 2,5,-1
 742 749 l 2,6,7
 786 749 786 749 786 701 c 2,8,-1
 786 660 l 2,9,10
 786 612 786 612 742 612 c 2,11,-1
 133 612 l 2,0,1
EndSplineSet
EndChar

StartChar: uni00B9
Encoding: 185 185 412
Width: 341
GlyphClass: 2
Flags: W
LayerCount: 2
Fore
SplineSet
164 288 m 2,0,1
 146 288 146 288 146 342 c 2,2,-1
 146 1262 l 2,3,4
 146 1287 146 1287 135 1283 c 1,5,6
 66 1266 66 1266 61 1265 c 0,7,8
 47 1262 47 1262 47 1296 c 2,9,-1
 47 1358 l 2,10,11
 47 1383 47 1383 66 1387 c 2,12,-1
 248 1435 l 2,13,14
 256 1437 256 1437 259 1437 c 0,15,16
 275 1437 275 1437 275 1403 c 2,17,-1
 275 342 l 2,18,19
 275 288 275 288 255 288 c 2,20,-1
 164 288 l 2,0,1
EndSplineSet
EndChar

StartChar: uni00B3
Encoding: 179 179 413
Width: 521
GlyphClass: 2
Flags: W
LayerCount: 2
Fore
SplineSet
53 330 m 0,0,1
 42 339 42 339 42 380.5 c 128,-1,2
 42 422 42 422 50 422 c 1,3,4
 50 440 50 440 53 438 c 0,5,6
 113 398 113 398 200 398 c 0,7,8
 286 398 286 398 326 452 c 0,9,10
 365 505 365 505 366 620 c 0,11,12
 366 739 366 739 322 787 c 0,13,14
 280 835 280 835 185 835 c 0,15,16
 165 835 165 835 165 860 c 2,17,-1
 165 926 l 2,18,19
 165 946 165 946 185 946 c 0,20,21
 199 946 199 946 212 946 c 0,22,23
 357 950 357 950 357 1148 c 0,24,25
 357 1263 357 1263 321 1312 c 128,-1,26
 285 1361 285 1361 203.5 1361 c 128,-1,27
 122 1361 122 1361 54 1321 c 1,28,29
 48 1316 48 1316 47 1328 c 2,30,-1
 46 1334 l 1,31,32
 44 1334 44 1334 41 1355.5 c 128,-1,33
 38 1377 38 1377 38 1395.5 c 128,-1,34
 38 1414 38 1414 51 1423 c 0,35,36
 122 1466 122 1466 229 1466 c 0,37,38
 474 1466 474 1466 474 1154 c 0,39,40
 474 932 474 932 316 890 c 1,41,42
 481 857 481 857 481 597 c 0,43,44
 481 362 481 362 315 308 c 0,45,46
 270 294 270 294 187.5 293.5 c 128,-1,47
 105 293 105 293 53 330 c 0,0,1
EndSplineSet
EndChar

StartChar: uni00B2
Encoding: 178 178 414
Width: 555
GlyphClass: 2
Flags: W
LayerCount: 2
Fore
SplineSet
466 291 m 2,0,-1
 71 291 l 2,1,2
 51 290 51 290 51 336 c 0,3,4
 51 584 51 584 180 776 c 0,5,6
 229 848 229 848 277 914 c 0,7,8
 392 1071 392 1071 392 1183 c 0,9,10
 392 1261 392 1261 356 1304 c 128,-1,11
 320 1347 320 1347 272.5 1347 c 128,-1,12
 225 1347 225 1347 194 1341 c 128,-1,13
 163 1335 163 1335 145.5 1329 c 128,-1,14
 128 1323 128 1323 102 1312 c 128,-1,15
 76 1301 76 1301 65 1297 c 1,16,17
 55 1287 55 1287 53 1305 c 1,18,19
 37 1346 37 1346 37 1368 c 128,-1,20
 37 1390 37 1390 44 1399 c 1,21,22
 142 1453 142 1453 260 1453 c 0,23,24
 364 1453 364 1453 436 1400 c 0,25,26
 518 1340 518 1340 518 1191 c 0,27,28
 518 1054 518 1054 413 907 c 0,29,30
 368 844 368 844 322 778 c 0,31,32
 206 615 206 615 180 431 c 1,33,34
 178 426 178 426 181 406.5 c 128,-1,35
 184 387 184 387 188 387 c 2,36,-1
 467 387 l 2,37,38
 481 387 481 387 481 353 c 2,39,-1
 481 324 l 2,40,41
 481 291 481 291 466 291 c 2,0,-1
EndSplineSet
EndChar

StartChar: uni02C9
Encoding: 713 713 415
Width: 783
GlyphClass: 2
Flags: W
LayerCount: 2
Fore
SplineSet
220 489 m 2,0,1
 188 489 188 489 188 525 c 2,2,-1
 188 549 l 2,3,4
 188 586 188 586 220 586 c 2,5,-1
 579 586 l 2,6,7
 612 586 612 586 612 550 c 2,8,-1
 612 526 l 2,9,10
 612 489 612 489 579 489 c 2,11,-1
 220 489 l 2,0,1
EndSplineSet
EndChar

StartChar: uni2215
Encoding: 8725 8725 416
Width: 531
GlyphClass: 2
Flags: W
LayerCount: 2
Fore
SplineSet
75 -180 m 1,0,-1
 377 1614 l 2,1,2
 382 1647 382 1647 396 1647 c 2,3,-1
 470 1647 l 2,4,5
 478 1647 478 1647 478 1632.5 c 128,-1,6
 478 1618 478 1618 477 1614 c 2,7,-1
 177 -173 l 2,8,9
 172 -206 172 -206 159 -206 c 2,10,-1
 83 -205 l 2,11,12
 75 -205 75 -205 75 -180 c 1,0,-1
EndSplineSet
EndChar

StartChar: uni0311
Encoding: 785 785 420
Width: 1403
GlyphClass: 2
Flags: W
LayerCount: 2
Fore
SplineSet
427 1294 m 1,0,1
 428 1385 428 1385 482.5 1432.5 c 0,2,3
 538 1480 538 1480 614 1480 c 128,-1,4
 690 1480 690 1480 743.5 1433 c 128,-1,5
 797 1386 797 1386 798 1294 c 1,6,-1
 719 1294 l 1,7,8
 719 1343 719 1343 688 1367.5 c 128,-1,9
 657 1392 657 1392 612 1392 c 128,-1,10
 567 1392 567 1392 535.5 1367.5 c 128,-1,11
 504 1343 504 1343 504 1294 c 1,12,-1
 427 1294 l 1,0,1
EndSplineSet
EndChar
